<?xml version="1.0" encoding="utf-8" standalone="no"?>
<!DOCTYPE svg PUBLIC "-//W3C//DTD SVG 1.1//EN"
  "http://www.w3.org/Graphics/SVG/1.1/DTD/svg11.dtd">
<svg xmlns:xlink="http://www.w3.org/1999/xlink" width="109.44pt" height="134.64pt" viewBox="0 0 109.44 134.64" xmlns="http://www.w3.org/2000/svg" version="1.1">
 <metadata>
  <rdf:RDF xmlns:dc="http://purl.org/dc/elements/1.1/" xmlns:cc="http://creativecommons.org/ns#" xmlns:rdf="http://www.w3.org/1999/02/22-rdf-syntax-ns#">
   <cc:Work>
    <dc:type rdf:resource="http://purl.org/dc/dcmitype/StillImage"/>
    <dc:date>2025-08-28T21:48:23.045111</dc:date>
    <dc:format>image/svg+xml</dc:format>
    <dc:creator>
     <cc:Agent>
      <dc:title>Matplotlib v3.7.0, https://matplotlib.org/</dc:title>
     </cc:Agent>
    </dc:creator>
   </cc:Work>
  </rdf:RDF>
 </metadata>
 <defs>
  <style type="text/css">*{stroke-linejoin: round; stroke-linecap: butt}</style>
 </defs>
 <g id="figure_1">
  <g id="patch_1">
   <path d="M 0 134.64 
L 109.44 134.64 
L 109.44 0 
L 0 0 
z
" style="fill: #ffffff"/>
  </g>
  <g id="axes_1">
   <g id="patch_2">
    <path d="M 28.034063 104.876063 
L 107.64 104.876063 
L 107.64 17.672 
L 28.034063 17.672 
z
" style="fill: #ffffff"/>
   </g>
   <g id="line2d_1"/>
   <g id="line2d_2">
    <path d="M 31.652514 36.629405 
L 31.652514 29.994313 
" clip-path="url(#p31f1ad272d)" style="fill: none; stroke: #000000; stroke-width: 1.25; stroke-linecap: square"/>
   </g>
   <g id="line2d_3">
    <path d="M 85.259206 52.743199 
L 85.259206 40.420886 
" clip-path="url(#p31f1ad272d)" style="fill: none; stroke: #000000; stroke-width: 1.25; stroke-linecap: square"/>
   </g>
   <g id="PathCollection_1">
    <defs>
     <path id="m709c4008e4" d="M 0 1.917571 
C 0.508546 1.917571 0.996331 1.715523 1.355927 1.355927 
C 1.715523 0.996331 1.917571 0.508546 1.917571 0 
C 1.917571 -0.508546 1.715523 -0.996331 1.355927 -1.355927 
C 0.996331 -1.715523 0.508546 -1.917571 0 -1.917571 
C -0.508546 -1.917571 -0.996331 -1.715523 -1.355927 -1.355927 
C -1.715523 -0.996331 -1.917571 -0.508546 -1.917571 0 
C -1.917571 0.508546 -1.715523 0.996331 -1.355927 1.355927 
C -0.996331 1.715523 -0.508546 1.917571 0 1.917571 
z
" style="stroke: #000000; stroke-width: 0.5"/>
    </defs>
    <g clip-path="url(#p31f1ad272d)">
     <use xlink:href="#m709c4008e4" x="31.652514" y="33.209489" style="stroke: #000000; stroke-width: 0.5"/>
     <use xlink:href="#m709c4008e4" x="85.259206" y="46.515692" style="stroke: #000000; stroke-width: 0.5"/>
    </g>
   </g>
   <g id="matplotlib.axis_1">
    <g id="xtick_1">
     <g id="line2d_4">
      <defs>
       <path id="md55c45e2f0" d="M 0 0 
L 0 3 
" style="stroke: #000000; stroke-width: 0.5"/>
      </defs>
      <g>
       <use xlink:href="#md55c45e2f0" x="41.033685" y="104.876063" style="stroke: #000000; stroke-width: 0.5"/>
      </g>
     </g>
     <g id="text_1">
      <g id="patch_3">
       <path d="M 29.345873 124.299688 
L 52.721498 124.299688 
L 52.721498 110.28575 
L 29.345873 110.28575 
z
" style="fill: #ff5b00; opacity: 0.4"/>
      </g>
      <text style="font: 6px 'Arial', 'Helvetica', sans-serif" transform="translate(30.530873 115.67075)">Early IA</text>
      <text style="font: 6px 'Arial', 'Helvetica', sans-serif" transform="translate(30.365873 122.087188)"> Correct</text>
     </g>
    </g>
    <g id="xtick_2">
     <g id="line2d_5">
      <g>
       <use xlink:href="#md55c45e2f0" x="94.640377" y="104.876063" style="stroke: #000000; stroke-width: 0.5"/>
      </g>
     </g>
     <g id="text_2">
      <g id="patch_4">
       <path d="M 81.78444 124.372813 
L 107.496315 124.372813 
L 107.496315 110.28575 
L 81.78444 110.28575 
z
" style="fill: #7e1e9c; opacity: 0.4"/>
      </g>
      <text style="font: 6px 'Arial', 'Helvetica', sans-serif" transform="translate(82.80444 115.743875)">Early RS</text>
      <text style="font: 6px 'Arial', 'Helvetica', sans-serif" transform="translate(83.972565 122.160313)"> Correct</text>
     </g>
    </g>
    <g id="text_3">
     <text style="font: 6px 'Arial', 'Helvetica', sans-serif; text-anchor: middle" x="67.837031" y="131.6475" transform="rotate(-0 67.837031 131.6475)">Cell Ensemble</text>
    </g>
   </g>
   <g id="matplotlib.axis_2">
    <g id="ytick_1">
     <g id="line2d_6">
      <defs>
       <path id="m169528a38e" d="M 0 0 
L -3 0 
" style="stroke: #000000; stroke-width: 0.5"/>
      </defs>
      <g>
       <use xlink:href="#m169528a38e" x="28.034063" y="104.876063" style="stroke: #000000; stroke-width: 0.5"/>
      </g>
     </g>
     <g id="text_4">
      <text style="font: 6px 'Arial', 'Helvetica', sans-serif; text-anchor: end" x="23.034063" y="107.023406" transform="rotate(-0 23.034063 107.023406)">0.90</text>
     </g>
    </g>
    <g id="ytick_2">
     <g id="line2d_7">
      <g>
       <use xlink:href="#m169528a38e" x="28.034063" y="89.710139" style="stroke: #000000; stroke-width: 0.5"/>
      </g>
     </g>
     <g id="text_5">
      <text style="font: 6px 'Arial', 'Helvetica', sans-serif; text-anchor: end" x="23.034063" y="91.857482" transform="rotate(-0 23.034063 91.857482)">0.92</text>
     </g>
    </g>
    <g id="ytick_3">
     <g id="line2d_8">
      <g>
       <use xlink:href="#m169528a38e" x="28.034063" y="74.544215" style="stroke: #000000; stroke-width: 0.5"/>
      </g>
     </g>
     <g id="text_6">
      <text style="font: 6px 'Arial', 'Helvetica', sans-serif; text-anchor: end" x="23.034063" y="76.691558" transform="rotate(-0 23.034063 76.691558)">0.94</text>
     </g>
    </g>
    <g id="ytick_4">
     <g id="line2d_9">
      <g>
       <use xlink:href="#m169528a38e" x="28.034063" y="59.378291" style="stroke: #000000; stroke-width: 0.5"/>
      </g>
     </g>
     <g id="text_7">
      <text style="font: 6px 'Arial', 'Helvetica', sans-serif; text-anchor: end" x="23.034063" y="61.525635" transform="rotate(-0 23.034063 61.525635)">0.96</text>
     </g>
    </g>
    <g id="ytick_5">
     <g id="line2d_10">
      <g>
       <use xlink:href="#m169528a38e" x="28.034063" y="44.212367" style="stroke: #000000; stroke-width: 0.5"/>
      </g>
     </g>
     <g id="text_8">
      <text style="font: 6px 'Arial', 'Helvetica', sans-serif; text-anchor: end" x="23.034063" y="46.359711" transform="rotate(-0 23.034063 46.359711)">0.98</text>
     </g>
    </g>
    <g id="ytick_6">
     <g id="line2d_11">
      <g>
       <use xlink:href="#m169528a38e" x="28.034063" y="29.046443" style="stroke: #000000; stroke-width: 0.5"/>
      </g>
     </g>
     <g id="text_9">
      <text style="font: 6px 'Arial', 'Helvetica', sans-serif; text-anchor: end" x="23.034063" y="31.193787" transform="rotate(-0 23.034063 31.193787)">1.00</text>
     </g>
    </g>
    <g id="text_10">
     <text style="font: 6px 'Arial', 'Helvetica', sans-serif; text-anchor: middle" x="6.094688" y="61.274031" transform="rotate(-90 6.094688 61.274031)">Mean accuracy</text>
    </g>
   </g>
   <g id="line2d_12"/>
   <g id="line2d_13">
    <path d="M 37.906628 39.473016 
L 37.906628 31.890054 
" clip-path="url(#p31f1ad272d)" style="fill: none; stroke: #ff0000; stroke-width: 1.25; stroke-linecap: square"/>
   </g>
   <g id="line2d_14">
    <path d="M 91.51332 102.980322 
L 91.51332 80.231436 
" clip-path="url(#p31f1ad272d)" style="fill: none; stroke: #ff0000; stroke-width: 1.25; stroke-linecap: square"/>
   </g>
   <g id="PathCollection_2">
    <defs>
     <path id="m8e5d3b3b64" d="M 0 1.917571 
C 0.508546 1.917571 0.996331 1.715523 1.355927 1.355927 
C 1.715523 0.996331 1.917571 0.508546 1.917571 0 
C 1.917571 -0.508546 1.715523 -0.996331 1.355927 -1.355927 
C 0.996331 -1.715523 0.508546 -1.917571 0 -1.917571 
C -0.508546 -1.917571 -0.996331 -1.715523 -1.355927 -1.355927 
C -1.715523 -0.996331 -1.917571 -0.508546 -1.917571 0 
C -1.917571 0.508546 -1.715523 0.996331 -1.355927 1.355927 
C -0.996331 1.715523 -0.508546 1.917571 0 1.917571 
z
" style="stroke: #000000; stroke-width: 0.5"/>
    </defs>
    <g clip-path="url(#p31f1ad272d)">
     <use xlink:href="#m8e5d3b3b64" x="37.906628" y="35.974427" style="fill: #ff0000; stroke: #000000; stroke-width: 0.5"/>
     <use xlink:href="#m8e5d3b3b64" x="91.51332" y="91.248532" style="fill: #ff0000; stroke: #000000; stroke-width: 0.5"/>
    </g>
   </g>
   <g id="line2d_15">
    <path d="M 37.906628 26.506151 
L 37.906628 26.506151 
L 44.160742 26.506151 
L 44.160742 26.506151 
" style="fill: none; stroke: #000000; stroke-width: 0.75; stroke-linecap: square"/>
   </g>
   <g id="line2d_16">
    <path d="M 37.906628 21.180806 
L 37.906628 21.180806 
L 50.414856 21.180806 
L 50.414856 21.180806 
" style="fill: none; stroke: #000000; stroke-width: 0.75; stroke-linecap: square"/>
   </g>
   <g id="line2d_17">
    <path d="M 85.259206 35.984853 
L 85.259206 35.984853 
L 91.51332 35.984853 
L 91.51332 35.984853 
" style="fill: none; stroke: #000000; stroke-width: 0.75; stroke-linecap: square"/>
   </g>
   <g id="line2d_18">
    <path d="M 91.51332 30.659508 
L 91.51332 30.659508 
L 97.767434 30.659508 
L 97.767434 30.659508 
" style="fill: none; stroke: #000000; stroke-width: 0.75; stroke-linecap: square"/>
   </g>
   <g id="line2d_19">
    <path d="M 91.51332 25.334163 
L 91.51332 25.334163 
L 104.021548 25.334163 
L 104.021548 25.334163 
" style="fill: none; stroke: #000000; stroke-width: 0.75; stroke-linecap: square"/>
   </g>
   <g id="patch_5">
    <path d="M 28.034063 104.876063 
L 28.034063 17.672 
" style="fill: none; stroke: #000000; stroke-width: 0.5; stroke-linejoin: miter; stroke-linecap: square"/>
   </g>
   <g id="patch_6">
    <path d="M 28.034063 104.876063 
L 107.64 104.876063 
" style="fill: none; stroke: #000000; stroke-width: 0.5; stroke-linejoin: miter; stroke-linecap: square"/>
   </g>
   <g id="line2d_20"/>
   <g id="line2d_21">
    <path d="M 44.160742 35.681535 
L 44.160742 29.994313 
" clip-path="url(#p31f1ad272d)" style="fill: none; stroke: #1e90ff; stroke-width: 1.25; stroke-linecap: square"/>
   </g>
   <g id="line2d_22">
    <path d="M 97.767434 52.743199 
L 97.767434 41.368756 
" clip-path="url(#p31f1ad272d)" style="fill: none; stroke: #1e90ff; stroke-width: 1.25; stroke-linecap: square"/>
   </g>
   <g id="PathCollection_3">
    <defs>
     <path id="m54faebb792" d="M 0 1.917571 
C 0.508546 1.917571 0.996331 1.715523 1.355927 1.355927 
C 1.715523 0.996331 1.917571 0.508546 1.917571 0 
C 1.917571 -0.508546 1.715523 -0.996331 1.355927 -1.355927 
C 0.996331 -1.715523 0.508546 -1.917571 0 -1.917571 
C -0.508546 -1.917571 -0.996331 -1.715523 -1.355927 -1.355927 
C -1.715523 -0.996331 -1.917571 -0.508546 -1.917571 0 
C -1.917571 0.508546 -1.715523 0.996331 -1.355927 1.355927 
C -0.996331 1.715523 -0.508546 1.917571 0 1.917571 
z
" style="stroke: #000000; stroke-width: 0.5"/>
    </defs>
    <g clip-path="url(#p31f1ad272d)">
     <use xlink:href="#m54faebb792" x="44.160742" y="32.578207" style="fill: #1e90ff; stroke: #000000; stroke-width: 0.5"/>
     <use xlink:href="#m54faebb792" x="97.767434" y="47.135599" style="fill: #1e90ff; stroke: #000000; stroke-width: 0.5"/>
    </g>
   </g>
   <g id="text_11">
    <g id="patch_7">
     <path d="M 39.07681 30.487235 
L 42.99056 30.487235 
L 42.99056 22.370985 
L 39.07681 22.370985 
L 39.07681 30.487235 
z
" style="fill: none"/>
    </g>
    <text style="font: 8px 'Arial', 'Helvetica', sans-serif; text-anchor: middle" x="41.033685" y="28.497235" transform="rotate(-0 41.033685 28.497235)">*</text>
   </g>
   <g id="text_12">
    <g id="patch_8">
     <path d="M 40.646992 25.16189 
L 47.674492 25.16189 
L 47.674492 17.04564 
L 40.646992 17.04564 
L 40.646992 25.16189 
z
" style="fill: none"/>
    </g>
    <text style="font: 8px 'Arial', 'Helvetica', sans-serif; text-anchor: middle" x="44.160742" y="23.17189" transform="rotate(-0 44.160742 23.17189)">**</text>
   </g>
   <g id="text_13">
    <g id="patch_9">
     <path d="M 83.315638 39.965938 
L 93.456888 39.965938 
L 93.456888 31.849688 
L 83.315638 31.849688 
L 83.315638 39.965938 
z
" style="fill: none"/>
    </g>
    <text style="font: 8px 'Arial', 'Helvetica', sans-serif; text-anchor: middle" x="88.386263" y="37.975938" transform="rotate(-0 88.386263 37.975938)">***</text>
   </g>
   <g id="text_14">
    <g id="patch_10">
     <path d="M 89.569752 34.640592 
L 99.711002 34.640592 
L 99.711002 26.524342 
L 89.569752 26.524342 
L 89.569752 34.640592 
z
" style="fill: none"/>
    </g>
    <text style="font: 8px 'Arial', 'Helvetica', sans-serif; text-anchor: middle" x="94.640377" y="32.650592" transform="rotate(-0 94.640377 32.650592)">***</text>
   </g>
   <g id="text_15">
    <g id="patch_11">
     <path d="M 92.696809 29.315247 
L 102.838059 29.315247 
L 102.838059 21.198997 
L 92.696809 21.198997 
L 92.696809 29.315247 
z
" style="fill: none"/>
    </g>
    <text style="font: 8px 'Arial', 'Helvetica', sans-serif; text-anchor: middle" x="97.767434" y="27.325247" transform="rotate(-0 97.767434 27.325247)">***</text>
   </g>
   <g id="text_16">
    <text style="font: 6px 'Arial', 'Helvetica', sans-serif" transform="translate(31.830937 6.167812)">Classify Correct activity as:</text>
    <text style="font: 6px 'Arial', 'Helvetica', sans-serif" transform="translate(40.162969 12.672)"> Early IA vs Early RS</text>
   </g>
   <g id="line2d_23"/>
   <g id="line2d_24">
    <path d="M 50.414856 33.785794 
L 50.414856 29.994313 
" clip-path="url(#p31f1ad272d)" style="fill: none; stroke: #32cd32; stroke-width: 1.25; stroke-linecap: square"/>
   </g>
   <g id="line2d_25">
    <path d="M 104.021548 50.847459 
L 104.021548 39.473016 
" clip-path="url(#p31f1ad272d)" style="fill: none; stroke: #32cd32; stroke-width: 1.25; stroke-linecap: square"/>
   </g>
   <g id="PathCollection_4">
    <defs>
     <path id="m534706709d" d="M 0 1.917571 
C 0.508546 1.917571 0.996331 1.715523 1.355927 1.355927 
C 1.715523 0.996331 1.917571 0.508546 1.917571 0 
C 1.917571 -0.508546 1.715523 -0.996331 1.355927 -1.355927 
C 0.996331 -1.715523 0.508546 -1.917571 0 -1.917571 
C -0.508546 -1.917571 -0.996331 -1.715523 -1.355927 -1.355927 
C -1.715523 -0.996331 -1.917571 -0.508546 -1.917571 0 
C -1.917571 0.508546 -1.715523 0.996331 -1.355927 1.355927 
C -0.996331 1.715523 -0.508546 1.917571 0 1.917571 
z
" style="stroke: #000000; stroke-width: 0.5"/>
    </defs>
    <g clip-path="url(#p31f1ad272d)">
     <use xlink:href="#m534706709d" x="50.414856" y="31.539342" style="fill: #32cd32; stroke: #000000; stroke-width: 0.5"/>
     <use xlink:href="#m534706709d" x="104.021548" y="44.896729" style="fill: #32cd32; stroke: #000000; stroke-width: 0.5"/>
    </g>
   </g>
  </g>
 </g>
 <defs>
  <clipPath id="p31f1ad272d">
   <rect x="28.034063" y="17.672" width="79.605937" height="87.204063"/>
  </clipPath>
 </defs>
</svg>
