<?xml version="1.0" encoding="utf-8" standalone="no"?>
<!DOCTYPE svg PUBLIC "-//W3C//DTD SVG 1.1//EN"
  "http://www.w3.org/Graphics/SVG/1.1/DTD/svg11.dtd">
<svg xmlns:xlink="http://www.w3.org/1999/xlink" width="85.811111pt" height="127.44pt" viewBox="0 0 85.811111 127.44" xmlns="http://www.w3.org/2000/svg" version="1.1">
 <metadata>
  <rdf:RDF xmlns:dc="http://purl.org/dc/elements/1.1/" xmlns:cc="http://creativecommons.org/ns#" xmlns:rdf="http://www.w3.org/1999/02/22-rdf-syntax-ns#">
   <cc:Work>
    <dc:type rdf:resource="http://purl.org/dc/dcmitype/StillImage"/>
    <dc:date>2025-08-28T21:47:40.244749</dc:date>
    <dc:format>image/svg+xml</dc:format>
    <dc:creator>
     <cc:Agent>
      <dc:title>Matplotlib v3.7.0, https://matplotlib.org/</dc:title>
     </cc:Agent>
    </dc:creator>
   </cc:Work>
  </rdf:RDF>
 </metadata>
 <defs>
  <style type="text/css">*{stroke-linejoin: round; stroke-linecap: butt}</style>
 </defs>
 <g id="figure_1">
  <g id="patch_1">
   <path d="M 0 127.44 
L 85.811111 127.44 
L 85.811111 0 
L 0 0 
z
" style="fill: #ffffff"/>
  </g>
  <g id="axes_1">
   <g id="patch_2">
    <path d="M 28.034063 97.676062 
L 74.312535 97.676062 
L 74.312535 17.672 
L 28.034063 17.672 
z
" style="fill: #ffffff"/>
   </g>
   <g id="line2d_1"/>
   <g id="line2d_2">
    <path d="M 30.137629 36.472955 
L 30.137629 34.072833 
" clip-path="url(#p24238fb08f)" style="fill: none; stroke: #000000; stroke-width: 1.25; stroke-linecap: square"/>
   </g>
   <g id="line2d_3">
    <path d="M 61.301584 41.673219 
L 61.301584 37.272995 
" clip-path="url(#p24238fb08f)" style="fill: none; stroke: #000000; stroke-width: 1.25; stroke-linecap: square"/>
   </g>
   <g id="PathCollection_1">
    <defs>
     <path id="mf4dc59a83b" d="M 0 1.917571 
C 0.508546 1.917571 0.996331 1.715523 1.355927 1.355927 
C 1.715523 0.996331 1.917571 0.508546 1.917571 0 
C 1.917571 -0.508546 1.715523 -0.996331 1.355927 -1.355927 
C 0.996331 -1.715523 0.508546 -1.917571 0 -1.917571 
C -0.508546 -1.917571 -0.996331 -1.715523 -1.355927 -1.355927 
C -1.715523 -0.996331 -1.917571 -0.508546 -1.917571 0 
C -1.917571 0.508546 -1.715523 0.996331 -1.355927 1.355927 
C -0.996331 1.715523 -0.508546 1.917571 0 1.917571 
z
" style="stroke: #000000; stroke-width: 0.5"/>
    </defs>
    <g clip-path="url(#p24238fb08f)">
     <use xlink:href="#mf4dc59a83b" x="30.137629" y="35.230092" style="stroke: #000000; stroke-width: 0.5"/>
     <use xlink:href="#mf4dc59a83b" x="61.301584" y="39.182292" style="stroke: #000000; stroke-width: 0.5"/>
    </g>
   </g>
   <g id="matplotlib.axis_1">
    <g id="xtick_1">
     <g id="line2d_4">
      <defs>
       <path id="mac4037a3ec" d="M 0 0 
L 0 3 
" style="stroke: #000000; stroke-width: 0.5"/>
      </defs>
      <g>
       <use xlink:href="#mac4037a3ec" x="35.591321" y="97.676062" style="stroke: #000000; stroke-width: 0.5"/>
      </g>
     </g>
     <g id="text_1">
      <g id="patch_3">
       <path d="M 24.068509 117.099687 
L 47.114134 117.099687 
L 47.114134 103.08575 
L 24.068509 103.08575 
z
" style="fill: #75bbfd; opacity: 0.4"/>
      </g>
      <text style="font: 6px 'Arial', 'Helvetica', sans-serif" transform="translate(25.088509 108.47075)">Early IA</text>
      <text style="font: 6px 'Arial', 'Helvetica', sans-serif" transform="translate(28.09179 114.887187)"> Error</text>
     </g>
    </g>
    <g id="xtick_2">
     <g id="line2d_5">
      <g>
       <use xlink:href="#mac4037a3ec" x="66.755276" y="97.676062" style="stroke: #000000; stroke-width: 0.5"/>
      </g>
     </g>
     <g id="text_2">
      <g id="patch_4">
       <path d="M 53.899338 117.172812 
L 79.611213 117.172812 
L 79.611213 103.08575 
L 53.899338 103.08575 
z
" style="fill: #02ab2e; opacity: 0.4"/>
      </g>
      <text style="font: 6px 'Arial', 'Helvetica', sans-serif" transform="translate(54.919338 108.543875)">Early RS</text>
      <text style="font: 6px 'Arial', 'Helvetica', sans-serif" transform="translate(59.255745 114.960312)"> Error</text>
     </g>
    </g>
    <g id="text_3">
     <text style="font: 6px 'Arial', 'Helvetica', sans-serif; text-anchor: middle" x="51.173299" y="124.4475" transform="rotate(-0 51.173299 124.4475)">Cell Ensemble</text>
    </g>
   </g>
   <g id="matplotlib.axis_2">
    <g id="ytick_1">
     <g id="line2d_6">
      <defs>
       <path id="mc5da04e654" d="M 0 0 
L -3 0 
" style="stroke: #000000; stroke-width: 0.5"/>
      </defs>
      <g>
       <use xlink:href="#mc5da04e654" x="28.034063" y="97.676063" style="stroke: #000000; stroke-width: 0.5"/>
      </g>
     </g>
     <g id="text_4">
      <text style="font: 6px 'Arial', 'Helvetica', sans-serif; text-anchor: end" x="23.034063" y="99.823406" transform="rotate(-0 23.034063 99.823406)">0.80</text>
     </g>
    </g>
    <g id="ytick_2">
     <g id="line2d_7">
      <g>
       <use xlink:href="#mc5da04e654" x="28.034063" y="81.67525" style="stroke: #000000; stroke-width: 0.5"/>
      </g>
     </g>
     <g id="text_5">
      <text style="font: 6px 'Arial', 'Helvetica', sans-serif; text-anchor: end" x="23.034063" y="83.822594" transform="rotate(-0 23.034063 83.822594)">0.85</text>
     </g>
    </g>
    <g id="ytick_3">
     <g id="line2d_8">
      <g>
       <use xlink:href="#mc5da04e654" x="28.034063" y="65.674438" style="stroke: #000000; stroke-width: 0.5"/>
      </g>
     </g>
     <g id="text_6">
      <text style="font: 6px 'Arial', 'Helvetica', sans-serif; text-anchor: end" x="23.034063" y="67.821781" transform="rotate(-0 23.034063 67.821781)">0.90</text>
     </g>
    </g>
    <g id="ytick_4">
     <g id="line2d_9">
      <g>
       <use xlink:href="#mc5da04e654" x="28.034063" y="49.673625" style="stroke: #000000; stroke-width: 0.5"/>
      </g>
     </g>
     <g id="text_7">
      <text style="font: 6px 'Arial', 'Helvetica', sans-serif; text-anchor: end" x="23.034063" y="51.820969" transform="rotate(-0 23.034063 51.820969)">0.95</text>
     </g>
    </g>
    <g id="ytick_5">
     <g id="line2d_10">
      <g>
       <use xlink:href="#mc5da04e654" x="28.034063" y="33.672813" style="stroke: #000000; stroke-width: 0.5"/>
      </g>
     </g>
     <g id="text_8">
      <text style="font: 6px 'Arial', 'Helvetica', sans-serif; text-anchor: end" x="23.034063" y="35.820156" transform="rotate(-0 23.034063 35.820156)">1.00</text>
     </g>
    </g>
    <g id="text_9">
     <text style="font: 6px 'Arial', 'Helvetica', sans-serif; text-anchor: middle" x="6.094688" y="57.674031" transform="rotate(-90 6.094688 57.674031)">Mean accuracy</text>
    </g>
   </g>
   <g id="line2d_11"/>
   <g id="line2d_12">
    <path d="M 33.773424 41.273198 
L 33.773424 36.872975 
" clip-path="url(#p24238fb08f)" style="fill: none; stroke: #ff0000; stroke-width: 1.25; stroke-linecap: square"/>
   </g>
   <g id="line2d_13">
    <path d="M 64.937379 82.875311 
L 64.937379 71.274722 
" clip-path="url(#p24238fb08f)" style="fill: none; stroke: #ff0000; stroke-width: 1.25; stroke-linecap: square"/>
   </g>
   <g id="PathCollection_2">
    <defs>
     <path id="m85dd107274" d="M 0 1.917571 
C 0.508546 1.917571 0.996331 1.715523 1.355927 1.355927 
C 1.715523 0.996331 1.917571 0.508546 1.917571 0 
C 1.917571 -0.508546 1.715523 -0.996331 1.355927 -1.355927 
C 0.996331 -1.715523 0.508546 -1.917571 0 -1.917571 
C -0.508546 -1.917571 -0.996331 -1.715523 -1.355927 -1.355927 
C -1.715523 -0.996331 -1.917571 -0.508546 -1.917571 0 
C -1.917571 0.508546 -1.715523 0.996331 -1.355927 1.355927 
C -0.996331 1.715523 -0.508546 1.917571 0 1.917571 
z
" style="stroke: #000000; stroke-width: 0.5"/>
    </defs>
    <g clip-path="url(#p24238fb08f)">
     <use xlink:href="#m85dd107274" x="33.773424" y="39.073887" style="fill: #ff0000; stroke: #000000; stroke-width: 0.5"/>
     <use xlink:href="#m85dd107274" x="64.937379" y="77.068216" style="fill: #ff0000; stroke: #000000; stroke-width: 0.5"/>
    </g>
   </g>
   <g id="line2d_14">
    <path d="M 30.137629 30.47265 
L 30.137629 30.47265 
L 33.773424 30.47265 
L 33.773424 30.47265 
" style="fill: none; stroke: #000000; stroke-width: 0.75; stroke-linecap: square"/>
   </g>
   <g id="line2d_15">
    <path d="M 33.773424 25.383583 
L 33.773424 25.383583 
L 37.409219 25.383583 
L 37.409219 25.383583 
" style="fill: none; stroke: #000000; stroke-width: 0.75; stroke-linecap: square"/>
   </g>
   <g id="line2d_16">
    <path d="M 33.773424 20.294515 
L 33.773424 20.294515 
L 41.045014 20.294515 
L 41.045014 20.294515 
" style="fill: none; stroke: #000000; stroke-width: 0.75; stroke-linecap: square"/>
   </g>
   <g id="line2d_17">
    <path d="M 61.301584 34.072833 
L 61.301584 34.072833 
L 64.937379 34.072833 
L 64.937379 34.072833 
" style="fill: none; stroke: #000000; stroke-width: 0.75; stroke-linecap: square"/>
   </g>
   <g id="line2d_18">
    <path d="M 64.937379 28.983766 
L 64.937379 28.983766 
L 68.573173 28.983766 
L 68.573173 28.983766 
" style="fill: none; stroke: #000000; stroke-width: 0.75; stroke-linecap: square"/>
   </g>
   <g id="line2d_19">
    <path d="M 64.937379 23.894698 
L 64.937379 23.894698 
L 72.208968 23.894698 
L 72.208968 23.894698 
" style="fill: none; stroke: #000000; stroke-width: 0.75; stroke-linecap: square"/>
   </g>
   <g id="patch_5">
    <path d="M 28.034063 97.676063 
L 28.034063 17.672 
" style="fill: none; stroke: #000000; stroke-width: 0.5; stroke-linejoin: miter; stroke-linecap: square"/>
   </g>
   <g id="patch_6">
    <path d="M 28.034063 97.676062 
L 74.312535 97.676062 
" style="fill: none; stroke: #000000; stroke-width: 0.5; stroke-linejoin: miter; stroke-linecap: square"/>
   </g>
   <g id="line2d_20"/>
   <g id="line2d_21">
    <path d="M 37.409219 37.272995 
L 37.409219 34.472853 
" clip-path="url(#p24238fb08f)" style="fill: none; stroke: #1e90ff; stroke-width: 1.25; stroke-linecap: square"/>
   </g>
   <g id="line2d_22">
    <path d="M 68.573173 44.073341 
L 68.573173 39.273097 
" clip-path="url(#p24238fb08f)" style="fill: none; stroke: #1e90ff; stroke-width: 1.25; stroke-linecap: square"/>
   </g>
   <g id="PathCollection_3">
    <defs>
     <path id="m652673b6de" d="M 0 1.917571 
C 0.508546 1.917571 0.996331 1.715523 1.355927 1.355927 
C 1.715523 0.996331 1.917571 0.508546 1.917571 0 
C 1.917571 -0.508546 1.715523 -0.996331 1.355927 -1.355927 
C 0.996331 -1.715523 0.508546 -1.917571 0 -1.917571 
C -0.508546 -1.917571 -0.996331 -1.715523 -1.355927 -1.355927 
C -1.715523 -0.996331 -1.917571 -0.508546 -1.917571 0 
C -1.917571 0.508546 -1.715523 0.996331 -1.355927 1.355927 
C -0.996331 1.715523 -0.508546 1.917571 0 1.917571 
z
" style="stroke: #000000; stroke-width: 0.5"/>
    </defs>
    <g clip-path="url(#p24238fb08f)">
     <use xlink:href="#m652673b6de" x="37.409219" y="35.962929" style="fill: #1e90ff; stroke: #000000; stroke-width: 0.5"/>
     <use xlink:href="#m652673b6de" x="68.573173" y="41.70682" style="fill: #1e90ff; stroke: #000000; stroke-width: 0.5"/>
    </g>
   </g>
   <g id="text_10">
    <g id="patch_7">
     <path d="M 26.884902 34.525734 
L 37.026152 34.525734 
L 37.026152 26.409484 
L 26.884902 26.409484 
L 26.884902 34.525734 
z
" style="fill: none"/>
    </g>
    <text style="font: 8px 'Arial', 'Helvetica', sans-serif; text-anchor: middle" x="31.955527" y="32.535734" transform="rotate(-0 31.955527 32.535734)">***</text>
   </g>
   <g id="text_11">
    <g id="patch_8">
     <path d="M 30.520696 29.436667 
L 40.661946 29.436667 
L 40.661946 21.320417 
L 30.520696 21.320417 
L 30.520696 29.436667 
z
" style="fill: none"/>
    </g>
    <text style="font: 8px 'Arial', 'Helvetica', sans-serif; text-anchor: middle" x="35.591321" y="27.446667" transform="rotate(-0 35.591321 27.446667)">***</text>
   </g>
   <g id="text_12">
    <g id="patch_9">
     <path d="M 32.338594 24.3476 
L 42.479844 24.3476 
L 42.479844 16.23135 
L 32.338594 16.23135 
L 32.338594 24.3476 
z
" style="fill: none"/>
    </g>
    <text style="font: 8px 'Arial', 'Helvetica', sans-serif; text-anchor: middle" x="37.409219" y="22.3576" transform="rotate(-0 37.409219 22.3576)">***</text>
   </g>
   <g id="text_13">
    <g id="patch_10">
     <path d="M 58.048856 38.125917 
L 68.190106 38.125917 
L 68.190106 30.009667 
L 58.048856 30.009667 
L 58.048856 38.125917 
z
" style="fill: none"/>
    </g>
    <text style="font: 8px 'Arial', 'Helvetica', sans-serif; text-anchor: middle" x="63.119481" y="36.135917" transform="rotate(-0 63.119481 36.135917)">***</text>
   </g>
   <g id="text_14">
    <g id="patch_11">
     <path d="M 61.684651 33.03685 
L 71.825901 33.03685 
L 71.825901 24.9206 
L 61.684651 24.9206 
L 61.684651 33.03685 
z
" style="fill: none"/>
    </g>
    <text style="font: 8px 'Arial', 'Helvetica', sans-serif; text-anchor: middle" x="66.755276" y="31.04685" transform="rotate(-0 66.755276 31.04685)">***</text>
   </g>
   <g id="text_15">
    <g id="patch_12">
     <path d="M 63.502548 27.947783 
L 73.643798 27.947783 
L 73.643798 19.831533 
L 63.502548 19.831533 
L 63.502548 27.947783 
z
" style="fill: none"/>
    </g>
    <text style="font: 8px 'Arial', 'Helvetica', sans-serif; text-anchor: middle" x="68.573173" y="25.957783" transform="rotate(-0 68.573173 25.957783)">***</text>
   </g>
   <g id="text_16">
    <text style="font: 6px 'Arial', 'Helvetica', sans-serif" transform="translate(18.335486 6.167813)">Classify Error activity as:</text>
    <text style="font: 6px 'Arial', 'Helvetica', sans-serif" transform="translate(23.499236 12.672)"> Early IA vs Early RS</text>
   </g>
   <g id="line2d_23"/>
   <g id="line2d_24">
    <path d="M 41.045014 34.472853 
L 41.045014 33.672813 
" clip-path="url(#p24238fb08f)" style="fill: none; stroke: #32cd32; stroke-width: 1.25; stroke-linecap: square"/>
   </g>
   <g id="line2d_25">
    <path d="M 72.208968 54.073848 
L 72.208968 46.473463 
" clip-path="url(#p24238fb08f)" style="fill: none; stroke: #32cd32; stroke-width: 1.25; stroke-linecap: square"/>
   </g>
   <g id="PathCollection_4">
    <defs>
     <path id="m9f6b3bc76d" d="M 0 1.917571 
C 0.508546 1.917571 0.996331 1.715523 1.355927 1.355927 
C 1.715523 0.996331 1.917571 0.508546 1.917571 0 
C 1.917571 -0.508546 1.715523 -0.996331 1.355927 -1.355927 
C 0.996331 -1.715523 0.508546 -1.917571 0 -1.917571 
C -0.508546 -1.917571 -0.996331 -1.715523 -1.355927 -1.355927 
C -1.715523 -0.996331 -1.917571 -0.508546 -1.917571 0 
C -1.917571 0.508546 -1.715523 0.996331 -1.355927 1.355927 
C -0.996331 1.715523 -0.508546 1.917571 0 1.917571 
z
" style="stroke: #000000; stroke-width: 0.5"/>
    </defs>
    <g clip-path="url(#p24238fb08f)">
     <use xlink:href="#m9f6b3bc76d" x="41.045014" y="34.085633" style="fill: #32cd32; stroke: #000000; stroke-width: 0.5"/>
     <use xlink:href="#m9f6b3bc76d" x="72.208968" y="50.256855" style="fill: #32cd32; stroke: #000000; stroke-width: 0.5"/>
    </g>
   </g>
  </g>
 </g>
 <defs>
  <clipPath id="p24238fb08f">
   <rect x="28.034063" y="17.672" width="46.278472" height="80.004062"/>
  </clipPath>
 </defs>
</svg>
