<?xml version="1.0" encoding="utf-8" standalone="no"?>
<!DOCTYPE svg PUBLIC "-//W3C//DTD SVG 1.1//EN"
  "http://www.w3.org/Graphics/SVG/1.1/DTD/svg11.dtd">
<svg xmlns:xlink="http://www.w3.org/1999/xlink" width="136.285079pt" height="123.59952pt" viewBox="0 0 136.285079 123.59952" xmlns="http://www.w3.org/2000/svg" version="1.1">
 <metadata>
  <rdf:RDF xmlns:dc="http://purl.org/dc/elements/1.1/" xmlns:cc="http://creativecommons.org/ns#" xmlns:rdf="http://www.w3.org/1999/02/22-rdf-syntax-ns#">
   <cc:Work>
    <dc:type rdf:resource="http://purl.org/dc/dcmitype/StillImage"/>
    <dc:date>2025-08-28T21:48:03.801122</dc:date>
    <dc:format>image/svg+xml</dc:format>
    <dc:creator>
     <cc:Agent>
      <dc:title>Matplotlib v3.7.0, https://matplotlib.org/</dc:title>
     </cc:Agent>
    </dc:creator>
   </cc:Work>
  </rdf:RDF>
 </metadata>
 <defs>
  <style type="text/css">*{stroke-linejoin: round; stroke-linecap: butt}</style>
 </defs>
 <g id="figure_1">
  <g id="patch_1">
   <path d="M 0 123.59952 
L 136.285079 123.59952 
L 136.285079 0 
L 0 0 
z
" style="fill: #ffffff"/>
  </g>
  <g id="axes_1">
   <g id="patch_2">
    <path d="M 28.034063 93.24482 
L 121.579221 93.24482 
L 121.579221 17.672 
L 28.034063 17.672 
z
" style="fill: #ffffff"/>
   </g>
   <g id="line2d_1">
    <path d="M 35.049949 31.230885 
L 50.640809 32.473059 
L 66.231669 27.38828 
L 81.822529 23.342725 
L 97.413388 24.971055 
L 113.004248 27.905523 
" clip-path="url(#p75dcf406ee)" style="fill: none; stroke: #000000; stroke-width: 1.53; stroke-linecap: square"/>
   </g>
   <g id="line2d_2">
    <path d="M 35.049949 35.321452 
L 35.049949 27.424605 
" clip-path="url(#p75dcf406ee)" style="fill: none; stroke: #000000; stroke-width: 1.25; stroke-linecap: square"/>
   </g>
   <g id="line2d_3">
    <path d="M 50.640809 36.900821 
L 50.640809 28.21429 
" clip-path="url(#p75dcf406ee)" style="fill: none; stroke: #000000; stroke-width: 1.25; stroke-linecap: square"/>
   </g>
   <g id="line2d_4">
    <path d="M 66.231669 30.583344 
L 66.231669 24.265867 
" clip-path="url(#p75dcf406ee)" style="fill: none; stroke: #000000; stroke-width: 1.25; stroke-linecap: square"/>
   </g>
   <g id="line2d_5">
    <path d="M 81.822529 25.055551 
L 81.822529 21.896813 
" clip-path="url(#p75dcf406ee)" style="fill: none; stroke: #000000; stroke-width: 1.25; stroke-linecap: square"/>
   </g>
   <g id="line2d_6">
    <path d="M 97.413388 27.424605 
L 97.413388 22.686497 
" clip-path="url(#p75dcf406ee)" style="fill: none; stroke: #000000; stroke-width: 1.25; stroke-linecap: square"/>
   </g>
   <g id="line2d_7">
    <path d="M 113.004248 31.373028 
L 113.004248 25.055551 
" clip-path="url(#p75dcf406ee)" style="fill: none; stroke: #000000; stroke-width: 1.25; stroke-linecap: square"/>
   </g>
   <g id="PathCollection_1">
    <defs>
     <path id="mbe6b0c51e0" d="M 0 1.917571 
C 0.508546 1.917571 0.996331 1.715523 1.355927 1.355927 
C 1.715523 0.996331 1.917571 0.508546 1.917571 0 
C 1.917571 -0.508546 1.715523 -0.996331 1.355927 -1.355927 
C 0.996331 -1.715523 0.508546 -1.917571 0 -1.917571 
C -0.508546 -1.917571 -0.996331 -1.715523 -1.355927 -1.355927 
C -1.715523 -0.996331 -1.917571 -0.508546 -1.917571 0 
C -1.917571 0.508546 -1.715523 0.996331 -1.355927 1.355927 
C -0.996331 1.715523 -0.508546 1.917571 0 1.917571 
z
" style="stroke: #000000; stroke-width: 0.5"/>
    </defs>
    <g clip-path="url(#p75dcf406ee)">
     <use xlink:href="#mbe6b0c51e0" x="35.049949" y="31.230885" style="stroke: #000000; stroke-width: 0.5"/>
     <use xlink:href="#mbe6b0c51e0" x="50.640809" y="32.473059" style="stroke: #000000; stroke-width: 0.5"/>
     <use xlink:href="#mbe6b0c51e0" x="66.231669" y="27.38828" style="stroke: #000000; stroke-width: 0.5"/>
     <use xlink:href="#mbe6b0c51e0" x="81.822529" y="23.342725" style="stroke: #000000; stroke-width: 0.5"/>
     <use xlink:href="#mbe6b0c51e0" x="97.413388" y="24.971055" style="stroke: #000000; stroke-width: 0.5"/>
     <use xlink:href="#mbe6b0c51e0" x="113.004248" y="27.905523" style="stroke: #000000; stroke-width: 0.5"/>
    </g>
   </g>
   <g id="matplotlib.axis_1">
    <g id="xtick_1">
     <g id="line2d_8">
      <defs>
       <path id="mc01c6e9a0b" d="M 0 0 
L 0 3 
" style="stroke: #000000; stroke-width: 0.5"/>
      </defs>
      <g>
       <use xlink:href="#mc01c6e9a0b" x="35.829492" y="93.24482" style="stroke: #000000; stroke-width: 0.5"/>
      </g>
     </g>
     <g id="text_1">
      <text style="font: 6px 'Arial', 'Helvetica', sans-serif" transform="translate(31.985335 108.798503) rotate(-30)">-3-0</text>
     </g>
    </g>
    <g id="xtick_2">
     <g id="line2d_9">
      <g>
       <use xlink:href="#mc01c6e9a0b" x="51.420352" y="93.24482" style="stroke: #000000; stroke-width: 0.5"/>
      </g>
     </g>
     <g id="text_2">
      <text style="font: 6px 'Arial', 'Helvetica', sans-serif" transform="translate(48.441273 107.799597) rotate(-30)">0-3</text>
     </g>
    </g>
    <g id="xtick_3">
     <g id="line2d_10">
      <g>
       <use xlink:href="#mc01c6e9a0b" x="67.011212" y="93.24482" style="stroke: #000000; stroke-width: 0.5"/>
      </g>
     </g>
     <g id="text_3">
      <text style="font: 6px 'Arial', 'Helvetica', sans-serif" transform="translate(64.032133 107.799597) rotate(-30)">3-6</text>
     </g>
    </g>
    <g id="xtick_4">
     <g id="line2d_11">
      <g>
       <use xlink:href="#mc01c6e9a0b" x="82.602072" y="93.24482" style="stroke: #000000; stroke-width: 0.5"/>
      </g>
     </g>
     <g id="text_4">
      <text style="font: 6px 'Arial', 'Helvetica', sans-serif" transform="translate(79.622992 107.799597) rotate(-30)">6-9</text>
     </g>
    </g>
    <g id="xtick_5">
     <g id="line2d_12">
      <g>
       <use xlink:href="#mc01c6e9a0b" x="98.192931" y="93.24482" style="stroke: #000000; stroke-width: 0.5"/>
      </g>
     </g>
     <g id="text_5">
      <text style="font: 6px 'Arial', 'Helvetica', sans-serif" transform="translate(93.769078 109.467878) rotate(-30)">9-12</text>
     </g>
    </g>
    <g id="xtick_6">
     <g id="line2d_13">
      <g>
       <use xlink:href="#mc01c6e9a0b" x="113.783791" y="93.24482" style="stroke: #000000; stroke-width: 0.5"/>
      </g>
     </g>
     <g id="text_6">
      <text style="font: 6px 'Arial', 'Helvetica', sans-serif" transform="translate(107.915164 111.13616) rotate(-30)">12-15</text>
     </g>
    </g>
    <g id="text_7">
     <text style="font: 6px 'Arial', 'Helvetica', sans-serif; text-anchor: middle" x="74.806642" y="120.536708" transform="rotate(-0 74.806642 120.536708)">Decoded time window (s)</text>
    </g>
   </g>
   <g id="matplotlib.axis_2">
    <g id="ytick_1">
     <g id="line2d_14">
      <defs>
       <path id="m12abdd434f" d="M 0 0 
L -3 0 
" style="stroke: #000000; stroke-width: 0.5"/>
      </defs>
      <g>
       <use xlink:href="#m12abdd434f" x="28.034063" y="84.281899" style="stroke: #000000; stroke-width: 0.5"/>
      </g>
     </g>
     <g id="text_8">
      <text style="font: 6px 'Arial', 'Helvetica', sans-serif; text-anchor: end" x="23.034063" y="86.429243" transform="rotate(-0 23.034063 86.429243)">0.90</text>
     </g>
    </g>
    <g id="ytick_2">
     <g id="line2d_15">
      <g>
       <use xlink:href="#m12abdd434f" x="28.034063" y="71.646945" style="stroke: #000000; stroke-width: 0.5"/>
      </g>
     </g>
     <g id="text_9">
      <text style="font: 6px 'Arial', 'Helvetica', sans-serif; text-anchor: end" x="23.034063" y="73.794289" transform="rotate(-0 23.034063 73.794289)">0.92</text>
     </g>
    </g>
    <g id="ytick_3">
     <g id="line2d_16">
      <g>
       <use xlink:href="#m12abdd434f" x="28.034063" y="59.011991" style="stroke: #000000; stroke-width: 0.5"/>
      </g>
     </g>
     <g id="text_10">
      <text style="font: 6px 'Arial', 'Helvetica', sans-serif; text-anchor: end" x="23.034063" y="61.159335" transform="rotate(-0 23.034063 61.159335)">0.94</text>
     </g>
    </g>
    <g id="ytick_4">
     <g id="line2d_17">
      <g>
       <use xlink:href="#m12abdd434f" x="28.034063" y="46.377037" style="stroke: #000000; stroke-width: 0.5"/>
      </g>
     </g>
     <g id="text_11">
      <text style="font: 6px 'Arial', 'Helvetica', sans-serif; text-anchor: end" x="23.034063" y="48.52438" transform="rotate(-0 23.034063 48.52438)">0.96</text>
     </g>
    </g>
    <g id="ytick_5">
     <g id="line2d_18">
      <g>
       <use xlink:href="#m12abdd434f" x="28.034063" y="33.742082" style="stroke: #000000; stroke-width: 0.5"/>
      </g>
     </g>
     <g id="text_12">
      <text style="font: 6px 'Arial', 'Helvetica', sans-serif; text-anchor: end" x="23.034063" y="35.889426" transform="rotate(-0 23.034063 35.889426)">0.98</text>
     </g>
    </g>
    <g id="ytick_6">
     <g id="line2d_19">
      <g>
       <use xlink:href="#m12abdd434f" x="28.034063" y="21.107128" style="stroke: #000000; stroke-width: 0.5"/>
      </g>
     </g>
     <g id="text_13">
      <text style="font: 6px 'Arial', 'Helvetica', sans-serif; text-anchor: end" x="23.034063" y="23.254472" transform="rotate(-0 23.034063 23.254472)">1.00</text>
     </g>
    </g>
    <g id="text_14">
     <text style="font: 6px 'Arial', 'Helvetica', sans-serif; text-anchor: middle" x="6.094688" y="55.45841" transform="rotate(-90 6.094688 55.45841)">Decoding Accuracy</text>
    </g>
   </g>
   <g id="line2d_20">
    <path d="M 35.569645 56.181761 
L 51.160504 36.445963 
L 66.751364 80.435345 
L 82.342224 58.06358 
L 97.933084 47.763723 
L 113.523944 51.875611 
" clip-path="url(#p75dcf406ee)" style="fill: none; stroke: #ff0000; stroke-width: 1.53; stroke-linecap: square"/>
   </g>
   <g id="line2d_21">
    <path d="M 35.569645 63.750099 
L 35.569645 47.956406 
" clip-path="url(#p75dcf406ee)" style="fill: none; stroke: #ff0000; stroke-width: 1.25; stroke-linecap: square"/>
   </g>
   <g id="line2d_22">
    <path d="M 51.160504 41.638929 
L 51.160504 31.373028 
" clip-path="url(#p75dcf406ee)" style="fill: none; stroke: #ff0000; stroke-width: 1.25; stroke-linecap: square"/>
   </g>
   <g id="line2d_23">
    <path d="M 66.751364 89.809692 
L 66.751364 70.85726 
" clip-path="url(#p75dcf406ee)" style="fill: none; stroke: #ff0000; stroke-width: 1.25; stroke-linecap: square"/>
   </g>
   <g id="line2d_24">
    <path d="M 82.342224 66.119153 
L 82.342224 50.32546 
" clip-path="url(#p75dcf406ee)" style="fill: none; stroke: #ff0000; stroke-width: 1.25; stroke-linecap: square"/>
   </g>
   <g id="line2d_25">
    <path d="M 97.933084 54.273883 
L 97.933084 40.849244 
" clip-path="url(#p75dcf406ee)" style="fill: none; stroke: #ff0000; stroke-width: 1.25; stroke-linecap: square"/>
   </g>
   <g id="line2d_26">
    <path d="M 113.523944 59.011991 
L 113.523944 44.797667 
" clip-path="url(#p75dcf406ee)" style="fill: none; stroke: #ff0000; stroke-width: 1.25; stroke-linecap: square"/>
   </g>
   <g id="PathCollection_2">
    <defs>
     <path id="m3a7f0462a0" d="M 0 1.917571 
C 0.508546 1.917571 0.996331 1.715523 1.355927 1.355927 
C 1.715523 0.996331 1.917571 0.508546 1.917571 0 
C 1.917571 -0.508546 1.715523 -0.996331 1.355927 -1.355927 
C 0.996331 -1.715523 0.508546 -1.917571 0 -1.917571 
C -0.508546 -1.917571 -0.996331 -1.715523 -1.355927 -1.355927 
C -1.715523 -0.996331 -1.917571 -0.508546 -1.917571 0 
C -1.917571 0.508546 -1.715523 0.996331 -1.355927 1.355927 
C -0.996331 1.715523 -0.508546 1.917571 0 1.917571 
z
" style="stroke: #000000; stroke-width: 0.5"/>
    </defs>
    <g clip-path="url(#p75dcf406ee)">
     <use xlink:href="#m3a7f0462a0" x="35.569645" y="56.181761" style="fill: #ff0000; stroke: #000000; stroke-width: 0.5"/>
     <use xlink:href="#m3a7f0462a0" x="51.160504" y="36.445963" style="fill: #ff0000; stroke: #000000; stroke-width: 0.5"/>
     <use xlink:href="#m3a7f0462a0" x="66.751364" y="80.435345" style="fill: #ff0000; stroke: #000000; stroke-width: 0.5"/>
     <use xlink:href="#m3a7f0462a0" x="82.342224" y="58.06358" style="fill: #ff0000; stroke: #000000; stroke-width: 0.5"/>
     <use xlink:href="#m3a7f0462a0" x="97.933084" y="47.763723" style="fill: #ff0000; stroke: #000000; stroke-width: 0.5"/>
     <use xlink:href="#m3a7f0462a0" x="113.523944" y="51.875611" style="fill: #ff0000; stroke: #000000; stroke-width: 0.5"/>
    </g>
   </g>
   <g id="patch_3">
    <path d="M 28.034063 93.24482 
L 28.034063 17.672 
" style="fill: none; stroke: #000000; stroke-width: 0.5; stroke-linejoin: miter; stroke-linecap: square"/>
   </g>
   <g id="patch_4">
    <path d="M 28.034062 93.24482 
L 121.579221 93.24482 
" style="fill: none; stroke: #000000; stroke-width: 0.5; stroke-linejoin: miter; stroke-linecap: square"/>
   </g>
   <g id="line2d_27">
    <path d="M 36.08934 25.578323 
L 51.6802 23.00553 
L 67.27106 23.803901 
L 82.861919 28.102155 
L 98.452779 24.668606 
L 114.043639 28.606763 
" clip-path="url(#p75dcf406ee)" style="fill: none; stroke: #1e90ff; stroke-width: 1.53; stroke-linecap: square"/>
   </g>
   <g id="line2d_28">
    <path d="M 36.08934 28.21429 
L 36.08934 22.686497 
" clip-path="url(#p75dcf406ee)" style="fill: none; stroke: #1e90ff; stroke-width: 1.25; stroke-linecap: square"/>
   </g>
   <g id="line2d_29">
    <path d="M 51.6802 25.055551 
L 51.6802 21.107128 
" clip-path="url(#p75dcf406ee)" style="fill: none; stroke: #1e90ff; stroke-width: 1.25; stroke-linecap: square"/>
   </g>
   <g id="line2d_30">
    <path d="M 67.27106 25.845236 
L 67.27106 21.896813 
" clip-path="url(#p75dcf406ee)" style="fill: none; stroke: #1e90ff; stroke-width: 1.25; stroke-linecap: square"/>
   </g>
   <g id="line2d_31">
    <path d="M 82.861919 31.373028 
L 82.861919 25.055551 
" clip-path="url(#p75dcf406ee)" style="fill: none; stroke: #1e90ff; stroke-width: 1.25; stroke-linecap: square"/>
   </g>
   <g id="line2d_32">
    <path d="M 98.452779 27.424605 
L 98.452779 21.896813 
" clip-path="url(#p75dcf406ee)" style="fill: none; stroke: #1e90ff; stroke-width: 1.25; stroke-linecap: square"/>
   </g>
   <g id="line2d_33">
    <path d="M 114.043639 32.162713 
L 114.043639 25.055551 
" clip-path="url(#p75dcf406ee)" style="fill: none; stroke: #1e90ff; stroke-width: 1.25; stroke-linecap: square"/>
   </g>
   <g id="PathCollection_3">
    <defs>
     <path id="m049ce6a2ca" d="M 0 1.917571 
C 0.508546 1.917571 0.996331 1.715523 1.355927 1.355927 
C 1.715523 0.996331 1.917571 0.508546 1.917571 0 
C 1.917571 -0.508546 1.715523 -0.996331 1.355927 -1.355927 
C 0.996331 -1.715523 0.508546 -1.917571 0 -1.917571 
C -0.508546 -1.917571 -0.996331 -1.715523 -1.355927 -1.355927 
C -1.715523 -0.996331 -1.917571 -0.508546 -1.917571 0 
C -1.917571 0.508546 -1.715523 0.996331 -1.355927 1.355927 
C -0.996331 1.715523 -0.508546 1.917571 0 1.917571 
z
" style="stroke: #000000; stroke-width: 0.5"/>
    </defs>
    <g clip-path="url(#p75dcf406ee)">
     <use xlink:href="#m049ce6a2ca" x="36.08934" y="25.578323" style="fill: #1e90ff; stroke: #000000; stroke-width: 0.5"/>
     <use xlink:href="#m049ce6a2ca" x="51.6802" y="23.00553" style="fill: #1e90ff; stroke: #000000; stroke-width: 0.5"/>
     <use xlink:href="#m049ce6a2ca" x="67.27106" y="23.803901" style="fill: #1e90ff; stroke: #000000; stroke-width: 0.5"/>
     <use xlink:href="#m049ce6a2ca" x="82.861919" y="28.102155" style="fill: #1e90ff; stroke: #000000; stroke-width: 0.5"/>
     <use xlink:href="#m049ce6a2ca" x="98.452779" y="24.668606" style="fill: #1e90ff; stroke: #000000; stroke-width: 0.5"/>
     <use xlink:href="#m049ce6a2ca" x="114.043639" y="28.606763" style="fill: #1e90ff; stroke: #000000; stroke-width: 0.5"/>
    </g>
   </g>
   <g id="text_15">
    <text style="font: 6px 'Arial', 'Helvetica', sans-serif" transform="translate(40.797423 6.167813)">Early RS Error ensemble:</text>
    <text style="font: 6px 'Arial', 'Helvetica', sans-serif" transform="translate(15.128204 12.672)">Classify Error activity as Early IA vs Early RS</text>
   </g>
   <g id="line2d_34">
    <path d="M 36.609035 25.41012 
L 52.199895 26.428023 
L 67.790755 27.607812 
L 83.381615 28.594918 
L 98.972474 24.484609 
L 114.563334 26.10978 
" clip-path="url(#p75dcf406ee)" style="fill: none; stroke: #32cd32; stroke-width: 1.53; stroke-linecap: square"/>
   </g>
   <g id="line2d_35">
    <path d="M 36.609035 28.21429 
L 36.609035 22.686497 
" clip-path="url(#p75dcf406ee)" style="fill: none; stroke: #32cd32; stroke-width: 1.25; stroke-linecap: square"/>
   </g>
   <g id="line2d_36">
    <path d="M 52.199895 29.793659 
L 52.199895 23.476182 
" clip-path="url(#p75dcf406ee)" style="fill: none; stroke: #32cd32; stroke-width: 1.25; stroke-linecap: square"/>
   </g>
   <g id="line2d_37">
    <path d="M 67.790755 30.583344 
L 67.790755 24.265867 
" clip-path="url(#p75dcf406ee)" style="fill: none; stroke: #32cd32; stroke-width: 1.25; stroke-linecap: square"/>
   </g>
   <g id="line2d_38">
    <path d="M 83.381615 32.162713 
L 83.381615 25.055551 
" clip-path="url(#p75dcf406ee)" style="fill: none; stroke: #32cd32; stroke-width: 1.25; stroke-linecap: square"/>
   </g>
   <g id="line2d_39">
    <path d="M 98.972474 26.634921 
L 98.972474 22.686497 
" clip-path="url(#p75dcf406ee)" style="fill: none; stroke: #32cd32; stroke-width: 1.25; stroke-linecap: square"/>
   </g>
   <g id="line2d_40">
    <path d="M 114.563334 29.003975 
L 114.563334 23.476182 
" clip-path="url(#p75dcf406ee)" style="fill: none; stroke: #32cd32; stroke-width: 1.25; stroke-linecap: square"/>
   </g>
   <g id="PathCollection_4">
    <defs>
     <path id="m3d125d3796" d="M 0 1.917571 
C 0.508546 1.917571 0.996331 1.715523 1.355927 1.355927 
C 1.715523 0.996331 1.917571 0.508546 1.917571 0 
C 1.917571 -0.508546 1.715523 -0.996331 1.355927 -1.355927 
C 0.996331 -1.715523 0.508546 -1.917571 0 -1.917571 
C -0.508546 -1.917571 -0.996331 -1.715523 -1.355927 -1.355927 
C -1.715523 -0.996331 -1.917571 -0.508546 -1.917571 0 
C -1.917571 0.508546 -1.715523 0.996331 -1.355927 1.355927 
C -0.996331 1.715523 -0.508546 1.917571 0 1.917571 
z
" style="stroke: #000000; stroke-width: 0.5"/>
    </defs>
    <g clip-path="url(#p75dcf406ee)">
     <use xlink:href="#m3d125d3796" x="36.609035" y="25.41012" style="fill: #32cd32; stroke: #000000; stroke-width: 0.5"/>
     <use xlink:href="#m3d125d3796" x="52.199895" y="26.428023" style="fill: #32cd32; stroke: #000000; stroke-width: 0.5"/>
     <use xlink:href="#m3d125d3796" x="67.790755" y="27.607812" style="fill: #32cd32; stroke: #000000; stroke-width: 0.5"/>
     <use xlink:href="#m3d125d3796" x="83.381615" y="28.594918" style="fill: #32cd32; stroke: #000000; stroke-width: 0.5"/>
     <use xlink:href="#m3d125d3796" x="98.972474" y="24.484609" style="fill: #32cd32; stroke: #000000; stroke-width: 0.5"/>
     <use xlink:href="#m3d125d3796" x="114.563334" y="26.10978" style="fill: #32cd32; stroke: #000000; stroke-width: 0.5"/>
    </g>
   </g>
  </g>
 </g>
 <defs>
  <clipPath id="p75dcf406ee">
   <rect x="28.034063" y="17.672" width="93.545159" height="75.57282"/>
  </clipPath>
 </defs>
</svg>
