<?xml version="1.0" encoding="utf-8" standalone="no"?>
<!DOCTYPE svg PUBLIC "-//W3C//DTD SVG 1.1//EN"
  "http://www.w3.org/Graphics/SVG/1.1/DTD/svg11.dtd">
<svg xmlns:xlink="http://www.w3.org/1999/xlink" width="159.59868pt" height="98.39952pt" viewBox="0 0 159.59868 98.39952" xmlns="http://www.w3.org/2000/svg" version="1.1">
 <metadata>
  <rdf:RDF xmlns:dc="http://purl.org/dc/elements/1.1/" xmlns:cc="http://creativecommons.org/ns#" xmlns:rdf="http://www.w3.org/1999/02/22-rdf-syntax-ns#">
   <cc:Work>
    <dc:type rdf:resource="http://purl.org/dc/dcmitype/StillImage"/>
    <dc:date>2025-08-28T22:01:40.206158</dc:date>
    <dc:format>image/svg+xml</dc:format>
    <dc:creator>
     <cc:Agent>
      <dc:title>Matplotlib v3.7.0, https://matplotlib.org/</dc:title>
     </cc:Agent>
    </dc:creator>
   </cc:Work>
  </rdf:RDF>
 </metadata>
 <defs>
  <style type="text/css">*{stroke-linejoin: round; stroke-linecap: butt}</style>
 </defs>
 <g id="figure_1">
  <g id="patch_1">
   <path d="M 0 98.39952 
L 159.59868 98.39952 
L 159.59868 0 
L 0 0 
z
" style="fill: #ffffff"/>
  </g>
  <g id="axes_1">
   <g id="patch_2">
    <path d="M 26.296875 78.178457 
L 157.405825 78.178457 
L 157.405825 11.167812 
L 26.296875 11.167812 
z
" style="fill: #ffffff"/>
   </g>
   <g id="matplotlib.axis_1">
    <g id="xtick_1">
     <g id="line2d_1">
      <defs>
       <path id="m7506676166" d="M 0 0 
L 0 3 
" style="stroke: #000000; stroke-width: 0.5"/>
      </defs>
      <g>
       <use xlink:href="#m7506676166" x="39.40777" y="78.178457" style="stroke: #000000; stroke-width: 0.5"/>
      </g>
     </g>
     <g id="text_1">
      <text style="font: 6px 'Arial', 'Helvetica', sans-serif" transform="translate(34.743708 88.973145)">WT</text>
      <text style="font: 6px 'Arial', 'Helvetica', sans-serif" transform="translate(33.23902 95.31927)">VEH</text>
     </g>
    </g>
    <g id="xtick_2">
     <g id="line2d_2">
      <g>
       <use xlink:href="#m7506676166" x="65.62956" y="78.178457" style="stroke: #000000; stroke-width: 0.5"/>
      </g>
     </g>
     <g id="text_2">
      <text style="font: 6px 'Arial', 'Helvetica', sans-serif" transform="translate(60.965498 88.973145)">WT</text>
      <text style="font: 6px 'Arial', 'Helvetica', sans-serif" transform="translate(57.79581 95.31927)">CLNZ</text>
     </g>
    </g>
    <g id="xtick_3">
     <g id="line2d_3">
      <g>
       <use xlink:href="#m7506676166" x="91.85135" y="78.178457" style="stroke: #000000; stroke-width: 0.5"/>
      </g>
     </g>
     <g id="text_3">
      <text style="font: 6px 'Arial', 'Helvetica', sans-serif" transform="translate(87.183069 88.973145)">Het</text>
      <text style="font: 6px 'Arial', 'Helvetica', sans-serif" transform="translate(85.6826 95.31927)">VEH</text>
     </g>
    </g>
    <g id="xtick_4">
     <g id="line2d_4">
      <g>
       <use xlink:href="#m7506676166" x="118.07314" y="78.178457" style="stroke: #000000; stroke-width: 0.5"/>
      </g>
     </g>
     <g id="text_4">
      <text style="font: 6px 'Arial', 'Helvetica', sans-serif" transform="translate(113.404859 88.973145)">Het</text>
      <text style="font: 6px 'Arial', 'Helvetica', sans-serif" transform="translate(110.23939 95.31927)">CLNZ</text>
     </g>
    </g>
    <g id="xtick_5">
     <g id="line2d_5">
      <g>
       <use xlink:href="#m7506676166" x="144.29493" y="78.178457" style="stroke: #000000; stroke-width: 0.5"/>
      </g>
     </g>
     <g id="text_5">
      <text style="font: 6px 'Arial', 'Helvetica', sans-serif" transform="translate(139.626649 88.973145)">Het</text>
      <text style="font: 6px 'Arial', 'Helvetica', sans-serif" transform="translate(130.79118 95.40702)">postCLNZ</text>
     </g>
    </g>
   </g>
   <g id="matplotlib.axis_2">
    <g id="ytick_1">
     <g id="line2d_6">
      <defs>
       <path id="me79c55773e" d="M 0 0 
L -3 0 
" style="stroke: #000000; stroke-width: 0.5"/>
      </defs>
      <g>
       <use xlink:href="#me79c55773e" x="26.296875" y="78.178457" style="stroke: #000000; stroke-width: 0.5"/>
      </g>
     </g>
     <g id="text_6">
      <text style="font: 6px 'Arial', 'Helvetica', sans-serif; text-anchor: end" x="21.296875" y="80.325801" transform="rotate(-0 21.296875 80.325801)">0</text>
     </g>
    </g>
    <g id="ytick_2">
     <g id="line2d_7">
      <g>
       <use xlink:href="#me79c55773e" x="26.296875" y="62.948765" style="stroke: #000000; stroke-width: 0.5"/>
      </g>
     </g>
     <g id="text_7">
      <text style="font: 6px 'Arial', 'Helvetica', sans-serif; text-anchor: end" x="21.296875" y="65.096109" transform="rotate(-0 21.296875 65.096109)">50</text>
     </g>
    </g>
    <g id="ytick_3">
     <g id="line2d_8">
      <g>
       <use xlink:href="#me79c55773e" x="26.296875" y="47.719073" style="stroke: #000000; stroke-width: 0.5"/>
      </g>
     </g>
     <g id="text_8">
      <text style="font: 6px 'Arial', 'Helvetica', sans-serif; text-anchor: end" x="21.296875" y="49.866417" transform="rotate(-0 21.296875 49.866417)">100</text>
     </g>
    </g>
    <g id="ytick_4">
     <g id="line2d_9">
      <g>
       <use xlink:href="#me79c55773e" x="26.296875" y="32.489381" style="stroke: #000000; stroke-width: 0.5"/>
      </g>
     </g>
     <g id="text_9">
      <text style="font: 6px 'Arial', 'Helvetica', sans-serif; text-anchor: end" x="21.296875" y="34.636725" transform="rotate(-0 21.296875 34.636725)">150</text>
     </g>
    </g>
    <g id="ytick_5">
     <g id="line2d_10">
      <g>
       <use xlink:href="#me79c55773e" x="26.296875" y="17.259689" style="stroke: #000000; stroke-width: 0.5"/>
      </g>
     </g>
     <g id="text_10">
      <text style="font: 6px 'Arial', 'Helvetica', sans-serif; text-anchor: end" x="21.296875" y="19.407033" transform="rotate(-0 21.296875 19.407033)">200</text>
     </g>
    </g>
    <g id="text_11">
     <text style="font: 6px 'Arial', 'Helvetica', sans-serif; text-anchor: middle" x="6.094688" y="44.673135" transform="rotate(-90 6.094688 44.673135)"># Cells</text>
    </g>
   </g>
   <g id="patch_3">
    <path d="M 26.296875 78.178457 
L 26.296875 11.167812 
" style="fill: none; stroke: #000000; stroke-width: 0.5; stroke-linejoin: miter; stroke-linecap: square"/>
   </g>
   <g id="patch_4">
    <path d="M 26.296875 78.178457 
L 157.405825 78.178457 
" style="fill: none; stroke: #000000; stroke-width: 0.5; stroke-linejoin: miter; stroke-linecap: square"/>
   </g>
   <g id="PathCollection_1">
    <defs>
     <path id="C0_0_b3c9bd4d6f" d="M 0 1.5 
C 0.397805 1.5 0.77937 1.341951 1.06066 1.06066 
C 1.341951 0.77937 1.5 0.397805 1.5 -0 
C 1.5 -0.397805 1.341951 -0.77937 1.06066 -1.06066 
C 0.77937 -1.341951 0.397805 -1.5 0 -1.5 
C -0.397805 -1.5 -0.77937 -1.341951 -1.06066 -1.06066 
C -1.341951 -0.77937 -1.5 -0.397805 -1.5 0 
C -1.5 0.397805 -1.341951 0.77937 -1.06066 1.06066 
C -0.77937 1.341951 -0.397805 1.5 0 1.5 
z
"/>
    </defs>
    <g clip-path="url(#p13cb021c95)">
     <use xlink:href="#C0_0_b3c9bd4d6f" x="39.40777" y="27.920474"/>
    </g>
    <g clip-path="url(#p13cb021c95)">
     <use xlink:href="#C0_0_b3c9bd4d6f" x="39.40777" y="14.213751"/>
    </g>
    <g clip-path="url(#p13cb021c95)">
     <use xlink:href="#C0_0_b3c9bd4d6f" x="36.323398" y="36.144507"/>
    </g>
    <g clip-path="url(#p13cb021c95)">
     <use xlink:href="#C0_0_b3c9bd4d6f" x="40.687319" y="34.012351"/>
    </g>
    <g clip-path="url(#p13cb021c95)">
     <use xlink:href="#C0_0_b3c9bd4d6f" x="39.40777" y="36.753695"/>
    </g>
    <g clip-path="url(#p13cb021c95)">
     <use xlink:href="#C0_0_b3c9bd4d6f" x="39.40777" y="62.339578"/>
    </g>
    <g clip-path="url(#p13cb021c95)">
     <use xlink:href="#C0_0_b3c9bd4d6f" x="39.40777" y="53.81095"/>
    </g>
    <g clip-path="url(#p13cb021c95)">
     <use xlink:href="#C0_0_b3c9bd4d6f" x="39.40777" y="31.271006"/>
    </g>
   </g>
   <g id="PathCollection_2">
    <defs>
     <path id="C1_0_13f784c40f" d="M 0 1.5 
C 0.397805 1.5 0.77937 1.341951 1.06066 1.06066 
C 1.341951 0.77937 1.5 0.397805 1.5 -0 
C 1.5 -0.397805 1.341951 -0.77937 1.06066 -1.06066 
C 0.77937 -1.341951 0.397805 -1.5 0 -1.5 
C -0.397805 -1.5 -0.77937 -1.341951 -1.06066 -1.06066 
C -1.341951 -0.77937 -1.5 -0.397805 -1.5 0 
C -1.5 0.397805 -1.341951 0.77937 -1.06066 1.06066 
C -0.77937 1.341951 -0.397805 1.5 0 1.5 
z
"/>
    </defs>
    <g clip-path="url(#p13cb021c95)">
     <use xlink:href="#C1_0_13f784c40f" x="62.915647" y="33.403163" style="fill: #808080"/>
    </g>
    <g clip-path="url(#p13cb021c95)">
     <use xlink:href="#C1_0_13f784c40f" x="65.62956" y="16.345908" style="fill: #808080"/>
    </g>
    <g clip-path="url(#p13cb021c95)">
     <use xlink:href="#C1_0_13f784c40f" x="65.62956" y="34.926132" style="fill: #808080"/>
    </g>
    <g clip-path="url(#p13cb021c95)">
     <use xlink:href="#C1_0_13f784c40f" x="62.495838" y="22.742378" style="fill: #808080"/>
    </g>
    <g clip-path="url(#p13cb021c95)">
     <use xlink:href="#C1_0_13f784c40f" x="65.62956" y="23.046972" style="fill: #808080"/>
    </g>
    <g clip-path="url(#p13cb021c95)">
     <use xlink:href="#C1_0_13f784c40f" x="65.62956" y="28.225068" style="fill: #808080"/>
    </g>
   </g>
   <g id="PathCollection_3">
    <defs>
     <path id="C2_0_38dba3e2a9" d="M 0 1.5 
C 0.397805 1.5 0.77937 1.341951 1.06066 1.06066 
C 1.341951 0.77937 1.5 0.397805 1.5 -0 
C 1.5 -0.397805 1.341951 -0.77937 1.06066 -1.06066 
C 0.77937 -1.341951 0.397805 -1.5 0 -1.5 
C -0.397805 -1.5 -0.77937 -1.341951 -1.06066 -1.06066 
C -1.341951 -0.77937 -1.5 -0.397805 -1.5 0 
C -1.5 0.397805 -1.341951 0.77937 -1.06066 1.06066 
C -0.77937 1.341951 -0.397805 1.5 0 1.5 
z
"/>
    </defs>
    <g clip-path="url(#p13cb021c95)">
     <use xlink:href="#C2_0_38dba3e2a9" x="91.85135" y="48.632855" style="fill: #ff0000"/>
    </g>
    <g clip-path="url(#p13cb021c95)">
     <use xlink:href="#C2_0_38dba3e2a9" x="89.635401" y="41.322603" style="fill: #ff0000"/>
    </g>
    <g clip-path="url(#p13cb021c95)">
     <use xlink:href="#C2_0_38dba3e2a9" x="91.85135" y="43.45476" style="fill: #ff0000"/>
    </g>
    <g clip-path="url(#p13cb021c95)">
     <use xlink:href="#C2_0_38dba3e2a9" x="93.130899" y="40.713415" style="fill: #ff0000"/>
    </g>
    <g clip-path="url(#p13cb021c95)">
     <use xlink:href="#C2_0_38dba3e2a9" x="91.85135" y="30.966412" style="fill: #ff0000"/>
    </g>
    <g clip-path="url(#p13cb021c95)">
     <use xlink:href="#C2_0_38dba3e2a9" x="96.215271" y="40.104227" style="fill: #ff0000"/>
    </g>
    <g clip-path="url(#p13cb021c95)">
     <use xlink:href="#C2_0_38dba3e2a9" x="91.85135" y="35.839914" style="fill: #ff0000"/>
    </g>
   </g>
   <g id="PathCollection_4">
    <defs>
     <path id="C3_0_0029924a2a" d="M 0 1.5 
C 0.397805 1.5 0.77937 1.341951 1.06066 1.06066 
C 1.341951 0.77937 1.5 0.397805 1.5 -0 
C 1.5 -0.397805 1.341951 -0.77937 1.06066 -1.06066 
C 0.77937 -1.341951 0.397805 -1.5 0 -1.5 
C -0.397805 -1.5 -0.77937 -1.341951 -1.06066 -1.06066 
C -1.341951 -0.77937 -1.5 -0.397805 -1.5 0 
C -1.5 0.397805 -1.341951 0.77937 -1.06066 1.06066 
C -0.77937 1.341951 -0.397805 1.5 0 1.5 
z
"/>
    </defs>
    <g clip-path="url(#p13cb021c95)">
     <use xlink:href="#C3_0_0029924a2a" x="115.575108" y="40.408821" style="fill: #1e90ff"/>
    </g>
    <g clip-path="url(#p13cb021c95)">
     <use xlink:href="#C3_0_0029924a2a" x="118.07314" y="45.89151" style="fill: #1e90ff"/>
    </g>
    <g clip-path="url(#p13cb021c95)">
     <use xlink:href="#C3_0_0029924a2a" x="118.07314" y="42.236384" style="fill: #1e90ff"/>
    </g>
    <g clip-path="url(#p13cb021c95)">
     <use xlink:href="#C3_0_0029924a2a" x="118.07314" y="37.058289" style="fill: #1e90ff"/>
    </g>
    <g clip-path="url(#p13cb021c95)">
     <use xlink:href="#C3_0_0029924a2a" x="118.07314" y="27.311286" style="fill: #1e90ff"/>
    </g>
    <g clip-path="url(#p13cb021c95)">
     <use xlink:href="#C3_0_0029924a2a" x="114.939418" y="45.586917" style="fill: #1e90ff"/>
    </g>
    <g clip-path="url(#p13cb021c95)">
     <use xlink:href="#C3_0_0029924a2a" x="121.07346" y="44.977729" style="fill: #1e90ff"/>
    </g>
   </g>
   <g id="PathCollection_5">
    <defs>
     <path id="C4_0_2cfd714948" d="M 0 1.5 
C 0.397805 1.5 0.77937 1.341951 1.06066 1.06066 
C 1.341951 0.77937 1.5 0.397805 1.5 -0 
C 1.5 -0.397805 1.341951 -0.77937 1.06066 -1.06066 
C 0.77937 -1.341951 0.397805 -1.5 0 -1.5 
C -0.397805 -1.5 -0.77937 -1.341951 -1.06066 -1.06066 
C -1.341951 -0.77937 -1.5 -0.397805 -1.5 0 
C -1.5 0.397805 -1.341951 0.77937 -1.06066 1.06066 
C -0.77937 1.341951 -0.397805 1.5 0 1.5 
z
"/>
    </defs>
    <g clip-path="url(#p13cb021c95)">
     <use xlink:href="#C4_0_2cfd714948" x="144.29493" y="41.018009" style="fill: #32cd32"/>
    </g>
    <g clip-path="url(#p13cb021c95)">
     <use xlink:href="#C4_0_2cfd714948" x="141.416405" y="39.799634" style="fill: #32cd32"/>
    </g>
    <g clip-path="url(#p13cb021c95)">
     <use xlink:href="#C4_0_2cfd714948" x="144.29493" y="45.586917" style="fill: #32cd32"/>
    </g>
    <g clip-path="url(#p13cb021c95)">
     <use xlink:href="#C4_0_2cfd714948" x="144.29493" y="29.138849" style="fill: #32cd32"/>
    </g>
    <g clip-path="url(#p13cb021c95)">
     <use xlink:href="#C4_0_2cfd714948" x="141.161209" y="45.282323" style="fill: #32cd32"/>
    </g>
    <g clip-path="url(#p13cb021c95)">
     <use xlink:href="#C4_0_2cfd714948" x="144.29493" y="37.362883" style="fill: #32cd32"/>
    </g>
    <g clip-path="url(#p13cb021c95)">
     <use xlink:href="#C4_0_2cfd714948" x="144.29493" y="23.65616" style="fill: #32cd32"/>
    </g>
   </g>
   <g id="text_12">
    <text style="font: 6px 'Arial', 'Helvetica', sans-serif; text-anchor: middle" x="91.85135" y="6.167812" transform="rotate(-0 91.85135 6.167812)"># of cells recorded per subject</text>
   </g>
  </g>
 </g>
 <defs>
  <clipPath id="p13cb021c95">
   <rect x="26.296875" y="11.167812" width="131.10895" height="67.010645"/>
  </clipPath>
 </defs>
</svg>
