<?xml version="1.0" encoding="utf-8" standalone="no"?>
<!DOCTYPE svg PUBLIC "-//W3C//DTD SVG 1.1//EN"
  "http://www.w3.org/Graphics/SVG/1.1/DTD/svg11.dtd">
<svg xmlns:xlink="http://www.w3.org/1999/xlink" width="116.64pt" height="134.64pt" viewBox="0 0 116.64 134.64" xmlns="http://www.w3.org/2000/svg" version="1.1">
 <metadata>
  <rdf:RDF xmlns:dc="http://purl.org/dc/elements/1.1/" xmlns:cc="http://creativecommons.org/ns#" xmlns:rdf="http://www.w3.org/1999/02/22-rdf-syntax-ns#">
   <cc:Work>
    <dc:type rdf:resource="http://purl.org/dc/dcmitype/StillImage"/>
    <dc:date>2025-08-28T21:48:14.643140</dc:date>
    <dc:format>image/svg+xml</dc:format>
    <dc:creator>
     <cc:Agent>
      <dc:title>Matplotlib v3.7.0, https://matplotlib.org/</dc:title>
     </cc:Agent>
    </dc:creator>
   </cc:Work>
  </rdf:RDF>
 </metadata>
 <defs>
  <style type="text/css">*{stroke-linejoin: round; stroke-linecap: butt}</style>
 </defs>
 <g id="figure_1">
  <g id="patch_1">
   <path d="M 0 134.64 
L 116.64 134.64 
L 116.64 0 
L 0 0 
z
" style="fill: #ffffff"/>
  </g>
  <g id="axes_1">
   <g id="patch_2">
    <path d="M 28.034063 104.876063 
L 114.84 104.876063 
L 114.84 17.672 
L 28.034063 17.672 
z
" style="fill: #ffffff"/>
   </g>
   <g id="line2d_1"/>
   <g id="line2d_2">
    <path d="M 31.979787 44.229601 
L 31.979787 41.851308 
" clip-path="url(#p4941c87781)" style="fill: none; stroke: #000000; stroke-width: 1.25; stroke-linecap: square"/>
   </g>
   <g id="line2d_3">
    <path d="M 90.434964 49.382568 
L 90.434964 45.022365 
" clip-path="url(#p4941c87781)" style="fill: none; stroke: #000000; stroke-width: 1.25; stroke-linecap: square"/>
   </g>
   <g id="PathCollection_1">
    <defs>
     <path id="md4c02bae7b" d="M 0 1.917571 
C 0.508546 1.917571 0.996331 1.715523 1.355927 1.355927 
C 1.715523 0.996331 1.917571 0.508546 1.917571 0 
C 1.917571 -0.508546 1.715523 -0.996331 1.355927 -1.355927 
C 0.996331 -1.715523 0.508546 -1.917571 0 -1.917571 
C -0.508546 -1.917571 -0.996331 -1.715523 -1.355927 -1.355927 
C -1.715523 -0.996331 -1.917571 -0.508546 -1.917571 0 
C -1.917571 0.508546 -1.715523 0.996331 -1.355927 1.355927 
C -0.996331 1.715523 -0.508546 1.917571 0 1.917571 
z
" style="stroke: #000000; stroke-width: 0.5"/>
    </defs>
    <g clip-path="url(#p4941c87781)">
     <use xlink:href="#md4c02bae7b" x="31.979787" y="42.998042" style="stroke: #000000; stroke-width: 0.5"/>
     <use xlink:href="#md4c02bae7b" x="90.434964" y="46.914297" style="stroke: #000000; stroke-width: 0.5"/>
    </g>
   </g>
   <g id="matplotlib.axis_1">
    <g id="xtick_1">
     <g id="line2d_4">
      <defs>
       <path id="md7930f8536" d="M 0 0 
L 0 3 
" style="stroke: #000000; stroke-width: 0.5"/>
      </defs>
      <g>
       <use xlink:href="#md7930f8536" x="42.209443" y="104.876063" style="stroke: #000000; stroke-width: 0.5"/>
      </g>
     </g>
     <g id="text_1">
      <g id="patch_3">
       <path d="M 30.68663 124.299688 
L 53.732255 124.299688 
L 53.732255 110.28575 
L 30.68663 110.28575 
z
" style="fill: #75bbfd; opacity: 0.4"/>
      </g>
      <text style="font: 6px 'Arial', 'Helvetica', sans-serif" transform="translate(31.70663 115.67075)">Early IA</text>
      <text style="font: 6px 'Arial', 'Helvetica', sans-serif" transform="translate(34.709912 122.087188)"> Error</text>
     </g>
    </g>
    <g id="xtick_2">
     <g id="line2d_5">
      <g>
       <use xlink:href="#md7930f8536" x="100.66462" y="104.876063" style="stroke: #000000; stroke-width: 0.5"/>
      </g>
     </g>
     <g id="text_2">
      <g id="patch_4">
       <path d="M 87.808682 124.372813 
L 113.520557 124.372813 
L 113.520557 110.28575 
L 87.808682 110.28575 
z
" style="fill: #02ab2e; opacity: 0.4"/>
      </g>
      <text style="font: 6px 'Arial', 'Helvetica', sans-serif" transform="translate(88.828682 115.743875)">Early RS</text>
      <text style="font: 6px 'Arial', 'Helvetica', sans-serif" transform="translate(93.165088 122.160313)"> Error</text>
     </g>
    </g>
    <g id="text_3">
     <text style="font: 6px 'Arial', 'Helvetica', sans-serif; text-anchor: middle" x="71.437031" y="131.6475" transform="rotate(-0 71.437031 131.6475)">Cell Ensemble</text>
    </g>
   </g>
   <g id="matplotlib.axis_2">
    <g id="ytick_1">
     <g id="line2d_6">
      <defs>
       <path id="m38c3bc18b2" d="M 0 0 
L -3 0 
" style="stroke: #000000; stroke-width: 0.5"/>
      </defs>
      <g>
       <use xlink:href="#m38c3bc18b2" x="28.034063" y="104.876062" style="stroke: #000000; stroke-width: 0.5"/>
      </g>
     </g>
     <g id="text_4">
      <text style="font: 6px 'Arial', 'Helvetica', sans-serif; text-anchor: end" x="23.034063" y="107.023406" transform="rotate(-0 23.034063 107.023406)">0.80</text>
     </g>
    </g>
    <g id="ytick_2">
     <g id="line2d_7">
      <g>
       <use xlink:href="#m38c3bc18b2" x="28.034063" y="89.020778" style="stroke: #000000; stroke-width: 0.5"/>
      </g>
     </g>
     <g id="text_5">
      <text style="font: 6px 'Arial', 'Helvetica', sans-serif; text-anchor: end" x="23.034063" y="91.168122" transform="rotate(-0 23.034063 91.168122)">0.85</text>
     </g>
    </g>
    <g id="ytick_3">
     <g id="line2d_8">
      <g>
       <use xlink:href="#m38c3bc18b2" x="28.034063" y="73.165494" style="stroke: #000000; stroke-width: 0.5"/>
      </g>
     </g>
     <g id="text_6">
      <text style="font: 6px 'Arial', 'Helvetica', sans-serif; text-anchor: end" x="23.034063" y="75.312838" transform="rotate(-0 23.034063 75.312838)">0.90</text>
     </g>
    </g>
    <g id="ytick_4">
     <g id="line2d_9">
      <g>
       <use xlink:href="#m38c3bc18b2" x="28.034063" y="57.31021" style="stroke: #000000; stroke-width: 0.5"/>
      </g>
     </g>
     <g id="text_7">
      <text style="font: 6px 'Arial', 'Helvetica', sans-serif; text-anchor: end" x="23.034063" y="59.457554" transform="rotate(-0 23.034063 59.457554)">0.95</text>
     </g>
    </g>
    <g id="ytick_5">
     <g id="line2d_10">
      <g>
       <use xlink:href="#m38c3bc18b2" x="28.034063" y="41.454926" style="stroke: #000000; stroke-width: 0.5"/>
      </g>
     </g>
     <g id="text_8">
      <text style="font: 6px 'Arial', 'Helvetica', sans-serif; text-anchor: end" x="23.034063" y="43.60227" transform="rotate(-0 23.034063 43.60227)">1.00</text>
     </g>
    </g>
    <g id="text_9">
     <text style="font: 6px 'Arial', 'Helvetica', sans-serif; text-anchor: middle" x="6.094688" y="61.274031" transform="rotate(-90 6.094688 61.274031)">Mean accuracy</text>
    </g>
   </g>
   <g id="line2d_11"/>
   <g id="line2d_12">
    <path d="M 37.094615 50.571714 
L 37.094615 45.418747 
" clip-path="url(#p4941c87781)" style="fill: none; stroke: #808080; stroke-width: 1.25; stroke-linecap: square"/>
   </g>
   <g id="line2d_13">
    <path d="M 95.549792 79.90399 
L 95.549792 69.994438 
" clip-path="url(#p4941c87781)" style="fill: none; stroke: #808080; stroke-width: 1.25; stroke-linecap: square"/>
   </g>
   <g id="PathCollection_2">
    <defs>
     <path id="mc5c2b52f42" d="M 0 1.917571 
C 0.508546 1.917571 0.996331 1.715523 1.355927 1.355927 
C 1.715523 0.996331 1.917571 0.508546 1.917571 0 
C 1.917571 -0.508546 1.715523 -0.996331 1.355927 -1.355927 
C 0.996331 -1.715523 0.508546 -1.917571 0 -1.917571 
C -0.508546 -1.917571 -0.996331 -1.715523 -1.355927 -1.355927 
C -1.715523 -0.996331 -1.917571 -0.508546 -1.917571 0 
C -1.917571 0.508546 -1.715523 0.996331 -1.355927 1.355927 
C -0.996331 1.715523 -0.508546 1.917571 0 1.917571 
z
" style="stroke: #000000; stroke-width: 0.5"/>
    </defs>
    <g clip-path="url(#p4941c87781)">
     <use xlink:href="#mc5c2b52f42" x="37.094615" y="47.992456" style="fill: #808080; stroke: #000000; stroke-width: 0.5"/>
     <use xlink:href="#mc5c2b52f42" x="95.549792" y="74.994005" style="fill: #808080; stroke: #000000; stroke-width: 0.5"/>
    </g>
   </g>
   <g id="line2d_14">
    <path d="M 31.979787 39.832091 
L 31.979787 39.832091 
L 37.094615 39.832091 
L 37.094615 39.832091 
" style="fill: none; stroke: #000000; stroke-width: 0.75; stroke-linecap: square"/>
   </g>
   <g id="line2d_15">
    <path d="M 31.979787 34.512215 
L 31.979787 34.512215 
L 42.209443 34.512215 
L 42.209443 34.512215 
" style="fill: none; stroke: #000000; stroke-width: 0.75; stroke-linecap: square"/>
   </g>
   <g id="line2d_16">
    <path d="M 42.209443 29.192338 
L 42.209443 29.192338 
L 47.324271 29.192338 
L 47.324271 29.192338 
" style="fill: none; stroke: #000000; stroke-width: 0.75; stroke-linecap: square"/>
   </g>
   <g id="line2d_17">
    <path d="M 42.209443 23.872462 
L 42.209443 23.872462 
L 52.439099 23.872462 
L 52.439099 23.872462 
" style="fill: none; stroke: #000000; stroke-width: 0.75; stroke-linecap: square"/>
   </g>
   <g id="line2d_18">
    <path d="M 90.434964 43.679329 
L 90.434964 43.679329 
L 95.549792 43.679329 
L 95.549792 43.679329 
" style="fill: none; stroke: #000000; stroke-width: 0.75; stroke-linecap: square"/>
   </g>
   <g id="line2d_19">
    <path d="M 90.434964 38.359453 
L 90.434964 38.359453 
L 100.66462 38.359453 
L 100.66462 38.359453 
" style="fill: none; stroke: #000000; stroke-width: 0.75; stroke-linecap: square"/>
   </g>
   <g id="line2d_20">
    <path d="M 100.66462 33.039576 
L 100.66462 33.039576 
L 105.779448 33.039576 
L 105.779448 33.039576 
" style="fill: none; stroke: #000000; stroke-width: 0.75; stroke-linecap: square"/>
   </g>
   <g id="line2d_21">
    <path d="M 100.66462 27.7197 
L 100.66462 27.7197 
L 110.894276 27.7197 
L 110.894276 27.7197 
" style="fill: none; stroke: #000000; stroke-width: 0.75; stroke-linecap: square"/>
   </g>
   <g id="patch_5">
    <path d="M 28.034063 104.876062 
L 28.034063 17.672 
" style="fill: none; stroke: #000000; stroke-width: 0.5; stroke-linejoin: miter; stroke-linecap: square"/>
   </g>
   <g id="patch_6">
    <path d="M 28.034063 104.876063 
L 114.84 104.876063 
" style="fill: none; stroke: #000000; stroke-width: 0.5; stroke-linejoin: miter; stroke-linecap: square"/>
   </g>
   <g id="line2d_22"/>
   <g id="line2d_23">
    <path d="M 42.209443 48.986186 
L 42.209443 44.625983 
" clip-path="url(#p4941c87781)" style="fill: none; stroke: #ff0000; stroke-width: 1.25; stroke-linecap: square"/>
   </g>
   <g id="line2d_24">
    <path d="M 100.66462 90.209925 
L 100.66462 78.714844 
" clip-path="url(#p4941c87781)" style="fill: none; stroke: #ff0000; stroke-width: 1.25; stroke-linecap: square"/>
   </g>
   <g id="PathCollection_3">
    <defs>
     <path id="me00e5696f1" d="M 0 1.917571 
C 0.508546 1.917571 0.996331 1.715523 1.355927 1.355927 
C 1.715523 0.996331 1.917571 0.508546 1.917571 0 
C 1.917571 -0.508546 1.715523 -0.996331 1.355927 -1.355927 
C 0.996331 -1.715523 0.508546 -1.917571 0 -1.917571 
C -0.508546 -1.917571 -0.996331 -1.715523 -1.355927 -1.355927 
C -1.715523 -0.996331 -1.917571 -0.508546 -1.917571 0 
C -1.917571 0.508546 -1.715523 0.996331 -1.355927 1.355927 
C -0.996331 1.715523 -0.508546 1.917571 0 1.917571 
z
" style="stroke: #000000; stroke-width: 0.5"/>
    </defs>
    <g clip-path="url(#p4941c87781)">
     <use xlink:href="#me00e5696f1" x="42.209443" y="46.806877" style="fill: #ff0000; stroke: #000000; stroke-width: 0.5"/>
     <use xlink:href="#me00e5696f1" x="100.66462" y="84.455646" style="fill: #ff0000; stroke: #000000; stroke-width: 0.5"/>
    </g>
   </g>
   <g id="text_10">
    <g id="patch_7">
     <path d="M 29.466576 43.813176 
L 39.607826 43.813176 
L 39.607826 35.696926 
L 29.466576 35.696926 
L 29.466576 43.813176 
z
" style="fill: none"/>
    </g>
    <text style="font: 8px 'Arial', 'Helvetica', sans-serif; text-anchor: middle" x="34.537201" y="41.823176" transform="rotate(-0 34.537201 41.823176)">***</text>
   </g>
   <g id="text_11">
    <g id="patch_8">
     <path d="M 32.02399 38.493299 
L 42.16524 38.493299 
L 42.16524 30.377049 
L 32.02399 30.377049 
L 32.02399 38.493299 
z
" style="fill: none"/>
    </g>
    <text style="font: 8px 'Arial', 'Helvetica', sans-serif; text-anchor: middle" x="37.094615" y="36.503299" transform="rotate(-0 37.094615 36.503299)">***</text>
   </g>
   <g id="text_12">
    <g id="patch_9">
     <path d="M 39.696232 33.173423 
L 49.837482 33.173423 
L 49.837482 25.057173 
L 39.696232 25.057173 
L 39.696232 33.173423 
z
" style="fill: none"/>
    </g>
    <text style="font: 8px 'Arial', 'Helvetica', sans-serif; text-anchor: middle" x="44.766857" y="31.183423" transform="rotate(-0 44.766857 31.183423)">***</text>
   </g>
   <g id="text_13">
    <g id="patch_10">
     <path d="M 42.253646 27.853546 
L 52.394896 27.853546 
L 52.394896 19.737296 
L 42.253646 19.737296 
L 42.253646 27.853546 
z
" style="fill: none"/>
    </g>
    <text style="font: 8px 'Arial', 'Helvetica', sans-serif; text-anchor: middle" x="47.324271" y="25.863546" transform="rotate(-0 47.324271 25.863546)">***</text>
   </g>
   <g id="text_14">
    <g id="patch_11">
     <path d="M 87.921753 47.660414 
L 98.063003 47.660414 
L 98.063003 39.544164 
L 87.921753 39.544164 
L 87.921753 47.660414 
z
" style="fill: none"/>
    </g>
    <text style="font: 8px 'Arial', 'Helvetica', sans-serif; text-anchor: middle" x="92.992378" y="45.670414" transform="rotate(-0 92.992378 45.670414)">***</text>
   </g>
   <g id="text_15">
    <g id="patch_12">
     <path d="M 90.479167 42.340537 
L 100.620417 42.340537 
L 100.620417 34.224287 
L 90.479167 34.224287 
L 90.479167 42.340537 
z
" style="fill: none"/>
    </g>
    <text style="font: 8px 'Arial', 'Helvetica', sans-serif; text-anchor: middle" x="95.549792" y="40.350537" transform="rotate(-0 95.549792 40.350537)">***</text>
   </g>
   <g id="text_16">
    <g id="patch_13">
     <path d="M 98.151409 37.020661 
L 108.292659 37.020661 
L 108.292659 28.904411 
L 98.151409 28.904411 
L 98.151409 37.020661 
z
" style="fill: none"/>
    </g>
    <text style="font: 8px 'Arial', 'Helvetica', sans-serif; text-anchor: middle" x="103.222034" y="35.030661" transform="rotate(-0 103.222034 35.030661)">***</text>
   </g>
   <g id="text_17">
    <g id="patch_14">
     <path d="M 100.708823 31.700784 
L 110.850073 31.700784 
L 110.850073 23.584534 
L 100.708823 23.584534 
L 100.708823 31.700784 
z
" style="fill: none"/>
    </g>
    <text style="font: 8px 'Arial', 'Helvetica', sans-serif; text-anchor: middle" x="105.779448" y="29.710784" transform="rotate(-0 105.779448 29.710784)">***</text>
   </g>
   <g id="text_18">
    <text style="font: 6px 'Arial', 'Helvetica', sans-serif" transform="translate(38.599219 6.167812)">Classify Error activity as:</text>
    <text style="font: 6px 'Arial', 'Helvetica', sans-serif" transform="translate(43.762969 12.672)"> Early IA vs Early RS</text>
   </g>
   <g id="line2d_25"/>
   <g id="line2d_26">
    <path d="M 47.324271 45.022365 
L 47.324271 42.24769 
" clip-path="url(#p4941c87781)" style="fill: none; stroke: #1e90ff; stroke-width: 1.25; stroke-linecap: square"/>
   </g>
   <g id="line2d_27">
    <path d="M 105.779448 51.760861 
L 105.779448 47.004276 
" clip-path="url(#p4941c87781)" style="fill: none; stroke: #1e90ff; stroke-width: 1.25; stroke-linecap: square"/>
   </g>
   <g id="PathCollection_4">
    <defs>
     <path id="mfa6c602d97" d="M 0 1.917571 
C 0.508546 1.917571 0.996331 1.715523 1.355927 1.355927 
C 1.715523 0.996331 1.917571 0.508546 1.917571 0 
C 1.917571 -0.508546 1.715523 -0.996331 1.355927 -1.355927 
C 0.996331 -1.715523 0.508546 -1.917571 0 -1.917571 
C -0.508546 -1.917571 -0.996331 -1.715523 -1.355927 -1.355927 
C -1.715523 -0.996331 -1.917571 -0.508546 -1.917571 0 
C -1.917571 0.508546 -1.715523 0.996331 -1.355927 1.355927 
C -0.996331 1.715523 -0.508546 1.917571 0 1.917571 
z
" style="stroke: #000000; stroke-width: 0.5"/>
    </defs>
    <g clip-path="url(#p4941c87781)">
     <use xlink:href="#mfa6c602d97" x="47.324271" y="43.724214" style="fill: #1e90ff; stroke: #000000; stroke-width: 0.5"/>
     <use xlink:href="#mfa6c602d97" x="105.779448" y="49.415864" style="fill: #1e90ff; stroke: #000000; stroke-width: 0.5"/>
    </g>
   </g>
   <g id="line2d_28"/>
   <g id="line2d_29">
    <path d="M 52.439099 42.24769 
L 52.439099 41.454926 
" clip-path="url(#p4941c87781)" style="fill: none; stroke: #32cd32; stroke-width: 1.25; stroke-linecap: square"/>
   </g>
   <g id="line2d_30">
    <path d="M 110.894276 61.670413 
L 110.894276 54.139153 
" clip-path="url(#p4941c87781)" style="fill: none; stroke: #32cd32; stroke-width: 1.25; stroke-linecap: square"/>
   </g>
   <g id="PathCollection_5">
    <defs>
     <path id="m438f3318bf" d="M 0 1.917571 
C 0.508546 1.917571 0.996331 1.715523 1.355927 1.355927 
C 1.715523 0.996331 1.917571 0.508546 1.917571 0 
C 1.917571 -0.508546 1.715523 -0.996331 1.355927 -1.355927 
C 0.996331 -1.715523 0.508546 -1.917571 0 -1.917571 
C -0.508546 -1.917571 -0.996331 -1.715523 -1.355927 -1.355927 
C -1.715523 -0.996331 -1.917571 -0.508546 -1.917571 0 
C -1.917571 0.508546 -1.715523 0.996331 -1.355927 1.355927 
C -0.996331 1.715523 -0.508546 1.917571 0 1.917571 
z
" style="stroke: #000000; stroke-width: 0.5"/>
    </defs>
    <g clip-path="url(#p4941c87781)">
     <use xlink:href="#m438f3318bf" x="52.439099" y="41.863992" style="fill: #32cd32; stroke: #000000; stroke-width: 0.5"/>
     <use xlink:href="#m438f3318bf" x="110.894276" y="57.888135" style="fill: #32cd32; stroke: #000000; stroke-width: 0.5"/>
    </g>
   </g>
  </g>
 </g>
 <defs>
  <clipPath id="p4941c87781">
   <rect x="28.034063" y="17.672" width="86.805937" height="87.204063"/>
  </clipPath>
 </defs>
</svg>
