<?xml version="1.0" encoding="utf-8" standalone="no"?>
<!DOCTYPE svg PUBLIC "-//W3C//DTD SVG 1.1//EN"
  "http://www.w3.org/Graphics/SVG/1.1/DTD/svg11.dtd">
<svg xmlns:xlink="http://www.w3.org/1999/xlink" width="116.64pt" height="134.64pt" viewBox="0 0 116.64 134.64" xmlns="http://www.w3.org/2000/svg" version="1.1">
 <metadata>
  <rdf:RDF xmlns:dc="http://purl.org/dc/elements/1.1/" xmlns:cc="http://creativecommons.org/ns#" xmlns:rdf="http://www.w3.org/1999/02/22-rdf-syntax-ns#">
   <cc:Work>
    <dc:type rdf:resource="http://purl.org/dc/dcmitype/StillImage"/>
    <dc:date>2025-08-28T21:48:57.633964</dc:date>
    <dc:format>image/svg+xml</dc:format>
    <dc:creator>
     <cc:Agent>
      <dc:title>Matplotlib v3.7.0, https://matplotlib.org/</dc:title>
     </cc:Agent>
    </dc:creator>
   </cc:Work>
  </rdf:RDF>
 </metadata>
 <defs>
  <style type="text/css">*{stroke-linejoin: round; stroke-linecap: butt}</style>
 </defs>
 <g id="figure_1">
  <g id="patch_1">
   <path d="M 0 134.64 
L 116.64 134.64 
L 116.64 0 
L 0 0 
z
" style="fill: #ffffff"/>
  </g>
  <g id="axes_1">
   <g id="patch_2">
    <path d="M 28.034063 104.876063 
L 114.84 104.876063 
L 114.84 17.672 
L 28.034063 17.672 
z
" style="fill: #ffffff"/>
   </g>
   <g id="line2d_1"/>
   <g id="line2d_2">
    <path d="M 31.979787 42.089137 
L 31.979787 35.984853 
" clip-path="url(#pb7848d65ad)" style="fill: none; stroke: #000000; stroke-width: 1.25; stroke-linecap: square"/>
   </g>
   <g id="line2d_3">
    <path d="M 90.434964 56.913828 
L 90.434964 45.5773 
" clip-path="url(#pb7848d65ad)" style="fill: none; stroke: #000000; stroke-width: 1.25; stroke-linecap: square"/>
   </g>
   <g id="PathCollection_1">
    <defs>
     <path id="mf880e21515" d="M 0 1.917571 
C 0.508546 1.917571 0.996331 1.715523 1.355927 1.355927 
C 1.715523 0.996331 1.917571 0.508546 1.917571 0 
C 1.917571 -0.508546 1.715523 -0.996331 1.355927 -1.355927 
C 0.996331 -1.715523 0.508546 -1.917571 0 -1.917571 
C -0.508546 -1.917571 -0.996331 -1.715523 -1.355927 -1.355927 
C -1.715523 -0.996331 -1.917571 -0.508546 -1.917571 0 
C -1.917571 0.508546 -1.715523 0.996331 -1.355927 1.355927 
C -0.996331 1.715523 -0.508546 1.917571 0 1.917571 
z
" style="stroke: #000000; stroke-width: 0.5"/>
    </defs>
    <g clip-path="url(#pb7848d65ad)">
     <use xlink:href="#mf880e21515" x="31.979787" y="38.942815" style="stroke: #000000; stroke-width: 0.5"/>
     <use xlink:href="#mf880e21515" x="90.434964" y="51.184521" style="stroke: #000000; stroke-width: 0.5"/>
    </g>
   </g>
   <g id="matplotlib.axis_1">
    <g id="xtick_1">
     <g id="line2d_4">
      <defs>
       <path id="m1867e0c4b7" d="M 0 0 
L 0 3 
" style="stroke: #000000; stroke-width: 0.5"/>
      </defs>
      <g>
       <use xlink:href="#m1867e0c4b7" x="42.209443" y="104.876063" style="stroke: #000000; stroke-width: 0.5"/>
      </g>
     </g>
     <g id="text_1">
      <g id="patch_3">
       <path d="M 30.52163 124.299688 
L 53.897255 124.299688 
L 53.897255 110.28575 
L 30.52163 110.28575 
z
" style="fill: #ff5b00; opacity: 0.4"/>
      </g>
      <text style="font: 6px 'Arial', 'Helvetica', sans-serif" transform="translate(31.70663 115.67075)">Early IA</text>
      <text style="font: 6px 'Arial', 'Helvetica', sans-serif" transform="translate(31.54163 122.087188)"> Correct</text>
     </g>
    </g>
    <g id="xtick_2">
     <g id="line2d_5">
      <g>
       <use xlink:href="#m1867e0c4b7" x="100.66462" y="104.876063" style="stroke: #000000; stroke-width: 0.5"/>
      </g>
     </g>
     <g id="text_2">
      <g id="patch_4">
       <path d="M 87.808682 124.372813 
L 113.520557 124.372813 
L 113.520557 110.28575 
L 87.808682 110.28575 
z
" style="fill: #7e1e9c; opacity: 0.4"/>
      </g>
      <text style="font: 6px 'Arial', 'Helvetica', sans-serif" transform="translate(88.828682 115.743875)">Early RS</text>
      <text style="font: 6px 'Arial', 'Helvetica', sans-serif" transform="translate(89.996807 122.160313)"> Correct</text>
     </g>
    </g>
    <g id="text_3">
     <text style="font: 6px 'Arial', 'Helvetica', sans-serif; text-anchor: middle" x="71.437031" y="131.6475" transform="rotate(-0 71.437031 131.6475)">Cell Ensemble</text>
    </g>
   </g>
   <g id="matplotlib.axis_2">
    <g id="ytick_1">
     <g id="line2d_6">
      <defs>
       <path id="maff752c3d8" d="M 0 0 
L -3 0 
" style="stroke: #000000; stroke-width: 0.5"/>
      </defs>
      <g>
       <use xlink:href="#maff752c3d8" x="28.034063" y="104.876063" style="stroke: #000000; stroke-width: 0.5"/>
      </g>
     </g>
     <g id="text_4">
      <text style="font: 6px 'Arial', 'Helvetica', sans-serif; text-anchor: end" x="23.034063" y="107.023406" transform="rotate(-0 23.034063 107.023406)">0.90</text>
     </g>
    </g>
    <g id="ytick_2">
     <g id="line2d_7">
      <g>
       <use xlink:href="#maff752c3d8" x="28.034063" y="90.923413" style="stroke: #000000; stroke-width: 0.5"/>
      </g>
     </g>
     <g id="text_5">
      <text style="font: 6px 'Arial', 'Helvetica', sans-serif; text-anchor: end" x="23.034063" y="93.070756" transform="rotate(-0 23.034063 93.070756)">0.92</text>
     </g>
    </g>
    <g id="ytick_3">
     <g id="line2d_8">
      <g>
       <use xlink:href="#maff752c3d8" x="28.034063" y="76.970762" style="stroke: #000000; stroke-width: 0.5"/>
      </g>
     </g>
     <g id="text_6">
      <text style="font: 6px 'Arial', 'Helvetica', sans-serif; text-anchor: end" x="23.034063" y="79.118106" transform="rotate(-0 23.034063 79.118106)">0.94</text>
     </g>
    </g>
    <g id="ytick_4">
     <g id="line2d_9">
      <g>
       <use xlink:href="#maff752c3d8" x="28.034063" y="63.018113" style="stroke: #000000; stroke-width: 0.5"/>
      </g>
     </g>
     <g id="text_7">
      <text style="font: 6px 'Arial', 'Helvetica', sans-serif; text-anchor: end" x="23.034063" y="65.165456" transform="rotate(-0 23.034063 65.165456)">0.96</text>
     </g>
    </g>
    <g id="ytick_5">
     <g id="line2d_10">
      <g>
       <use xlink:href="#maff752c3d8" x="28.034063" y="49.065463" style="stroke: #000000; stroke-width: 0.5"/>
      </g>
     </g>
     <g id="text_8">
      <text style="font: 6px 'Arial', 'Helvetica', sans-serif; text-anchor: end" x="23.034063" y="51.212806" transform="rotate(-0 23.034063 51.212806)">0.98</text>
     </g>
    </g>
    <g id="ytick_6">
     <g id="line2d_11">
      <g>
       <use xlink:href="#maff752c3d8" x="28.034063" y="35.112813" style="stroke: #000000; stroke-width: 0.5"/>
      </g>
     </g>
     <g id="text_9">
      <text style="font: 6px 'Arial', 'Helvetica', sans-serif; text-anchor: end" x="23.034063" y="37.260156" transform="rotate(-0 23.034063 37.260156)">1.00</text>
     </g>
    </g>
    <g id="text_10">
     <text style="font: 6px 'Arial', 'Helvetica', sans-serif; text-anchor: middle" x="6.094688" y="61.274031" transform="rotate(-90 6.094688 61.274031)">Mean accuracy</text>
    </g>
   </g>
   <g id="line2d_12"/>
   <g id="line2d_13">
    <path d="M 37.094615 40.345056 
L 37.094615 35.984853 
" clip-path="url(#pb7848d65ad)" style="fill: none; stroke: #808080; stroke-width: 1.25; stroke-linecap: square"/>
   </g>
   <g id="line2d_14">
    <path d="M 95.549792 49.937503 
L 95.549792 41.217097 
" clip-path="url(#pb7848d65ad)" style="fill: none; stroke: #808080; stroke-width: 1.25; stroke-linecap: square"/>
   </g>
   <g id="PathCollection_2">
    <defs>
     <path id="mc84f8b623b" d="M 0 1.917571 
C 0.508546 1.917571 0.996331 1.715523 1.355927 1.355927 
C 1.715523 0.996331 1.917571 0.508546 1.917571 0 
C 1.917571 -0.508546 1.715523 -0.996331 1.355927 -1.355927 
C 0.996331 -1.715523 0.508546 -1.917571 0 -1.917571 
C -0.508546 -1.917571 -0.996331 -1.715523 -1.355927 -1.355927 
C -1.715523 -0.996331 -1.917571 -0.508546 -1.917571 0 
C -1.917571 0.508546 -1.715523 0.996331 -1.355927 1.355927 
C -0.996331 1.715523 -0.508546 1.917571 0 1.917571 
z
" style="stroke: #000000; stroke-width: 0.5"/>
    </defs>
    <g clip-path="url(#pb7848d65ad)">
     <use xlink:href="#mc84f8b623b" x="37.094615" y="37.964385" style="fill: #808080; stroke: #000000; stroke-width: 0.5"/>
     <use xlink:href="#mc84f8b623b" x="95.549792" y="45.081981" style="fill: #808080; stroke: #000000; stroke-width: 0.5"/>
    </g>
   </g>
   <g id="line2d_15">
    <path d="M 42.209443 32.496691 
L 42.209443 32.496691 
L 47.324271 32.496691 
L 47.324271 32.496691 
" style="fill: none; stroke: #000000; stroke-width: 0.75; stroke-linecap: square"/>
   </g>
   <g id="line2d_16">
    <path d="M 42.209443 27.171346 
L 42.209443 27.171346 
L 52.439099 27.171346 
L 52.439099 27.171346 
" style="fill: none; stroke: #000000; stroke-width: 0.75; stroke-linecap: square"/>
   </g>
   <g id="line2d_17">
    <path d="M 90.434964 37.728934 
L 90.434964 37.728934 
L 95.549792 37.728934 
L 95.549792 37.728934 
" style="fill: none; stroke: #000000; stroke-width: 0.75; stroke-linecap: square"/>
   </g>
   <g id="line2d_18">
    <path d="M 90.434964 32.403589 
L 90.434964 32.403589 
L 100.66462 32.403589 
L 100.66462 32.403589 
" style="fill: none; stroke: #000000; stroke-width: 0.75; stroke-linecap: square"/>
   </g>
   <g id="line2d_19">
    <path d="M 100.66462 27.078244 
L 100.66462 27.078244 
L 105.779448 27.078244 
L 105.779448 27.078244 
" style="fill: none; stroke: #000000; stroke-width: 0.75; stroke-linecap: square"/>
   </g>
   <g id="line2d_20">
    <path d="M 100.66462 21.752899 
L 100.66462 21.752899 
L 110.894276 21.752899 
L 110.894276 21.752899 
" style="fill: none; stroke: #000000; stroke-width: 0.75; stroke-linecap: square"/>
   </g>
   <g id="patch_5">
    <path d="M 28.034063 104.876063 
L 28.034063 17.672 
" style="fill: none; stroke: #000000; stroke-width: 0.5; stroke-linejoin: miter; stroke-linecap: square"/>
   </g>
   <g id="patch_6">
    <path d="M 28.034063 104.876063 
L 114.84 104.876063 
" style="fill: none; stroke: #000000; stroke-width: 0.5; stroke-linejoin: miter; stroke-linecap: square"/>
   </g>
   <g id="line2d_21"/>
   <g id="line2d_22">
    <path d="M 42.209443 44.705259 
L 42.209443 37.728934 
" clip-path="url(#pb7848d65ad)" style="fill: none; stroke: #ff0000; stroke-width: 1.25; stroke-linecap: square"/>
   </g>
   <g id="line2d_23">
    <path d="M 100.66462 103.131981 
L 100.66462 82.203006 
" clip-path="url(#pb7848d65ad)" style="fill: none; stroke: #ff0000; stroke-width: 1.25; stroke-linecap: square"/>
   </g>
   <g id="PathCollection_3">
    <defs>
     <path id="ma71434bcaf" d="M 0 1.917571 
C 0.508546 1.917571 0.996331 1.715523 1.355927 1.355927 
C 1.715523 0.996331 1.917571 0.508546 1.917571 0 
C 1.917571 -0.508546 1.715523 -0.996331 1.355927 -1.355927 
C 0.996331 -1.715523 0.508546 -1.917571 0 -1.917571 
C -0.508546 -1.917571 -0.996331 -1.715523 -1.355927 -1.355927 
C -1.715523 -0.996331 -1.917571 -0.508546 -1.917571 0 
C -1.917571 0.508546 -1.715523 0.996331 -1.355927 1.355927 
C -0.996331 1.715523 -0.508546 1.917571 0 1.917571 
z
" style="stroke: #000000; stroke-width: 0.5"/>
    </defs>
    <g clip-path="url(#pb7848d65ad)">
     <use xlink:href="#ma71434bcaf" x="42.209443" y="41.486557" style="fill: #ff0000; stroke: #000000; stroke-width: 0.5"/>
     <use xlink:href="#ma71434bcaf" x="100.66462" y="92.338734" style="fill: #ff0000; stroke: #000000; stroke-width: 0.5"/>
    </g>
   </g>
   <g id="text_11">
    <g id="patch_7">
     <path d="M 42.809982 36.477775 
L 46.723732 36.477775 
L 46.723732 28.361525 
L 42.809982 28.361525 
L 42.809982 36.477775 
z
" style="fill: none"/>
    </g>
    <text style="font: 8px 'Arial', 'Helvetica', sans-serif; text-anchor: middle" x="44.766857" y="34.487775" transform="rotate(-0 44.766857 34.487775)">*</text>
   </g>
   <g id="text_12">
    <g id="patch_8">
     <path d="M 43.810521 31.15243 
L 50.838021 31.15243 
L 50.838021 23.03618 
L 43.810521 23.03618 
L 43.810521 31.15243 
z
" style="fill: none"/>
    </g>
    <text style="font: 8px 'Arial', 'Helvetica', sans-serif; text-anchor: middle" x="47.324271" y="29.16243" transform="rotate(-0 47.324271 29.16243)">**</text>
   </g>
   <g id="text_13">
    <g id="patch_9">
     <path d="M 91.035503 41.710019 
L 94.949253 41.710019 
L 94.949253 33.593769 
L 91.035503 33.593769 
L 91.035503 41.710019 
z
" style="fill: none"/>
    </g>
    <text style="font: 8px 'Arial', 'Helvetica', sans-serif; text-anchor: middle" x="92.992378" y="39.720019" transform="rotate(-0 92.992378 39.720019)">*</text>
   </g>
   <g id="text_14">
    <g id="patch_10">
     <path d="M 90.479167 36.384674 
L 100.620417 36.384674 
L 100.620417 28.268424 
L 90.479167 28.268424 
L 90.479167 36.384674 
z
" style="fill: none"/>
    </g>
    <text style="font: 8px 'Arial', 'Helvetica', sans-serif; text-anchor: middle" x="95.549792" y="34.394674" transform="rotate(-0 95.549792 34.394674)">***</text>
   </g>
   <g id="text_15">
    <g id="patch_11">
     <path d="M 98.151409 31.059329 
L 108.292659 31.059329 
L 108.292659 22.943079 
L 98.151409 22.943079 
L 98.151409 31.059329 
z
" style="fill: none"/>
    </g>
    <text style="font: 8px 'Arial', 'Helvetica', sans-serif; text-anchor: middle" x="103.222034" y="29.069329" transform="rotate(-0 103.222034 29.069329)">***</text>
   </g>
   <g id="text_16">
    <g id="patch_12">
     <path d="M 100.708823 25.733984 
L 110.850073 25.733984 
L 110.850073 17.617734 
L 100.708823 17.617734 
L 100.708823 25.733984 
z
" style="fill: none"/>
    </g>
    <text style="font: 8px 'Arial', 'Helvetica', sans-serif; text-anchor: middle" x="105.779448" y="23.743984" transform="rotate(-0 105.779448 23.743984)">***</text>
   </g>
   <g id="text_17">
    <text style="font: 6px 'Arial', 'Helvetica', sans-serif" transform="translate(35.430938 6.167812)">Classify Correct activity as:</text>
    <text style="font: 6px 'Arial', 'Helvetica', sans-serif" transform="translate(43.762969 12.672)"> Early IA vs Early RS</text>
   </g>
   <g id="line2d_24"/>
   <g id="line2d_25">
    <path d="M 47.324271 41.217097 
L 47.324271 35.984853 
" clip-path="url(#pb7848d65ad)" style="fill: none; stroke: #1e90ff; stroke-width: 1.25; stroke-linecap: square"/>
   </g>
   <g id="line2d_26">
    <path d="M 105.779448 56.913828 
L 105.779448 46.449341 
" clip-path="url(#pb7848d65ad)" style="fill: none; stroke: #1e90ff; stroke-width: 1.25; stroke-linecap: square"/>
   </g>
   <g id="PathCollection_4">
    <defs>
     <path id="m6bad4dc442" d="M 0 1.917571 
C 0.508546 1.917571 0.996331 1.715523 1.355927 1.355927 
C 1.715523 0.996331 1.917571 0.508546 1.917571 0 
C 1.917571 -0.508546 1.715523 -0.996331 1.355927 -1.355927 
C 0.996331 -1.715523 0.508546 -1.917571 0 -1.917571 
C -0.508546 -1.917571 -0.996331 -1.715523 -1.355927 -1.355927 
C -1.715523 -0.996331 -1.917571 -0.508546 -1.917571 0 
C -1.917571 0.508546 -1.715523 0.996331 -1.355927 1.355927 
C -0.996331 1.715523 -0.508546 1.917571 0 1.917571 
z
" style="stroke: #000000; stroke-width: 0.5"/>
    </defs>
    <g clip-path="url(#pb7848d65ad)">
     <use xlink:href="#m6bad4dc442" x="47.324271" y="38.362036" style="fill: #1e90ff; stroke: #000000; stroke-width: 0.5"/>
     <use xlink:href="#m6bad4dc442" x="105.779448" y="51.754836" style="fill: #1e90ff; stroke: #000000; stroke-width: 0.5"/>
    </g>
   </g>
   <g id="line2d_27"/>
   <g id="line2d_28">
    <path d="M 52.439099 39.473016 
L 52.439099 35.984853 
" clip-path="url(#pb7848d65ad)" style="fill: none; stroke: #32cd32; stroke-width: 1.25; stroke-linecap: square"/>
   </g>
   <g id="line2d_29">
    <path d="M 110.894276 55.169747 
L 110.894276 44.705259 
" clip-path="url(#pb7848d65ad)" style="fill: none; stroke: #32cd32; stroke-width: 1.25; stroke-linecap: square"/>
   </g>
   <g id="PathCollection_5">
    <defs>
     <path id="m91f40095a1" d="M 0 1.917571 
C 0.508546 1.917571 0.996331 1.715523 1.355927 1.355927 
C 1.715523 0.996331 1.917571 0.508546 1.917571 0 
C 1.917571 -0.508546 1.715523 -0.996331 1.355927 -1.355927 
C 0.996331 -1.715523 0.508546 -1.917571 0 -1.917571 
C -0.508546 -1.917571 -0.996331 -1.715523 -1.355927 -1.355927 
C -1.715523 -0.996331 -1.917571 -0.508546 -1.917571 0 
C -1.917571 0.508546 -1.715523 0.996331 -1.355927 1.355927 
C -0.996331 1.715523 -0.508546 1.917571 0 1.917571 
z
" style="stroke: #000000; stroke-width: 0.5"/>
    </defs>
    <g clip-path="url(#pb7848d65ad)">
     <use xlink:href="#m91f40095a1" x="52.439099" y="37.406279" style="fill: #32cd32; stroke: #000000; stroke-width: 0.5"/>
     <use xlink:href="#m91f40095a1" x="110.894276" y="49.695076" style="fill: #32cd32; stroke: #000000; stroke-width: 0.5"/>
    </g>
   </g>
  </g>
 </g>
 <defs>
  <clipPath id="pb7848d65ad">
   <rect x="28.034063" y="17.672" width="86.805937" height="87.204063"/>
  </clipPath>
 </defs>
</svg>
