<?xml version="1.0" encoding="utf-8" standalone="no"?>
<!DOCTYPE svg PUBLIC "-//W3C//DTD SVG 1.1//EN"
  "http://www.w3.org/Graphics/SVG/1.1/DTD/svg11.dtd">
<svg xmlns:xlink="http://www.w3.org/1999/xlink" width="213.59952pt" height="123.59952pt" viewBox="0 0 213.59952 123.59952" xmlns="http://www.w3.org/2000/svg" version="1.1">
 <metadata>
  <rdf:RDF xmlns:dc="http://purl.org/dc/elements/1.1/" xmlns:cc="http://creativecommons.org/ns#" xmlns:rdf="http://www.w3.org/1999/02/22-rdf-syntax-ns#">
   <cc:Work>
    <dc:type rdf:resource="http://purl.org/dc/dcmitype/StillImage"/>
    <dc:date>2025-08-28T22:02:36.971670</dc:date>
    <dc:format>image/svg+xml</dc:format>
    <dc:creator>
     <cc:Agent>
      <dc:title>Matplotlib v3.7.0, https://matplotlib.org/</dc:title>
     </cc:Agent>
    </dc:creator>
   </cc:Work>
  </rdf:RDF>
 </metadata>
 <defs>
  <style type="text/css">*{stroke-linejoin: round; stroke-linecap: butt}</style>
 </defs>
 <g id="figure_1">
  <g id="patch_1">
   <path d="M 0 123.59952 
L 213.59952 123.59952 
L 213.59952 0 
L 0 0 
z
" style="fill: #ffffff"/>
  </g>
  <g id="axes_1">
   <g id="patch_2">
    <path d="M 26.296875 96.79952 
L 211.79952 96.79952 
L 211.79952 11.167812 
L 26.296875 11.167812 
z
" style="fill: #ffffff"/>
   </g>
   <g id="axes_2">
    <g id="patch_3">
     <path d="M 26.296875 96.79952 
L 211.79952 96.79952 
L 211.79952 96.79952 
L 26.296875 96.79952 
z
" style="fill: #ffffff"/>
    </g>
    <g id="matplotlib.axis_1">
     <g id="xtick_1">
      <g id="line2d_1"/>
      <g id="text_1">
       <text style="font: 6px 'Arial', 'Helvetica', sans-serif" transform="translate(103.7174 104.594207)"/>
       <text style="font: 6px 'Arial', 'Helvetica', sans-serif" transform="translate(103.7174 110.940332)"/>
       <text style="font: 6px 'Arial', 'Helvetica', sans-serif" transform="translate(94.21115 117.286457)">Late IA</text>
      </g>
     </g>
     <g id="xtick_2">
      <g id="line2d_2"/>
      <g id="text_2">
       <text style="font: 6px 'Arial', 'Helvetica', sans-serif" transform="translate(149.709792 104.594207)"/>
       <text style="font: 6px 'Arial', 'Helvetica', sans-serif" transform="translate(149.709792 110.940332)"/>
       <text style="font: 6px 'Arial', 'Helvetica', sans-serif" transform="translate(137.873854 117.374207)">Early RS</text>
      </g>
     </g>
     <g id="xtick_3">
      <g id="line2d_3"/>
      <g id="text_3">
       <text style="font: 6px 'Arial', 'Helvetica', sans-serif" transform="translate(195.702183 104.594207)"/>
       <text style="font: 6px 'Arial', 'Helvetica', sans-serif" transform="translate(195.702183 110.940332)"/>
       <text style="font: 6px 'Arial', 'Helvetica', sans-serif" transform="translate(184.862808 117.286457)">Late RS</text>
      </g>
     </g>
     <g id="xtick_4">
      <g id="line2d_4"/>
      <g id="text_4">
       <text style="font: 6px 'Arial', 'Helvetica', sans-serif" transform="translate(57.725009 104.594207)"/>
       <text style="font: 6px 'Arial', 'Helvetica', sans-serif" transform="translate(57.725009 110.940332)"/>
       <text style="font: 6px 'Arial', 'Helvetica', sans-serif" transform="translate(47.222197 117.286457)">Early IA</text>
      </g>
     </g>
    </g>
    <g id="matplotlib.axis_2"/>
    <g id="patch_4">
     <path d="M 26.296875 96.79952 
L 211.79952 96.79952 
" style="fill: none; stroke: #000000; stroke-width: 0.5; stroke-linejoin: miter; stroke-linecap: square"/>
    </g>
   </g>
   <g id="axes_3">
    <g id="patch_5">
     <path d="M 26.296875 96.79952 
L 211.79952 96.79952 
L 211.79952 96.79952 
L 26.296875 96.79952 
z
" style="fill: #ffffff"/>
    </g>
    <g id="matplotlib.axis_3">
     <g id="xtick_5">
      <g id="line2d_5">
       <defs>
        <path id="m89f6e23d26" d="M 0 0 
L 0 25 
" style="stroke: #000000"/>
       </defs>
       <g>
        <use xlink:href="#m89f6e23d26" x="88.386603" y="96.79952" style="stroke: #000000"/>
       </g>
      </g>
     </g>
     <g id="xtick_6">
      <g id="line2d_6">
       <g>
        <use xlink:href="#m89f6e23d26" x="119.048197" y="96.79952" style="stroke: #000000"/>
       </g>
      </g>
     </g>
     <g id="xtick_7">
      <g id="line2d_7">
       <g>
        <use xlink:href="#m89f6e23d26" x="180.371386" y="96.79952" style="stroke: #000000"/>
       </g>
      </g>
     </g>
    </g>
    <g id="matplotlib.axis_4"/>
    <g id="patch_6">
     <path d="M 26.296875 96.79952 
L 211.79952 96.79952 
" style="fill: none; stroke: #000000; stroke-width: 0.5; stroke-linejoin: miter; stroke-linecap: square"/>
    </g>
   </g>
   <g id="line2d_8"/>
   <g id="line2d_9">
    <path d="M 34.728813 49.942386 
L 34.728813 44.391028 
" clip-path="url(#p00e5a5a163)" style="fill: none; stroke: #000000; stroke-width: 1.53; stroke-linecap: square"/>
   </g>
   <g id="line2d_10">
    <path d="M 65.390408 37.681946 
L 65.390408 26.582704 
" clip-path="url(#p00e5a5a163)" style="fill: none; stroke: #000000; stroke-width: 1.53; stroke-linecap: square"/>
   </g>
   <g id="line2d_11">
    <path d="M 96.052002 56.563018 
L 96.052002 51.57166 
" clip-path="url(#p00e5a5a163)" style="fill: none; stroke: #000000; stroke-width: 1.53; stroke-linecap: square"/>
   </g>
   <g id="line2d_12">
    <path d="M 126.713596 49.540132 
L 126.713596 41.941594 
" clip-path="url(#p00e5a5a163)" style="fill: none; stroke: #000000; stroke-width: 1.53; stroke-linecap: square"/>
   </g>
   <g id="line2d_13">
    <path d="M 157.37519 47.673393 
L 157.37519 35.631694 
" clip-path="url(#p00e5a5a163)" style="fill: none; stroke: #000000; stroke-width: 1.53; stroke-linecap: square"/>
   </g>
   <g id="line2d_14">
    <path d="M 188.036784 60.036221 
L 188.036784 51.224639 
" clip-path="url(#p00e5a5a163)" style="fill: none; stroke: #000000; stroke-width: 1.53; stroke-linecap: square"/>
   </g>
   <g id="PathCollection_1">
    <defs>
     <path id="maa2d17dece" d="M 0 1.917571 
C 0.508546 1.917571 0.996331 1.715523 1.355927 1.355927 
C 1.715523 0.996331 1.917571 0.508546 1.917571 0 
C 1.917571 -0.508546 1.715523 -0.996331 1.355927 -1.355927 
C 0.996331 -1.715523 0.508546 -1.917571 0 -1.917571 
C -0.508546 -1.917571 -0.996331 -1.715523 -1.355927 -1.355927 
C -1.715523 -0.996331 -1.917571 -0.508546 -1.917571 0 
C -1.917571 0.508546 -1.715523 0.996331 -1.355927 1.355927 
C -0.996331 1.715523 -0.508546 1.917571 0 1.917571 
z
" style="stroke: #000000; stroke-width: 0.5"/>
    </defs>
    <g clip-path="url(#p00e5a5a163)">
     <use xlink:href="#maa2d17dece" x="34.728813" y="47.166707" style="stroke: #000000; stroke-width: 0.5"/>
     <use xlink:href="#maa2d17dece" x="65.390408" y="32.132325" style="stroke: #000000; stroke-width: 0.5"/>
     <use xlink:href="#maa2d17dece" x="96.052002" y="54.067339" style="stroke: #000000; stroke-width: 0.5"/>
     <use xlink:href="#maa2d17dece" x="126.713596" y="45.740863" style="stroke: #000000; stroke-width: 0.5"/>
     <use xlink:href="#maa2d17dece" x="157.37519" y="41.652544" style="stroke: #000000; stroke-width: 0.5"/>
     <use xlink:href="#maa2d17dece" x="188.036784" y="55.63043" style="stroke: #000000; stroke-width: 0.5"/>
    </g>
   </g>
   <g id="matplotlib.axis_5">
    <g id="xtick_8">
     <g id="line2d_15">
      <defs>
       <path id="m3b9bde17fc" d="M 0 0 
L 0 3 
" style="stroke: #000000; stroke-width: 0.5"/>
      </defs>
      <g>
       <use xlink:href="#m3b9bde17fc" x="42.394212" y="96.79952" style="stroke: #000000; stroke-width: 0.5"/>
      </g>
     </g>
     <g id="text_5">
      <text style="font: 6px 'Arial', 'Helvetica', sans-serif; text-anchor: middle" x="42.394212" y="107.594207" transform="rotate(-0 42.394212 107.594207)">Correct</text>
     </g>
    </g>
    <g id="xtick_9">
     <g id="line2d_16">
      <g>
       <use xlink:href="#m3b9bde17fc" x="73.055806" y="96.79952" style="stroke: #000000; stroke-width: 0.5"/>
      </g>
     </g>
     <g id="text_6">
      <text style="font: 6px 'Arial', 'Helvetica', sans-serif; text-anchor: middle" x="73.055806" y="107.594207" transform="rotate(-0 73.055806 107.594207)">Error</text>
     </g>
    </g>
    <g id="xtick_10">
     <g id="line2d_17">
      <g>
       <use xlink:href="#m3b9bde17fc" x="103.7174" y="96.79952" style="stroke: #000000; stroke-width: 0.5"/>
      </g>
     </g>
     <g id="text_7">
      <text style="font: 6px 'Arial', 'Helvetica', sans-serif; text-anchor: middle" x="103.7174" y="107.594207" transform="rotate(-0 103.7174 107.594207)">Correct</text>
     </g>
    </g>
    <g id="xtick_11">
     <g id="line2d_18">
      <g>
       <use xlink:href="#m3b9bde17fc" x="134.378995" y="96.79952" style="stroke: #000000; stroke-width: 0.5"/>
      </g>
     </g>
     <g id="text_8">
      <text style="font: 6px 'Arial', 'Helvetica', sans-serif; text-anchor: middle" x="134.378995" y="107.594207" transform="rotate(-0 134.378995 107.594207)">Correct</text>
     </g>
    </g>
    <g id="xtick_12">
     <g id="line2d_19">
      <g>
       <use xlink:href="#m3b9bde17fc" x="165.040589" y="96.79952" style="stroke: #000000; stroke-width: 0.5"/>
      </g>
     </g>
     <g id="text_9">
      <text style="font: 6px 'Arial', 'Helvetica', sans-serif; text-anchor: middle" x="165.040589" y="107.594207" transform="rotate(-0 165.040589 107.594207)">Error</text>
     </g>
    </g>
    <g id="xtick_13">
     <g id="line2d_20">
      <g>
       <use xlink:href="#m3b9bde17fc" x="195.702183" y="96.79952" style="stroke: #000000; stroke-width: 0.5"/>
      </g>
     </g>
     <g id="text_10">
      <text style="font: 6px 'Arial', 'Helvetica', sans-serif; text-anchor: middle" x="195.702183" y="107.594207" transform="rotate(-0 195.702183 107.594207)">Correct</text>
     </g>
    </g>
   </g>
   <g id="matplotlib.axis_6">
    <g id="ytick_1">
     <g id="line2d_21">
      <defs>
       <path id="m2eefcccdf7" d="M 0 0 
L -3 0 
" style="stroke: #000000; stroke-width: 0.5"/>
      </defs>
      <g>
       <use xlink:href="#m2eefcccdf7" x="26.296875" y="96.79952" style="stroke: #000000; stroke-width: 0.5"/>
      </g>
     </g>
     <g id="text_11">
      <text style="font: 6px 'Arial', 'Helvetica', sans-serif; text-anchor: end" x="21.296875" y="98.946864" transform="rotate(-0 21.296875 98.946864)">0</text>
     </g>
    </g>
    <g id="ytick_2">
     <g id="line2d_22">
      <g>
       <use xlink:href="#m2eefcccdf7" x="26.296875" y="79.673178" style="stroke: #000000; stroke-width: 0.5"/>
      </g>
     </g>
     <g id="text_12">
      <text style="font: 6px 'Arial', 'Helvetica', sans-serif; text-anchor: end" x="21.296875" y="81.820522" transform="rotate(-0 21.296875 81.820522)">20</text>
     </g>
    </g>
    <g id="ytick_3">
     <g id="line2d_23">
      <g>
       <use xlink:href="#m2eefcccdf7" x="26.296875" y="62.546837" style="stroke: #000000; stroke-width: 0.5"/>
      </g>
     </g>
     <g id="text_13">
      <text style="font: 6px 'Arial', 'Helvetica', sans-serif; text-anchor: end" x="21.296875" y="64.694181" transform="rotate(-0 21.296875 64.694181)">40</text>
     </g>
    </g>
    <g id="ytick_4">
     <g id="line2d_24">
      <g>
       <use xlink:href="#m2eefcccdf7" x="26.296875" y="45.420495" style="stroke: #000000; stroke-width: 0.5"/>
      </g>
     </g>
     <g id="text_14">
      <text style="font: 6px 'Arial', 'Helvetica', sans-serif; text-anchor: end" x="21.296875" y="47.567839" transform="rotate(-0 21.296875 47.567839)">60</text>
     </g>
    </g>
    <g id="ytick_5">
     <g id="line2d_25">
      <g>
       <use xlink:href="#m2eefcccdf7" x="26.296875" y="28.294154" style="stroke: #000000; stroke-width: 0.5"/>
      </g>
     </g>
     <g id="text_15">
      <text style="font: 6px 'Arial', 'Helvetica', sans-serif; text-anchor: end" x="21.296875" y="30.441498" transform="rotate(-0 21.296875 30.441498)">80</text>
     </g>
    </g>
    <g id="ytick_6">
     <g id="line2d_26">
      <g>
       <use xlink:href="#m2eefcccdf7" x="26.296875" y="11.167812" style="stroke: #000000; stroke-width: 0.5"/>
      </g>
     </g>
     <g id="text_16">
      <text style="font: 6px 'Arial', 'Helvetica', sans-serif; text-anchor: end" x="21.296875" y="13.315156" transform="rotate(-0 21.296875 13.315156)">100</text>
     </g>
    </g>
    <g id="text_17">
     <text style="font: 6px 'Arial', 'Helvetica', sans-serif; text-anchor: middle" x="6.094688" y="53.983666" transform="rotate(-90 6.094688 53.983666)">% cells active in trials</text>
    </g>
   </g>
   <g id="line2d_27"/>
   <g id="line2d_28">
    <path d="M 38.561513 48.125588 
L 38.561513 42.481058 
" clip-path="url(#p00e5a5a163)" style="fill: none; stroke: #808080; stroke-width: 1.53; stroke-linecap: square"/>
   </g>
   <g id="line2d_29">
    <path d="M 69.223107 42.089502 
L 69.223107 31.157762 
" clip-path="url(#p00e5a5a163)" style="fill: none; stroke: #808080; stroke-width: 1.53; stroke-linecap: square"/>
   </g>
   <g id="line2d_30">
    <path d="M 99.884701 51.047392 
L 99.884701 46.067333 
" clip-path="url(#p00e5a5a163)" style="fill: none; stroke: #808080; stroke-width: 1.53; stroke-linecap: square"/>
   </g>
   <g id="line2d_31">
    <path d="M 130.546295 42.955096 
L 130.546295 37.099182 
" clip-path="url(#p00e5a5a163)" style="fill: none; stroke: #808080; stroke-width: 1.53; stroke-linecap: square"/>
   </g>
   <g id="line2d_32">
    <path d="M 161.20789 41.183757 
L 161.20789 33.65226 
" clip-path="url(#p00e5a5a163)" style="fill: none; stroke: #808080; stroke-width: 1.53; stroke-linecap: square"/>
   </g>
   <g id="line2d_33">
    <path d="M 191.869484 52.696803 
L 191.869484 47.137783 
" clip-path="url(#p00e5a5a163)" style="fill: none; stroke: #808080; stroke-width: 1.53; stroke-linecap: square"/>
   </g>
   <g id="PathCollection_2">
    <defs>
     <path id="mbe42ba24c3" d="M 0 1.917571 
C 0.508546 1.917571 0.996331 1.715523 1.355927 1.355927 
C 1.715523 0.996331 1.917571 0.508546 1.917571 0 
C 1.917571 -0.508546 1.715523 -0.996331 1.355927 -1.355927 
C 0.996331 -1.715523 0.508546 -1.917571 0 -1.917571 
C -0.508546 -1.917571 -0.996331 -1.715523 -1.355927 -1.355927 
C -1.715523 -0.996331 -1.917571 -0.508546 -1.917571 0 
C -1.917571 0.508546 -1.715523 0.996331 -1.355927 1.355927 
C -0.996331 1.715523 -0.508546 1.917571 0 1.917571 
z
" style="stroke: #000000; stroke-width: 0.5"/>
    </defs>
    <g clip-path="url(#p00e5a5a163)">
     <use xlink:href="#mbe42ba24c3" x="38.561513" y="45.303323" style="fill: #808080; stroke: #000000; stroke-width: 0.5"/>
     <use xlink:href="#mbe42ba24c3" x="69.223107" y="36.623632" style="fill: #808080; stroke: #000000; stroke-width: 0.5"/>
     <use xlink:href="#mbe42ba24c3" x="99.884701" y="48.557362" style="fill: #808080; stroke: #000000; stroke-width: 0.5"/>
     <use xlink:href="#mbe42ba24c3" x="130.546295" y="40.027139" style="fill: #808080; stroke: #000000; stroke-width: 0.5"/>
     <use xlink:href="#mbe42ba24c3" x="161.20789" y="37.418009" style="fill: #808080; stroke: #000000; stroke-width: 0.5"/>
     <use xlink:href="#mbe42ba24c3" x="191.869484" y="49.917293" style="fill: #808080; stroke: #000000; stroke-width: 0.5"/>
    </g>
   </g>
   <g id="line2d_34">
    <path d="M 34.728813 31.862282 
L 34.728813 31.862282 
L 42.394212 31.862282 
L 42.394212 31.862282 
" style="fill: none; stroke: #000000; stroke-width: 0.75; stroke-linecap: square"/>
   </g>
   <g id="line2d_35">
    <path d="M 96.052002 38.974917 
L 96.052002 38.974917 
L 103.7174 38.974917 
L 103.7174 38.974917 
" style="fill: none; stroke: #000000; stroke-width: 0.75; stroke-linecap: square"/>
   </g>
   <g id="line2d_36">
    <path d="M 126.713596 25.531093 
L 126.713596 25.531093 
L 134.378995 25.531093 
L 134.378995 25.531093 
" style="fill: none; stroke: #000000; stroke-width: 0.75; stroke-linecap: square"/>
   </g>
   <g id="patch_7">
    <path d="M 26.296875 96.79952 
L 26.296875 11.167812 
" style="fill: none; stroke: #000000; stroke-width: 0.5; stroke-linejoin: miter; stroke-linecap: square"/>
   </g>
   <g id="patch_8">
    <path d="M 26.296875 96.79952 
L 211.79952 96.79952 
" style="fill: none; stroke: #000000; stroke-width: 0.5; stroke-linejoin: miter; stroke-linecap: square"/>
   </g>
   <g id="line2d_37"/>
   <g id="line2d_38">
    <path d="M 42.394212 40.51778 
L 42.394212 35.28755 
" clip-path="url(#p00e5a5a163)" style="fill: none; stroke: #ff0000; stroke-width: 1.53; stroke-linecap: square"/>
   </g>
   <g id="line2d_39">
    <path d="M 73.055806 30.485201 
L 73.055806 18.808554 
" clip-path="url(#p00e5a5a163)" style="fill: none; stroke: #ff0000; stroke-width: 1.53; stroke-linecap: square"/>
   </g>
   <g id="line2d_40">
    <path d="M 103.7174 47.570629 
L 103.7174 42.400186 
" clip-path="url(#p00e5a5a163)" style="fill: none; stroke: #ff0000; stroke-width: 1.53; stroke-linecap: square"/>
   </g>
   <g id="line2d_41">
    <path d="M 134.378995 35.778852 
L 134.378995 28.956361 
" clip-path="url(#p00e5a5a163)" style="fill: none; stroke: #ff0000; stroke-width: 1.53; stroke-linecap: square"/>
   </g>
   <g id="line2d_42">
    <path d="M 165.040589 37.204031 
L 165.040589 30.501376 
" clip-path="url(#p00e5a5a163)" style="fill: none; stroke: #ff0000; stroke-width: 1.53; stroke-linecap: square"/>
   </g>
   <g id="line2d_43">
    <path d="M 195.702183 49.683078 
L 195.702183 42.813707 
" clip-path="url(#p00e5a5a163)" style="fill: none; stroke: #ff0000; stroke-width: 1.53; stroke-linecap: square"/>
   </g>
   <g id="PathCollection_3">
    <defs>
     <path id="m2fe92bad1e" d="M 0 1.917571 
C 0.508546 1.917571 0.996331 1.715523 1.355927 1.355927 
C 1.715523 0.996331 1.917571 0.508546 1.917571 0 
C 1.917571 -0.508546 1.715523 -0.996331 1.355927 -1.355927 
C 0.996331 -1.715523 0.508546 -1.917571 0 -1.917571 
C -0.508546 -1.917571 -0.996331 -1.715523 -1.355927 -1.355927 
C -1.715523 -0.996331 -1.917571 -0.508546 -1.917571 0 
C -1.917571 0.508546 -1.715523 0.996331 -1.355927 1.355927 
C -0.996331 1.715523 -0.508546 1.917571 0 1.917571 
z
" style="stroke: #000000; stroke-width: 0.5"/>
    </defs>
    <g clip-path="url(#p00e5a5a163)">
     <use xlink:href="#m2fe92bad1e" x="42.394212" y="37.902665" style="fill: #ff0000; stroke: #000000; stroke-width: 0.5"/>
     <use xlink:href="#m2fe92bad1e" x="73.055806" y="24.646878" style="fill: #ff0000; stroke: #000000; stroke-width: 0.5"/>
     <use xlink:href="#m2fe92bad1e" x="103.7174" y="44.985408" style="fill: #ff0000; stroke: #000000; stroke-width: 0.5"/>
     <use xlink:href="#m2fe92bad1e" x="134.378995" y="32.367607" style="fill: #ff0000; stroke: #000000; stroke-width: 0.5"/>
     <use xlink:href="#m2fe92bad1e" x="165.040589" y="33.852703" style="fill: #ff0000; stroke: #000000; stroke-width: 0.5"/>
     <use xlink:href="#m2fe92bad1e" x="195.702183" y="46.248392" style="fill: #ff0000; stroke: #000000; stroke-width: 0.5"/>
    </g>
   </g>
   <g id="text_18">
    <g id="patch_9">
     <path d="M 36.604638 35.002772 
L 40.518388 35.002772 
L 40.518388 26.886522 
L 36.604638 26.886522 
L 36.604638 35.002772 
z
" style="fill: none"/>
    </g>
    <text style="font: 8px 'Arial', 'Helvetica', sans-serif; text-anchor: middle" x="38.561513" y="33.012772" transform="rotate(-0 38.561513 33.012772)">*</text>
   </g>
   <g id="text_19">
    <g id="patch_10">
     <path d="M 97.927826 42.115408 
L 101.841576 42.115408 
L 101.841576 33.999158 
L 97.927826 33.999158 
L 97.927826 42.115408 
z
" style="fill: none"/>
    </g>
    <text style="font: 8px 'Arial', 'Helvetica', sans-serif; text-anchor: middle" x="99.884701" y="40.125408" transform="rotate(-0 99.884701 40.125408)">*</text>
   </g>
   <g id="text_20">
    <g id="patch_11">
     <path d="M 128.58942 28.671584 
L 132.50317 28.671584 
L 132.50317 20.555334 
L 128.58942 20.555334 
L 128.58942 28.671584 
z
" style="fill: none"/>
    </g>
    <text style="font: 8px 'Arial', 'Helvetica', sans-serif; text-anchor: middle" x="130.546295" y="26.681584" transform="rotate(-0 130.546295 26.681584)">*</text>
   </g>
   <g id="text_21">
    <text style="font: 6px 'Arial', 'Helvetica', sans-serif; text-anchor: middle" x="119.048198" y="6.167812" transform="rotate(-0 119.048198 6.167812)">Mean % of cells active in stage that are in stage ensemble</text>
   </g>
   <g id="line2d_44"/>
   <g id="line2d_45">
    <path d="M 46.226911 42.119386 
L 46.226911 36.136339 
" clip-path="url(#p00e5a5a163)" style="fill: none; stroke: #1e90ff; stroke-width: 1.53; stroke-linecap: square"/>
   </g>
   <g id="line2d_46">
    <path d="M 76.888505 34.388846 
L 76.888505 26.160657 
" clip-path="url(#p00e5a5a163)" style="fill: none; stroke: #1e90ff; stroke-width: 1.53; stroke-linecap: square"/>
   </g>
   <g id="line2d_47">
    <path d="M 107.5501 51.522856 
L 107.5501 45.463988 
" clip-path="url(#p00e5a5a163)" style="fill: none; stroke: #1e90ff; stroke-width: 1.53; stroke-linecap: square"/>
   </g>
   <g id="line2d_48">
    <path d="M 138.211694 42.888802 
L 138.211694 36.144417 
" clip-path="url(#p00e5a5a163)" style="fill: none; stroke: #1e90ff; stroke-width: 1.53; stroke-linecap: square"/>
   </g>
   <g id="line2d_49">
    <path d="M 168.873288 39.310597 
L 168.873288 31.161006 
" clip-path="url(#p00e5a5a163)" style="fill: none; stroke: #1e90ff; stroke-width: 1.53; stroke-linecap: square"/>
   </g>
   <g id="line2d_50">
    <path d="M 199.534882 42.893331 
L 199.534882 35.280174 
" clip-path="url(#p00e5a5a163)" style="fill: none; stroke: #1e90ff; stroke-width: 1.53; stroke-linecap: square"/>
   </g>
   <g id="PathCollection_4">
    <defs>
     <path id="m877aa31b14" d="M 0 1.917571 
C 0.508546 1.917571 0.996331 1.715523 1.355927 1.355927 
C 1.715523 0.996331 1.917571 0.508546 1.917571 0 
C 1.917571 -0.508546 1.715523 -0.996331 1.355927 -1.355927 
C 0.996331 -1.715523 0.508546 -1.917571 0 -1.917571 
C -0.508546 -1.917571 -0.996331 -1.715523 -1.355927 -1.355927 
C -1.715523 -0.996331 -1.917571 -0.508546 -1.917571 0 
C -1.917571 0.508546 -1.715523 0.996331 -1.355927 1.355927 
C -0.996331 1.715523 -0.508546 1.917571 0 1.917571 
z
" style="stroke: #000000; stroke-width: 0.5"/>
    </defs>
    <g clip-path="url(#p00e5a5a163)">
     <use xlink:href="#m877aa31b14" x="46.226911" y="39.127862" style="fill: #1e90ff; stroke: #000000; stroke-width: 0.5"/>
     <use xlink:href="#m877aa31b14" x="76.888505" y="30.274751" style="fill: #1e90ff; stroke: #000000; stroke-width: 0.5"/>
     <use xlink:href="#m877aa31b14" x="107.5501" y="48.493422" style="fill: #1e90ff; stroke: #000000; stroke-width: 0.5"/>
     <use xlink:href="#m877aa31b14" x="138.211694" y="39.51661" style="fill: #1e90ff; stroke: #000000; stroke-width: 0.5"/>
     <use xlink:href="#m877aa31b14" x="168.873288" y="35.235802" style="fill: #1e90ff; stroke: #000000; stroke-width: 0.5"/>
     <use xlink:href="#m877aa31b14" x="199.534882" y="39.086753" style="fill: #1e90ff; stroke: #000000; stroke-width: 0.5"/>
    </g>
   </g>
   <g id="line2d_51"/>
   <g id="line2d_52">
    <path d="M 50.059611 40.520499 
L 50.059611 36.612172 
" clip-path="url(#p00e5a5a163)" style="fill: none; stroke: #32cd32; stroke-width: 1.53; stroke-linecap: square"/>
   </g>
   <g id="line2d_53">
    <path d="M 80.721205 31.27559 
L 80.721205 24.28663 
" clip-path="url(#p00e5a5a163)" style="fill: none; stroke: #32cd32; stroke-width: 1.53; stroke-linecap: square"/>
   </g>
   <g id="line2d_54">
    <path d="M 111.382799 44.061557 
L 111.382799 40.11919 
" clip-path="url(#p00e5a5a163)" style="fill: none; stroke: #32cd32; stroke-width: 1.53; stroke-linecap: square"/>
   </g>
   <g id="line2d_55">
    <path d="M 142.044393 42.389234 
L 142.044393 32.607692 
" clip-path="url(#p00e5a5a163)" style="fill: none; stroke: #32cd32; stroke-width: 1.53; stroke-linecap: square"/>
   </g>
   <g id="line2d_56">
    <path d="M 172.705987 37.309896 
L 172.705987 30.106972 
" clip-path="url(#p00e5a5a163)" style="fill: none; stroke: #32cd32; stroke-width: 1.53; stroke-linecap: square"/>
   </g>
   <g id="line2d_57">
    <path d="M 203.367582 54.153346 
L 203.367582 45.879025 
" clip-path="url(#p00e5a5a163)" style="fill: none; stroke: #32cd32; stroke-width: 1.53; stroke-linecap: square"/>
   </g>
   <g id="PathCollection_5">
    <defs>
     <path id="m6299332364" d="M 0 1.917571 
C 0.508546 1.917571 0.996331 1.715523 1.355927 1.355927 
C 1.715523 0.996331 1.917571 0.508546 1.917571 0 
C 1.917571 -0.508546 1.715523 -0.996331 1.355927 -1.355927 
C 0.996331 -1.715523 0.508546 -1.917571 0 -1.917571 
C -0.508546 -1.917571 -0.996331 -1.715523 -1.355927 -1.355927 
C -1.715523 -0.996331 -1.917571 -0.508546 -1.917571 0 
C -1.917571 0.508546 -1.715523 0.996331 -1.355927 1.355927 
C -0.996331 1.715523 -0.508546 1.917571 0 1.917571 
z
" style="stroke: #000000; stroke-width: 0.5"/>
    </defs>
    <g clip-path="url(#p00e5a5a163)">
     <use xlink:href="#m6299332364" x="50.059611" y="38.566335" style="fill: #32cd32; stroke: #000000; stroke-width: 0.5"/>
     <use xlink:href="#m6299332364" x="80.721205" y="27.78111" style="fill: #32cd32; stroke: #000000; stroke-width: 0.5"/>
     <use xlink:href="#m6299332364" x="111.382799" y="42.090374" style="fill: #32cd32; stroke: #000000; stroke-width: 0.5"/>
     <use xlink:href="#m6299332364" x="142.044393" y="37.498463" style="fill: #32cd32; stroke: #000000; stroke-width: 0.5"/>
     <use xlink:href="#m6299332364" x="172.705987" y="33.708434" style="fill: #32cd32; stroke: #000000; stroke-width: 0.5"/>
     <use xlink:href="#m6299332364" x="203.367582" y="50.016186" style="fill: #32cd32; stroke: #000000; stroke-width: 0.5"/>
    </g>
   </g>
  </g>
 </g>
 <defs>
  <clipPath id="p00e5a5a163">
   <rect x="26.296875" y="11.167812" width="185.502645" height="85.631708"/>
  </clipPath>
 </defs>
</svg>
