<?xml version="1.0" encoding="utf-8" standalone="no"?>
<!DOCTYPE svg PUBLIC "-//W3C//DTD SVG 1.1//EN"
  "http://www.w3.org/Graphics/SVG/1.1/DTD/svg11.dtd">
<svg xmlns:xlink="http://www.w3.org/1999/xlink" width="195.59952pt" height="105.604418pt" viewBox="0 0 195.59952 105.604418" xmlns="http://www.w3.org/2000/svg" version="1.1">
 <metadata>
  <rdf:RDF xmlns:dc="http://purl.org/dc/elements/1.1/" xmlns:cc="http://creativecommons.org/ns#" xmlns:rdf="http://www.w3.org/1999/02/22-rdf-syntax-ns#">
   <cc:Work>
    <dc:type rdf:resource="http://purl.org/dc/dcmitype/StillImage"/>
    <dc:date>2025-08-28T21:45:31.963649</dc:date>
    <dc:format>image/svg+xml</dc:format>
    <dc:creator>
     <cc:Agent>
      <dc:title>Matplotlib v3.7.0, https://matplotlib.org/</dc:title>
     </cc:Agent>
    </dc:creator>
   </cc:Work>
  </rdf:RDF>
 </metadata>
 <defs>
  <style type="text/css">*{stroke-linejoin: round; stroke-linecap: butt}</style>
 </defs>
 <g id="figure_1">
  <g id="patch_1">
   <path d="M 0 105.604418 
L 195.59952 105.604418 
L 195.59952 0 
L 0 0 
z
" style="fill: #ffffff"/>
  </g>
  <g id="axes_1">
   <g id="patch_2">
    <path d="M 19.62375 78.804418 
L 193.79952 78.804418 
L 193.79952 13.936733 
L 19.62375 13.936733 
z
" style="fill: #ffffff"/>
   </g>
   <g id="axes_2">
    <g id="patch_3">
     <path d="M 19.62375 78.804418 
L 193.79952 78.804418 
L 193.79952 78.804418 
L 19.62375 78.804418 
z
" style="fill: #ffffff"/>
    </g>
    <g id="matplotlib.axis_1">
     <g id="xtick_1">
      <g id="line2d_1"/>
      <g id="text_1">
       <text style="font: 6px 'Arial', 'Helvetica', sans-serif" transform="translate(178.685094 86.599106)"/>
       <text style="font: 6px 'Arial', 'Helvetica', sans-serif" transform="translate(178.685094 92.945231)"/>
       <text style="font: 6px 'Arial', 'Helvetica', sans-serif" transform="translate(167.845719 99.291356)">Late RS</text>
      </g>
     </g>
     <g id="xtick_2">
      <g id="line2d_2"/>
      <g id="text_2">
       <text style="font: 6px 'Arial', 'Helvetica', sans-serif" transform="translate(92.316943 86.599106)"/>
       <text style="font: 6px 'Arial', 'Helvetica', sans-serif" transform="translate(92.316943 92.945231)"/>
       <text style="font: 6px 'Arial', 'Helvetica', sans-serif" transform="translate(82.810693 99.291356)">Late IA</text>
      </g>
     </g>
     <g id="xtick_3">
      <g id="line2d_3"/>
      <g id="text_3">
       <text style="font: 6px 'Arial', 'Helvetica', sans-serif" transform="translate(135.501018 86.599106)"/>
       <text style="font: 6px 'Arial', 'Helvetica', sans-serif" transform="translate(135.501018 92.945231)"/>
       <text style="font: 6px 'Arial', 'Helvetica', sans-serif" transform="translate(123.665081 99.379106)">Early RS</text>
      </g>
     </g>
     <g id="xtick_4">
      <g id="line2d_4"/>
      <g id="text_4">
       <text style="font: 6px 'Arial', 'Helvetica', sans-serif" transform="translate(49.132868 86.599106)"/>
       <text style="font: 6px 'Arial', 'Helvetica', sans-serif" transform="translate(49.132868 92.945231)"/>
       <text style="font: 6px 'Arial', 'Helvetica', sans-serif" transform="translate(38.630056 99.291356)">Early IA</text>
      </g>
     </g>
    </g>
    <g id="matplotlib.axis_2"/>
    <g id="patch_4">
     <path d="M 19.62375 78.804418 
L 193.79952 78.804418 
" style="fill: none; stroke: #000000; stroke-width: 0.5; stroke-linejoin: miter; stroke-linecap: square"/>
    </g>
   </g>
   <g id="axes_3">
    <g id="patch_5">
     <path d="M 19.62375 78.804418 
L 193.79952 78.804418 
L 193.79952 78.804418 
L 19.62375 78.804418 
z
" style="fill: #ffffff"/>
    </g>
    <g id="matplotlib.axis_3">
     <g id="xtick_5">
      <g id="line2d_5">
       <defs>
        <path id="md6caf9c10d" d="M 0 0 
L 0 25 
" style="stroke: #000000"/>
       </defs>
       <g>
        <use xlink:href="#md6caf9c10d" x="77.922252" y="78.804418" style="stroke: #000000"/>
       </g>
      </g>
     </g>
     <g id="xtick_6">
      <g id="line2d_6">
       <g>
        <use xlink:href="#md6caf9c10d" x="106.711635" y="78.804418" style="stroke: #000000"/>
       </g>
      </g>
     </g>
     <g id="xtick_7">
      <g id="line2d_7">
       <g>
        <use xlink:href="#md6caf9c10d" x="164.290402" y="78.804418" style="stroke: #000000"/>
       </g>
      </g>
     </g>
    </g>
    <g id="matplotlib.axis_4"/>
    <g id="patch_6">
     <path d="M 19.62375 78.804418 
L 193.79952 78.804418 
" style="fill: none; stroke: #000000; stroke-width: 0.5; stroke-linejoin: miter; stroke-linecap: square"/>
    </g>
   </g>
   <g id="line2d_8"/>
   <g id="line2d_9">
    <path d="M 27.54083 36.659764 
L 27.54083 33.301893 
" clip-path="url(#p1e00240f54)" style="fill: none; stroke: #000000; stroke-width: 1.53; stroke-linecap: square"/>
   </g>
   <g id="line2d_10">
    <path d="M 56.330214 32.932135 
L 56.330214 26.575973 
" clip-path="url(#p1e00240f54)" style="fill: none; stroke: #000000; stroke-width: 1.53; stroke-linecap: square"/>
   </g>
   <g id="line2d_11">
    <path d="M 85.119597 45.709303 
L 85.119597 42.992443 
" clip-path="url(#p1e00240f54)" style="fill: none; stroke: #000000; stroke-width: 1.53; stroke-linecap: square"/>
   </g>
   <g id="line2d_12">
    <path d="M 113.908981 49.565244 
L 113.908981 46.276923 
" clip-path="url(#p1e00240f54)" style="fill: none; stroke: #000000; stroke-width: 1.53; stroke-linecap: square"/>
   </g>
   <g id="line2d_13">
    <path d="M 142.698364 47.411906 
L 142.698364 43.276809 
" clip-path="url(#p1e00240f54)" style="fill: none; stroke: #000000; stroke-width: 1.53; stroke-linecap: square"/>
   </g>
   <g id="line2d_14">
    <path d="M 171.487748 57.143921 
L 171.487748 55.076842 
" clip-path="url(#p1e00240f54)" style="fill: none; stroke: #000000; stroke-width: 1.53; stroke-linecap: square"/>
   </g>
   <g id="PathCollection_1">
    <defs>
     <path id="m78fc05eab2" d="M 0 1.917571 
C 0.508546 1.917571 0.996331 1.715523 1.355927 1.355927 
C 1.715523 0.996331 1.917571 0.508546 1.917571 0 
C 1.917571 -0.508546 1.715523 -0.996331 1.355927 -1.355927 
C 0.996331 -1.715523 0.508546 -1.917571 0 -1.917571 
C -0.508546 -1.917571 -0.996331 -1.715523 -1.355927 -1.355927 
C -1.715523 -0.996331 -1.917571 -0.508546 -1.917571 0 
C -1.917571 0.508546 -1.715523 0.996331 -1.355927 1.355927 
C -0.996331 1.715523 -0.508546 1.917571 0 1.917571 
z
" style="stroke: #000000; stroke-width: 0.5"/>
    </defs>
    <g clip-path="url(#p1e00240f54)">
     <use xlink:href="#m78fc05eab2" x="27.54083" y="34.980829" style="stroke: #000000; stroke-width: 0.5"/>
     <use xlink:href="#m78fc05eab2" x="56.330214" y="29.754054" style="stroke: #000000; stroke-width: 0.5"/>
     <use xlink:href="#m78fc05eab2" x="85.119597" y="44.350873" style="stroke: #000000; stroke-width: 0.5"/>
     <use xlink:href="#m78fc05eab2" x="113.908981" y="47.921083" style="stroke: #000000; stroke-width: 0.5"/>
     <use xlink:href="#m78fc05eab2" x="142.698364" y="45.344357" style="stroke: #000000; stroke-width: 0.5"/>
     <use xlink:href="#m78fc05eab2" x="171.487748" y="56.110382" style="stroke: #000000; stroke-width: 0.5"/>
    </g>
   </g>
   <g id="matplotlib.axis_5">
    <g id="xtick_8">
     <g id="line2d_15">
      <defs>
       <path id="m3eb29497c5" d="M 0 0 
L 0 3 
" style="stroke: #000000; stroke-width: 0.5"/>
      </defs>
      <g>
       <use xlink:href="#m3eb29497c5" x="34.738176" y="78.804418" style="stroke: #000000; stroke-width: 0.5"/>
      </g>
     </g>
     <g id="text_5">
      <text style="font: 6px 'Arial', 'Helvetica', sans-serif; text-anchor: middle" x="34.738176" y="89.599106" transform="rotate(-0 34.738176 89.599106)">Correct</text>
     </g>
    </g>
    <g id="xtick_9">
     <g id="line2d_16">
      <g>
       <use xlink:href="#m3eb29497c5" x="63.52756" y="78.804418" style="stroke: #000000; stroke-width: 0.5"/>
      </g>
     </g>
     <g id="text_6">
      <text style="font: 6px 'Arial', 'Helvetica', sans-serif; text-anchor: middle" x="63.52756" y="89.599106" transform="rotate(-0 63.52756 89.599106)">Error</text>
     </g>
    </g>
    <g id="xtick_10">
     <g id="line2d_17">
      <g>
       <use xlink:href="#m3eb29497c5" x="92.316943" y="78.804418" style="stroke: #000000; stroke-width: 0.5"/>
      </g>
     </g>
     <g id="text_7">
      <text style="font: 6px 'Arial', 'Helvetica', sans-serif; text-anchor: middle" x="92.316943" y="89.599106" transform="rotate(-0 92.316943 89.599106)">Correct</text>
     </g>
    </g>
    <g id="xtick_11">
     <g id="line2d_18">
      <g>
       <use xlink:href="#m3eb29497c5" x="121.106327" y="78.804418" style="stroke: #000000; stroke-width: 0.5"/>
      </g>
     </g>
     <g id="text_8">
      <text style="font: 6px 'Arial', 'Helvetica', sans-serif; text-anchor: middle" x="121.106327" y="89.599106" transform="rotate(-0 121.106327 89.599106)">Correct</text>
     </g>
    </g>
    <g id="xtick_12">
     <g id="line2d_19">
      <g>
       <use xlink:href="#m3eb29497c5" x="149.89571" y="78.804418" style="stroke: #000000; stroke-width: 0.5"/>
      </g>
     </g>
     <g id="text_9">
      <text style="font: 6px 'Arial', 'Helvetica', sans-serif; text-anchor: middle" x="149.89571" y="89.599106" transform="rotate(-0 149.89571 89.599106)">Error</text>
     </g>
    </g>
    <g id="xtick_13">
     <g id="line2d_20">
      <g>
       <use xlink:href="#m3eb29497c5" x="178.685094" y="78.804418" style="stroke: #000000; stroke-width: 0.5"/>
      </g>
     </g>
     <g id="text_10">
      <text style="font: 6px 'Arial', 'Helvetica', sans-serif; text-anchor: middle" x="178.685094" y="89.599106" transform="rotate(-0 178.685094 89.599106)">Correct</text>
     </g>
    </g>
   </g>
   <g id="matplotlib.axis_6">
    <g id="ytick_1">
     <g id="line2d_21">
      <defs>
       <path id="m252479c848" d="M 0 0 
L -3 0 
" style="stroke: #000000; stroke-width: 0.5"/>
      </defs>
      <g>
       <use xlink:href="#m252479c848" x="19.62375" y="78.804418" style="stroke: #000000; stroke-width: 0.5"/>
      </g>
     </g>
     <g id="text_11">
      <text style="font: 6px 'Arial', 'Helvetica', sans-serif; text-anchor: end" x="14.62375" y="80.951762" transform="rotate(-0 14.62375 80.951762)">0</text>
     </g>
    </g>
    <g id="ytick_2">
     <g id="line2d_22">
      <g>
       <use xlink:href="#m252479c848" x="19.62375" y="65.830881" style="stroke: #000000; stroke-width: 0.5"/>
      </g>
     </g>
     <g id="text_12">
      <text style="font: 6px 'Arial', 'Helvetica', sans-serif; text-anchor: end" x="14.62375" y="67.978225" transform="rotate(-0 14.62375 67.978225)">1</text>
     </g>
    </g>
    <g id="ytick_3">
     <g id="line2d_23">
      <g>
       <use xlink:href="#m252479c848" x="19.62375" y="52.857344" style="stroke: #000000; stroke-width: 0.5"/>
      </g>
     </g>
     <g id="text_13">
      <text style="font: 6px 'Arial', 'Helvetica', sans-serif; text-anchor: end" x="14.62375" y="55.004688" transform="rotate(-0 14.62375 55.004688)">2</text>
     </g>
    </g>
    <g id="ytick_4">
     <g id="line2d_24">
      <g>
       <use xlink:href="#m252479c848" x="19.62375" y="39.883807" style="stroke: #000000; stroke-width: 0.5"/>
      </g>
     </g>
     <g id="text_14">
      <text style="font: 6px 'Arial', 'Helvetica', sans-serif; text-anchor: end" x="14.62375" y="42.031151" transform="rotate(-0 14.62375 42.031151)">3</text>
     </g>
    </g>
    <g id="ytick_5">
     <g id="line2d_25">
      <g>
       <use xlink:href="#m252479c848" x="19.62375" y="26.91027" style="stroke: #000000; stroke-width: 0.5"/>
      </g>
     </g>
     <g id="text_15">
      <text style="font: 6px 'Arial', 'Helvetica', sans-serif; text-anchor: end" x="14.62375" y="29.057614" transform="rotate(-0 14.62375 29.057614)">4</text>
     </g>
    </g>
    <g id="ytick_6">
     <g id="line2d_26">
      <g>
       <use xlink:href="#m252479c848" x="19.62375" y="13.936733" style="stroke: #000000; stroke-width: 0.5"/>
      </g>
     </g>
     <g id="text_16">
      <text style="font: 6px 'Arial', 'Helvetica', sans-serif; text-anchor: end" x="14.62375" y="16.084077" transform="rotate(-0 14.62375 16.084077)">5</text>
     </g>
    </g>
    <g id="text_17">
     <text style="font: 6px 'Arial', 'Helvetica', sans-serif; text-anchor: middle" x="6.094688" y="46.370576" transform="rotate(-90 6.094688 46.370576)">% frames active </text>
    </g>
   </g>
   <g id="line2d_27"/>
   <g id="line2d_28">
    <path d="M 31.139503 36.202121 
L 31.139503 32.375877 
" clip-path="url(#p1e00240f54)" style="fill: none; stroke: #808080; stroke-width: 1.53; stroke-linecap: square"/>
   </g>
   <g id="line2d_29">
    <path d="M 59.928887 33.104216 
L 59.928887 26.846591 
" clip-path="url(#p1e00240f54)" style="fill: none; stroke: #808080; stroke-width: 1.53; stroke-linecap: square"/>
   </g>
   <g id="line2d_30">
    <path d="M 88.71827 46.748229 
L 88.71827 44.121962 
" clip-path="url(#p1e00240f54)" style="fill: none; stroke: #808080; stroke-width: 1.53; stroke-linecap: square"/>
   </g>
   <g id="line2d_31">
    <path d="M 117.507654 47.949022 
L 117.507654 43.986642 
" clip-path="url(#p1e00240f54)" style="fill: none; stroke: #808080; stroke-width: 1.53; stroke-linecap: square"/>
   </g>
   <g id="line2d_32">
    <path d="M 146.297037 48.3209 
L 146.297037 44.449176 
" clip-path="url(#p1e00240f54)" style="fill: none; stroke: #808080; stroke-width: 1.53; stroke-linecap: square"/>
   </g>
   <g id="line2d_33">
    <path d="M 175.086421 52.270347 
L 175.086421 49.749994 
" clip-path="url(#p1e00240f54)" style="fill: none; stroke: #808080; stroke-width: 1.53; stroke-linecap: square"/>
   </g>
   <g id="PathCollection_2">
    <defs>
     <path id="m673d518b7c" d="M 0 1.917571 
C 0.508546 1.917571 0.996331 1.715523 1.355927 1.355927 
C 1.715523 0.996331 1.917571 0.508546 1.917571 0 
C 1.917571 -0.508546 1.715523 -0.996331 1.355927 -1.355927 
C 0.996331 -1.715523 0.508546 -1.917571 0 -1.917571 
C -0.508546 -1.917571 -0.996331 -1.715523 -1.355927 -1.355927 
C -1.715523 -0.996331 -1.917571 -0.508546 -1.917571 0 
C -1.917571 0.508546 -1.715523 0.996331 -1.355927 1.355927 
C -0.996331 1.715523 -0.508546 1.917571 0 1.917571 
z
" style="stroke: #000000; stroke-width: 0.5"/>
    </defs>
    <g clip-path="url(#p1e00240f54)">
     <use xlink:href="#m673d518b7c" x="31.139503" y="34.288999" style="fill: #808080; stroke: #000000; stroke-width: 0.5"/>
     <use xlink:href="#m673d518b7c" x="59.928887" y="29.975404" style="fill: #808080; stroke: #000000; stroke-width: 0.5"/>
     <use xlink:href="#m673d518b7c" x="88.71827" y="45.435095" style="fill: #808080; stroke: #000000; stroke-width: 0.5"/>
     <use xlink:href="#m673d518b7c" x="117.507654" y="45.967832" style="fill: #808080; stroke: #000000; stroke-width: 0.5"/>
     <use xlink:href="#m673d518b7c" x="146.297037" y="46.385038" style="fill: #808080; stroke: #000000; stroke-width: 0.5"/>
     <use xlink:href="#m673d518b7c" x="175.086421" y="51.01017" style="fill: #808080; stroke: #000000; stroke-width: 0.5"/>
    </g>
   </g>
   <g id="line2d_34">
    <path d="M 27.54083 14.03542 
L 27.54083 14.03542 
L 34.738176 14.03542 
L 34.738176 14.03542 
" style="fill: none; stroke: #000000; stroke-width: 0.75; stroke-linecap: square"/>
   </g>
   <g id="line2d_35">
    <path d="M 34.738176 7.809421 
L 34.738176 7.809421 
L 38.336849 7.809421 
L 38.336849 7.809421 
" style="fill: none; stroke: #000000; stroke-width: 0.75; stroke-linecap: square"/>
   </g>
   <g id="line2d_36">
    <path d="M 63.52756 5.960479 
L 63.52756 5.960479 
L 70.724906 5.960479 
L 70.724906 5.960479 
" style="fill: none; stroke: #000000; stroke-width: 0.75; stroke-linecap: square"/>
   </g>
   <g id="line2d_37">
    <path d="M 85.119597 30.896274 
L 85.119597 30.896274 
L 92.316943 30.896274 
L 92.316943 30.896274 
" style="fill: none; stroke: #000000; stroke-width: 0.75; stroke-linecap: square"/>
   </g>
   <g id="line2d_38">
    <path d="M 92.316943 24.54062 
L 92.316943 24.54062 
L 95.915616 24.54062 
L 95.915616 24.54062 
" style="fill: none; stroke: #000000; stroke-width: 0.75; stroke-linecap: square"/>
   </g>
   <g id="line2d_39">
    <path d="M 113.908981 36.203708 
L 113.908981 36.203708 
L 121.106327 36.203708 
L 121.106327 36.203708 
" style="fill: none; stroke: #000000; stroke-width: 0.75; stroke-linecap: square"/>
   </g>
   <g id="line2d_40">
    <path d="M 142.698364 34.822511 
L 142.698364 34.822511 
L 149.89571 34.822511 
L 149.89571 34.822511 
" style="fill: none; stroke: #000000; stroke-width: 0.75; stroke-linecap: square"/>
   </g>
   <g id="line2d_41">
    <path d="M 171.487748 47.155287 
L 171.487748 47.155287 
L 175.086421 47.155287 
L 175.086421 47.155287 
" style="fill: none; stroke: #000000; stroke-width: 0.75; stroke-linecap: square"/>
   </g>
   <g id="patch_7">
    <path d="M 19.62375 78.804418 
L 19.62375 13.936733 
" style="fill: none; stroke: #000000; stroke-width: 0.5; stroke-linejoin: miter; stroke-linecap: square"/>
   </g>
   <g id="patch_8">
    <path d="M 19.62375 78.804418 
L 193.79952 78.804418 
" style="fill: none; stroke: #000000; stroke-width: 0.5; stroke-linejoin: miter; stroke-linecap: square"/>
   </g>
   <g id="line2d_42"/>
   <g id="line2d_43">
    <path d="M 34.738176 21.118626 
L 34.738176 16.630127 
" clip-path="url(#p1e00240f54)" style="fill: none; stroke: #ff0000; stroke-width: 1.53; stroke-linecap: square"/>
   </g>
   <g id="line2d_44">
    <path d="M 63.52756 28.005998 
L 63.52756 20.58612 
" clip-path="url(#p1e00240f54)" style="fill: none; stroke: #ff0000; stroke-width: 1.53; stroke-linecap: square"/>
   </g>
   <g id="line2d_45">
    <path d="M 92.316943 36.8461 
L 92.316943 33.490982 
" clip-path="url(#p1e00240f54)" style="fill: none; stroke: #ff0000; stroke-width: 1.53; stroke-linecap: square"/>
   </g>
   <g id="line2d_46">
    <path d="M 121.106327 43.431463 
L 121.106327 38.798415 
" clip-path="url(#p1e00240f54)" style="fill: none; stroke: #ff0000; stroke-width: 1.53; stroke-linecap: square"/>
   </g>
   <g id="line2d_47">
    <path d="M 149.89571 41.131194 
L 149.89571 37.417218 
" clip-path="url(#p1e00240f54)" style="fill: none; stroke: #ff0000; stroke-width: 1.53; stroke-linecap: square"/>
   </g>
   <g id="line2d_48">
    <path d="M 178.685094 57.279792 
L 178.685094 54.88862 
" clip-path="url(#p1e00240f54)" style="fill: none; stroke: #ff0000; stroke-width: 1.53; stroke-linecap: square"/>
   </g>
   <g id="PathCollection_3">
    <defs>
     <path id="m095fae32fc" d="M 0 1.917571 
C 0.508546 1.917571 0.996331 1.715523 1.355927 1.355927 
C 1.715523 0.996331 1.917571 0.508546 1.917571 0 
C 1.917571 -0.508546 1.715523 -0.996331 1.355927 -1.355927 
C 0.996331 -1.715523 0.508546 -1.917571 0 -1.917571 
C -0.508546 -1.917571 -0.996331 -1.715523 -1.355927 -1.355927 
C -1.715523 -0.996331 -1.917571 -0.508546 -1.917571 0 
C -1.917571 0.508546 -1.715523 0.996331 -1.355927 1.355927 
C -0.996331 1.715523 -0.508546 1.917571 0 1.917571 
z
" style="stroke: #000000; stroke-width: 0.5"/>
    </defs>
    <g clip-path="url(#p1e00240f54)">
     <use xlink:href="#m095fae32fc" x="34.738176" y="18.874376" style="fill: #ff0000; stroke: #000000; stroke-width: 0.5"/>
     <use xlink:href="#m095fae32fc" x="63.52756" y="24.296059" style="fill: #ff0000; stroke: #000000; stroke-width: 0.5"/>
     <use xlink:href="#m095fae32fc" x="92.316943" y="35.168541" style="fill: #ff0000; stroke: #000000; stroke-width: 0.5"/>
     <use xlink:href="#m095fae32fc" x="121.106327" y="41.114939" style="fill: #ff0000; stroke: #000000; stroke-width: 0.5"/>
     <use xlink:href="#m095fae32fc" x="149.89571" y="39.274206" style="fill: #ff0000; stroke: #000000; stroke-width: 0.5"/>
     <use xlink:href="#m095fae32fc" x="178.685094" y="56.084206" style="fill: #ff0000; stroke: #000000; stroke-width: 0.5"/>
    </g>
   </g>
   <g id="text_18">
    <g id="patch_9">
     <path d="M 26.068878 17.591191 
L 36.210128 17.591191 
L 36.210128 9.474941 
L 26.068878 9.474941 
L 26.068878 17.591191 
z
" style="fill: none"/>
    </g>
    <text style="font: 8px 'Arial', 'Helvetica', sans-serif; text-anchor: middle" x="31.139503" y="15.601191" transform="rotate(-0 31.139503 15.601191)">***</text>
   </g>
   <g id="text_19">
    <g id="patch_10">
     <path d="M 31.466888 11.365192 
L 41.608138 11.365192 
L 41.608138 3.248942 
L 31.466888 3.248942 
L 31.466888 11.365192 
z
" style="fill: none"/>
    </g>
    <text style="font: 8px 'Arial', 'Helvetica', sans-serif; text-anchor: middle" x="36.537513" y="9.375192" transform="rotate(-0 36.537513 9.375192)">***</text>
   </g>
   <g id="text_20">
    <g id="patch_11">
     <path d="M 65.169358 9.51625 
L 69.083108 9.51625 
L 69.083108 1.4 
L 65.169358 1.4 
L 65.169358 9.51625 
z
" style="fill: none"/>
    </g>
    <text style="font: 8px 'Arial', 'Helvetica', sans-serif; text-anchor: middle" x="67.126233" y="7.52625" transform="rotate(-0 67.126233 7.52625)">*</text>
   </g>
   <g id="text_21">
    <g id="patch_12">
     <path d="M 83.647645 34.452046 
L 93.788895 34.452046 
L 93.788895 26.335796 
L 83.647645 26.335796 
L 83.647645 34.452046 
z
" style="fill: none"/>
    </g>
    <text style="font: 8px 'Arial', 'Helvetica', sans-serif; text-anchor: middle" x="88.71827" y="32.462046" transform="rotate(-0 88.71827 32.462046)">***</text>
   </g>
   <g id="text_22">
    <g id="patch_13">
     <path d="M 89.045655 28.096391 
L 99.186905 28.096391 
L 99.186905 19.980141 
L 89.045655 19.980141 
L 89.045655 28.096391 
z
" style="fill: none"/>
    </g>
    <text style="font: 8px 'Arial', 'Helvetica', sans-serif; text-anchor: middle" x="94.11628" y="26.106391" transform="rotate(-0 94.11628 26.106391)">***</text>
   </g>
   <g id="text_23">
    <g id="patch_14">
     <path d="M 115.550779 39.759479 
L 119.464529 39.759479 
L 119.464529 31.643229 
L 115.550779 31.643229 
L 115.550779 39.759479 
z
" style="fill: none"/>
    </g>
    <text style="font: 8px 'Arial', 'Helvetica', sans-serif; text-anchor: middle" x="117.507654" y="37.769479" transform="rotate(-0 117.507654 37.769479)">*</text>
   </g>
   <g id="text_24">
    <g id="patch_15">
     <path d="M 144.340162 38.378282 
L 148.253912 38.378282 
L 148.253912 30.262032 
L 144.340162 30.262032 
L 144.340162 38.378282 
z
" style="fill: none"/>
    </g>
    <text style="font: 8px 'Arial', 'Helvetica', sans-serif; text-anchor: middle" x="146.297037" y="36.388282" transform="rotate(-0 146.297037 36.388282)">*</text>
   </g>
   <g id="text_25">
    <g id="patch_16">
     <path d="M 169.773334 50.711058 
L 176.800834 50.711058 
L 176.800834 42.594808 
L 169.773334 42.594808 
L 169.773334 50.711058 
z
" style="fill: none"/>
    </g>
    <text style="font: 8px 'Arial', 'Helvetica', sans-serif; text-anchor: middle" x="173.287084" y="48.721058" transform="rotate(-0 173.287084 48.721058)">**</text>
   </g>
   <g id="text_26">
    <text style="font: 6px 'Arial', 'Helvetica', sans-serif; text-anchor: middle" x="106.711635" y="8.936733" transform="rotate(-0 106.711635 8.936733)">% of stage frames with activity</text>
   </g>
   <g id="line2d_49"/>
   <g id="line2d_50">
    <path d="M 38.336849 33.247821 
L 38.336849 28.819351 
" clip-path="url(#p1e00240f54)" style="fill: none; stroke: #1e90ff; stroke-width: 1.53; stroke-linecap: square"/>
   </g>
   <g id="line2d_51">
    <path d="M 67.126233 30.06021 
L 67.126233 24.65661 
" clip-path="url(#p1e00240f54)" style="fill: none; stroke: #1e90ff; stroke-width: 1.53; stroke-linecap: square"/>
   </g>
   <g id="line2d_52">
    <path d="M 95.915616 45.719232 
L 95.915616 42.842362 
" clip-path="url(#p1e00240f54)" style="fill: none; stroke: #1e90ff; stroke-width: 1.53; stroke-linecap: square"/>
   </g>
   <g id="line2d_53">
    <path d="M 124.705 48.521688 
L 124.705 44.778738 
" clip-path="url(#p1e00240f54)" style="fill: none; stroke: #1e90ff; stroke-width: 1.53; stroke-linecap: square"/>
   </g>
   <g id="line2d_54">
    <path d="M 153.494383 43.194355 
L 153.494383 38.874572 
" clip-path="url(#p1e00240f54)" style="fill: none; stroke: #1e90ff; stroke-width: 1.53; stroke-linecap: square"/>
   </g>
   <g id="line2d_55">
    <path d="M 182.283767 54.502718 
L 182.283767 52.044796 
" clip-path="url(#p1e00240f54)" style="fill: none; stroke: #1e90ff; stroke-width: 1.53; stroke-linecap: square"/>
   </g>
   <g id="PathCollection_4">
    <defs>
     <path id="m884f421030" d="M 0 1.917571 
C 0.508546 1.917571 0.996331 1.715523 1.355927 1.355927 
C 1.715523 0.996331 1.917571 0.508546 1.917571 0 
C 1.917571 -0.508546 1.715523 -0.996331 1.355927 -1.355927 
C 0.996331 -1.715523 0.508546 -1.917571 0 -1.917571 
C -0.508546 -1.917571 -0.996331 -1.715523 -1.355927 -1.355927 
C -1.715523 -0.996331 -1.917571 -0.508546 -1.917571 0 
C -1.917571 0.508546 -1.715523 0.996331 -1.355927 1.355927 
C -0.996331 1.715523 -0.508546 1.917571 0 1.917571 
z
" style="stroke: #000000; stroke-width: 0.5"/>
    </defs>
    <g clip-path="url(#p1e00240f54)">
     <use xlink:href="#m884f421030" x="38.336849" y="31.033586" style="fill: #1e90ff; stroke: #000000; stroke-width: 0.5"/>
     <use xlink:href="#m884f421030" x="67.126233" y="27.35841" style="fill: #1e90ff; stroke: #000000; stroke-width: 0.5"/>
     <use xlink:href="#m884f421030" x="95.915616" y="44.280797" style="fill: #1e90ff; stroke: #000000; stroke-width: 0.5"/>
     <use xlink:href="#m884f421030" x="124.705" y="46.650213" style="fill: #1e90ff; stroke: #000000; stroke-width: 0.5"/>
     <use xlink:href="#m884f421030" x="153.494383" y="41.034464" style="fill: #1e90ff; stroke: #000000; stroke-width: 0.5"/>
     <use xlink:href="#m884f421030" x="182.283767" y="53.273757" style="fill: #1e90ff; stroke: #000000; stroke-width: 0.5"/>
    </g>
   </g>
   <g id="line2d_56"/>
   <g id="line2d_57">
    <path d="M 41.935522 26.474549 
L 41.935522 22.270783 
" clip-path="url(#p1e00240f54)" style="fill: none; stroke: #32cd32; stroke-width: 1.53; stroke-linecap: square"/>
   </g>
   <g id="line2d_58">
    <path d="M 70.724906 16.024048 
L 70.724906 8.555186 
" clip-path="url(#p1e00240f54)" style="fill: none; stroke: #32cd32; stroke-width: 1.53; stroke-linecap: square"/>
   </g>
   <g id="line2d_59">
    <path d="M 99.514289 39.324997 
L 99.514289 36.31102 
" clip-path="url(#p1e00240f54)" style="fill: none; stroke: #32cd32; stroke-width: 1.53; stroke-linecap: square"/>
   </g>
   <g id="line2d_60">
    <path d="M 128.303673 46.927833 
L 128.303673 43.013993 
" clip-path="url(#p1e00240f54)" style="fill: none; stroke: #32cd32; stroke-width: 1.53; stroke-linecap: square"/>
   </g>
   <g id="line2d_61">
    <path d="M 157.093056 41.37245 
L 157.093056 36.769448 
" clip-path="url(#p1e00240f54)" style="fill: none; stroke: #32cd32; stroke-width: 1.53; stroke-linecap: square"/>
   </g>
   <g id="line2d_62">
    <path d="M 185.88244 55.249102 
L 185.88244 52.668942 
" clip-path="url(#p1e00240f54)" style="fill: none; stroke: #32cd32; stroke-width: 1.53; stroke-linecap: square"/>
   </g>
   <g id="PathCollection_5">
    <defs>
     <path id="mfd812eb614" d="M 0 1.917571 
C 0.508546 1.917571 0.996331 1.715523 1.355927 1.355927 
C 1.715523 0.996331 1.917571 0.508546 1.917571 0 
C 1.917571 -0.508546 1.715523 -0.996331 1.355927 -1.355927 
C 0.996331 -1.715523 0.508546 -1.917571 0 -1.917571 
C -0.508546 -1.917571 -0.996331 -1.715523 -1.355927 -1.355927 
C -1.715523 -0.996331 -1.917571 -0.508546 -1.917571 0 
C -1.917571 0.508546 -1.715523 0.996331 -1.355927 1.355927 
C -0.996331 1.715523 -0.508546 1.917571 0 1.917571 
z
" style="stroke: #000000; stroke-width: 0.5"/>
    </defs>
    <g clip-path="url(#p1e00240f54)">
     <use xlink:href="#mfd812eb614" x="41.935522" y="24.372666" style="fill: #32cd32; stroke: #000000; stroke-width: 0.5"/>
     <use xlink:href="#mfd812eb614" x="70.724906" y="12.289617" style="fill: #32cd32; stroke: #000000; stroke-width: 0.5"/>
     <use xlink:href="#mfd812eb614" x="99.514289" y="37.818008" style="fill: #32cd32; stroke: #000000; stroke-width: 0.5"/>
     <use xlink:href="#mfd812eb614" x="128.303673" y="44.970913" style="fill: #32cd32; stroke: #000000; stroke-width: 0.5"/>
     <use xlink:href="#mfd812eb614" x="157.093056" y="39.070949" style="fill: #32cd32; stroke: #000000; stroke-width: 0.5"/>
     <use xlink:href="#mfd812eb614" x="185.88244" y="53.959022" style="fill: #32cd32; stroke: #000000; stroke-width: 0.5"/>
    </g>
   </g>
  </g>
 </g>
 <defs>
  <clipPath id="p1e00240f54">
   <rect x="19.62375" y="13.936733" width="174.17577" height="64.867685"/>
  </clipPath>
 </defs>
</svg>
