<?xml version="1.0" encoding="utf-8" standalone="no"?>
<!DOCTYPE svg PUBLIC "-//W3C//DTD SVG 1.1//EN"
  "http://www.w3.org/Graphics/SVG/1.1/DTD/svg11.dtd">
<svg xmlns:xlink="http://www.w3.org/1999/xlink" width="109.44pt" height="134.64pt" viewBox="0 0 109.44 134.64" xmlns="http://www.w3.org/2000/svg" version="1.1">
 <metadata>
  <rdf:RDF xmlns:dc="http://purl.org/dc/elements/1.1/" xmlns:cc="http://creativecommons.org/ns#" xmlns:rdf="http://www.w3.org/1999/02/22-rdf-syntax-ns#">
   <cc:Work>
    <dc:type rdf:resource="http://purl.org/dc/dcmitype/StillImage"/>
    <dc:date>2025-08-28T21:49:14.625238</dc:date>
    <dc:format>image/svg+xml</dc:format>
    <dc:creator>
     <cc:Agent>
      <dc:title>Matplotlib v3.7.0, https://matplotlib.org/</dc:title>
     </cc:Agent>
    </dc:creator>
   </cc:Work>
  </rdf:RDF>
 </metadata>
 <defs>
  <style type="text/css">*{stroke-linejoin: round; stroke-linecap: butt}</style>
 </defs>
 <g id="figure_1">
  <g id="patch_1">
   <path d="M 0 134.64 
L 109.44 134.64 
L 109.44 0 
L 0 0 
z
" style="fill: #ffffff"/>
  </g>
  <g id="axes_1">
   <g id="patch_2">
    <path d="M 28.034063 104.876063 
L 107.64 104.876063 
L 107.64 17.672 
L 28.034063 17.672 
z
" style="fill: #ffffff"/>
   </g>
   <g id="line2d_1"/>
   <g id="line2d_2">
    <path d="M 31.652514 58.430421 
L 31.652514 45.160237 
" clip-path="url(#pcaba9bf0fe)" style="fill: none; stroke: #000000; stroke-width: 1.25; stroke-linecap: square"/>
   </g>
   <g id="line2d_3">
    <path d="M 85.259206 57.48255 
L 85.259206 44.212367 
" clip-path="url(#pcaba9bf0fe)" style="fill: none; stroke: #000000; stroke-width: 1.25; stroke-linecap: square"/>
   </g>
   <g id="PathCollection_1">
    <defs>
     <path id="m3e3dbab358" d="M 0 1.917571 
C 0.508546 1.917571 0.996331 1.715523 1.355927 1.355927 
C 1.715523 0.996331 1.917571 0.508546 1.917571 0 
C 1.917571 -0.508546 1.715523 -0.996331 1.355927 -1.355927 
C 0.996331 -1.715523 0.508546 -1.917571 0 -1.917571 
C -0.508546 -1.917571 -0.996331 -1.715523 -1.355927 -1.355927 
C -1.715523 -0.996331 -1.917571 -0.508546 -1.917571 0 
C -1.917571 0.508546 -1.715523 0.996331 -1.355927 1.355927 
C -0.996331 1.715523 -0.508546 1.917571 0 1.917571 
z
" style="stroke: #000000; stroke-width: 0.5"/>
    </defs>
    <g clip-path="url(#pcaba9bf0fe)">
     <use xlink:href="#m3e3dbab358" x="31.652514" y="51.732769" style="stroke: #000000; stroke-width: 0.5"/>
     <use xlink:href="#m3e3dbab358" x="85.259206" y="50.474946" style="stroke: #000000; stroke-width: 0.5"/>
    </g>
   </g>
   <g id="matplotlib.axis_1">
    <g id="xtick_1">
     <g id="line2d_4">
      <defs>
       <path id="m747f15710b" d="M 0 0 
L 0 3 
" style="stroke: #000000; stroke-width: 0.5"/>
      </defs>
      <g>
       <use xlink:href="#m747f15710b" x="41.033685" y="104.876063" style="stroke: #000000; stroke-width: 0.5"/>
      </g>
     </g>
     <g id="text_1">
      <g id="patch_3">
       <path d="M 30.507435 117.88325 
L 51.559935 117.88325 
L 51.559935 110.356063 
L 30.507435 110.356063 
z
" style="fill: #7e1e9c; opacity: 0.4"/>
      </g>
      <text style="font: 6px 'Arial', 'Helvetica', sans-serif; text-anchor: middle" x="41.033685" y="115.67075" transform="rotate(-0 41.033685 115.67075)">Late IA</text>
     </g>
    </g>
    <g id="xtick_2">
     <g id="line2d_5">
      <g>
       <use xlink:href="#m747f15710b" x="94.640377" y="104.876063" style="stroke: #000000; stroke-width: 0.5"/>
      </g>
     </g>
     <g id="text_2">
      <g id="patch_4">
       <path d="M 81.78444 124.372813 
L 107.496315 124.372813 
L 107.496315 110.28575 
L 81.78444 110.28575 
z
" style="fill: #ffda03; opacity: 0.4"/>
      </g>
      <text style="font: 6px 'Arial', 'Helvetica', sans-serif" transform="translate(82.80444 115.743875)">Early RS</text>
      <text style="font: 6px 'Arial', 'Helvetica', sans-serif" transform="translate(83.972565 122.160313)"> Correct</text>
     </g>
    </g>
    <g id="text_3">
     <text style="font: 6px 'Arial', 'Helvetica', sans-serif; text-anchor: middle" x="67.837031" y="131.6475" transform="rotate(-0 67.837031 131.6475)">Cell Ensemble</text>
    </g>
   </g>
   <g id="matplotlib.axis_2">
    <g id="ytick_1">
     <g id="line2d_6">
      <defs>
       <path id="m5fd22ec402" d="M 0 0 
L -3 0 
" style="stroke: #000000; stroke-width: 0.5"/>
      </defs>
      <g>
       <use xlink:href="#m5fd22ec402" x="28.034063" y="104.876063" style="stroke: #000000; stroke-width: 0.5"/>
      </g>
     </g>
     <g id="text_4">
      <text style="font: 6px 'Arial', 'Helvetica', sans-serif; text-anchor: end" x="23.034063" y="107.023406" transform="rotate(-0 23.034063 107.023406)">0.90</text>
     </g>
    </g>
    <g id="ytick_2">
     <g id="line2d_7">
      <g>
       <use xlink:href="#m5fd22ec402" x="28.034063" y="89.710139" style="stroke: #000000; stroke-width: 0.5"/>
      </g>
     </g>
     <g id="text_5">
      <text style="font: 6px 'Arial', 'Helvetica', sans-serif; text-anchor: end" x="23.034063" y="91.857482" transform="rotate(-0 23.034063 91.857482)">0.92</text>
     </g>
    </g>
    <g id="ytick_3">
     <g id="line2d_8">
      <g>
       <use xlink:href="#m5fd22ec402" x="28.034063" y="74.544215" style="stroke: #000000; stroke-width: 0.5"/>
      </g>
     </g>
     <g id="text_6">
      <text style="font: 6px 'Arial', 'Helvetica', sans-serif; text-anchor: end" x="23.034063" y="76.691558" transform="rotate(-0 23.034063 76.691558)">0.94</text>
     </g>
    </g>
    <g id="ytick_4">
     <g id="line2d_9">
      <g>
       <use xlink:href="#m5fd22ec402" x="28.034063" y="59.378291" style="stroke: #000000; stroke-width: 0.5"/>
      </g>
     </g>
     <g id="text_7">
      <text style="font: 6px 'Arial', 'Helvetica', sans-serif; text-anchor: end" x="23.034063" y="61.525635" transform="rotate(-0 23.034063 61.525635)">0.96</text>
     </g>
    </g>
    <g id="ytick_5">
     <g id="line2d_10">
      <g>
       <use xlink:href="#m5fd22ec402" x="28.034063" y="44.212367" style="stroke: #000000; stroke-width: 0.5"/>
      </g>
     </g>
     <g id="text_8">
      <text style="font: 6px 'Arial', 'Helvetica', sans-serif; text-anchor: end" x="23.034063" y="46.359711" transform="rotate(-0 23.034063 46.359711)">0.98</text>
     </g>
    </g>
    <g id="ytick_6">
     <g id="line2d_11">
      <g>
       <use xlink:href="#m5fd22ec402" x="28.034063" y="29.046443" style="stroke: #000000; stroke-width: 0.5"/>
      </g>
     </g>
     <g id="text_9">
      <text style="font: 6px 'Arial', 'Helvetica', sans-serif; text-anchor: end" x="23.034063" y="31.193787" transform="rotate(-0 23.034063 31.193787)">1.00</text>
     </g>
    </g>
    <g id="text_10">
     <text style="font: 6px 'Arial', 'Helvetica', sans-serif; text-anchor: middle" x="6.094688" y="61.274031" transform="rotate(-90 6.094688 61.274031)">Mean accuracy</text>
    </g>
   </g>
   <g id="line2d_12"/>
   <g id="line2d_13">
    <path d="M 37.906628 63.169772 
L 37.906628 48.003848 
" clip-path="url(#pcaba9bf0fe)" style="fill: none; stroke: #ff0000; stroke-width: 1.25; stroke-linecap: square"/>
   </g>
   <g id="line2d_14">
    <path d="M 91.51332 74.544215 
L 91.51332 58.311937 
" clip-path="url(#pcaba9bf0fe)" style="fill: none; stroke: #ff0000; stroke-width: 1.25; stroke-linecap: square"/>
   </g>
   <g id="PathCollection_2">
    <defs>
     <path id="m1c17572502" d="M 0 1.917571 
C 0.508546 1.917571 0.996331 1.715523 1.355927 1.355927 
C 1.715523 0.996331 1.917571 0.508546 1.917571 0 
C 1.917571 -0.508546 1.715523 -0.996331 1.355927 -1.355927 
C 0.996331 -1.715523 0.508546 -1.917571 0 -1.917571 
C -0.508546 -1.917571 -0.996331 -1.715523 -1.355927 -1.355927 
C -1.715523 -0.996331 -1.917571 -0.508546 -1.917571 0 
C -1.917571 0.508546 -1.715523 0.996331 -1.355927 1.355927 
C -0.996331 1.715523 -0.508546 1.917571 0 1.917571 
z
" style="stroke: #000000; stroke-width: 0.5"/>
    </defs>
    <g clip-path="url(#pcaba9bf0fe)">
     <use xlink:href="#m1c17572502" x="37.906628" y="55.37733" style="fill: #ff0000; stroke: #000000; stroke-width: 0.5"/>
     <use xlink:href="#m1c17572502" x="91.51332" y="65.986842" style="fill: #ff0000; stroke: #000000; stroke-width: 0.5"/>
    </g>
   </g>
   <g id="line2d_15">
    <path d="M 85.259206 36.932723 
L 85.259206 36.932723 
L 91.51332 36.932723 
L 91.51332 36.932723 
" style="fill: none; stroke: #000000; stroke-width: 0.75; stroke-linecap: square"/>
   </g>
   <g id="line2d_16">
    <path d="M 91.51332 31.600787 
L 91.51332 31.600787 
L 97.767434 31.600787 
L 97.767434 31.600787 
" style="fill: none; stroke: #000000; stroke-width: 0.75; stroke-linecap: square"/>
   </g>
   <g id="line2d_17">
    <path d="M 91.51332 26.26885 
L 91.51332 26.26885 
L 104.021548 26.26885 
L 104.021548 26.26885 
" style="fill: none; stroke: #000000; stroke-width: 0.75; stroke-linecap: square"/>
   </g>
   <g id="patch_5">
    <path d="M 28.034063 104.876063 
L 28.034063 17.672 
" style="fill: none; stroke: #000000; stroke-width: 0.5; stroke-linejoin: miter; stroke-linecap: square"/>
   </g>
   <g id="patch_6">
    <path d="M 28.034063 104.876063 
L 107.64 104.876063 
" style="fill: none; stroke: #000000; stroke-width: 0.5; stroke-linejoin: miter; stroke-linecap: square"/>
   </g>
   <g id="line2d_18"/>
   <g id="line2d_19">
    <path d="M 44.160742 59.378291 
L 44.160742 46.108107 
" clip-path="url(#pcaba9bf0fe)" style="fill: none; stroke: #1e90ff; stroke-width: 1.25; stroke-linecap: square"/>
   </g>
   <g id="line2d_20">
    <path d="M 97.767434 63.169772 
L 97.767434 48.951718 
" clip-path="url(#pcaba9bf0fe)" style="fill: none; stroke: #1e90ff; stroke-width: 1.25; stroke-linecap: square"/>
   </g>
   <g id="PathCollection_3">
    <defs>
     <path id="m17621e9c65" d="M 0 1.917571 
C 0.508546 1.917571 0.996331 1.715523 1.355927 1.355927 
C 1.715523 0.996331 1.917571 0.508546 1.917571 0 
C 1.917571 -0.508546 1.715523 -0.996331 1.355927 -1.355927 
C 0.996331 -1.715523 0.508546 -1.917571 0 -1.917571 
C -0.508546 -1.917571 -0.996331 -1.715523 -1.355927 -1.355927 
C -1.715523 -0.996331 -1.917571 -0.508546 -1.917571 0 
C -1.917571 0.508546 -1.715523 0.996331 -1.355927 1.355927 
C -0.996331 1.715523 -0.508546 1.917571 0 1.917571 
z
" style="stroke: #000000; stroke-width: 0.5"/>
    </defs>
    <g clip-path="url(#pcaba9bf0fe)">
     <use xlink:href="#m17621e9c65" x="44.160742" y="52.819029" style="fill: #1e90ff; stroke: #000000; stroke-width: 0.5"/>
     <use xlink:href="#m17621e9c65" x="97.767434" y="56.059797" style="fill: #1e90ff; stroke: #000000; stroke-width: 0.5"/>
    </g>
   </g>
   <g id="text_11">
    <g id="patch_7">
     <path d="M 83.315638 40.913808 
L 93.456888 40.913808 
L 93.456888 32.797558 
L 83.315638 32.797558 
L 83.315638 40.913808 
z
" style="fill: none"/>
    </g>
    <text style="font: 8px 'Arial', 'Helvetica', sans-serif; text-anchor: middle" x="88.386263" y="38.923808" transform="rotate(-0 88.386263 38.923808)">***</text>
   </g>
   <g id="text_12">
    <g id="patch_8">
     <path d="M 92.683502 35.581871 
L 96.597252 35.581871 
L 96.597252 27.465621 
L 92.683502 27.465621 
L 92.683502 35.581871 
z
" style="fill: none"/>
    </g>
    <text style="font: 8px 'Arial', 'Helvetica', sans-serif; text-anchor: middle" x="94.640377" y="33.591871" transform="rotate(-0 94.640377 33.591871)">*</text>
   </g>
   <g id="text_13">
    <g id="patch_9">
     <path d="M 92.696809 30.249934 
L 102.838059 30.249934 
L 102.838059 22.133684 
L 92.696809 22.133684 
L 92.696809 30.249934 
z
" style="fill: none"/>
    </g>
    <text style="font: 8px 'Arial', 'Helvetica', sans-serif; text-anchor: middle" x="97.767434" y="28.259934" transform="rotate(-0 97.767434 28.259934)">***</text>
   </g>
   <g id="text_14">
    <text style="font: 6px 'Arial', 'Helvetica', sans-serif" transform="translate(42.49875 6.167812)">Classify activity as:</text>
    <text style="font: 6px 'Arial', 'Helvetica', sans-serif" transform="translate(30.491719 12.672)"> Late IA vs Early RS Correct</text>
   </g>
   <g id="line2d_21"/>
   <g id="line2d_22">
    <path d="M 50.414856 59.378291 
L 50.414856 46.108107 
" clip-path="url(#pcaba9bf0fe)" style="fill: none; stroke: #32cd32; stroke-width: 1.25; stroke-linecap: square"/>
   </g>
   <g id="line2d_23">
    <path d="M 104.021548 52.743199 
L 104.021548 40.420886 
" clip-path="url(#pcaba9bf0fe)" style="fill: none; stroke: #32cd32; stroke-width: 1.25; stroke-linecap: square"/>
   </g>
   <g id="PathCollection_4">
    <defs>
     <path id="mba550802c4" d="M 0 1.917571 
C 0.508546 1.917571 0.996331 1.715523 1.355927 1.355927 
C 1.715523 0.996331 1.917571 0.508546 1.917571 0 
C 1.917571 -0.508546 1.715523 -0.996331 1.355927 -1.355927 
C 0.996331 -1.715523 0.508546 -1.917571 0 -1.917571 
C -0.508546 -1.917571 -0.996331 -1.715523 -1.355927 -1.355927 
C -1.715523 -0.996331 -1.917571 -0.508546 -1.917571 0 
C -1.917571 0.508546 -1.715523 0.996331 -1.355927 1.355927 
C -0.996331 1.715523 -0.508546 1.917571 0 1.917571 
z
" style="stroke: #000000; stroke-width: 0.5"/>
    </defs>
    <g clip-path="url(#pcaba9bf0fe)">
     <use xlink:href="#mba550802c4" x="50.414856" y="52.777322" style="fill: #32cd32; stroke: #000000; stroke-width: 0.5"/>
     <use xlink:href="#mba550802c4" x="104.021548" y="46.641758" style="fill: #32cd32; stroke: #000000; stroke-width: 0.5"/>
    </g>
   </g>
  </g>
 </g>
 <defs>
  <clipPath id="pcaba9bf0fe">
   <rect x="28.034063" y="17.672" width="79.605937" height="87.204063"/>
  </clipPath>
 </defs>
</svg>
